<svg width="28" height="31" viewBox="0 0 28 31" fill="none" xmlns="http://www.w3.org/2000/svg">
<path d="M1.41792 0.000139811C1.23267 -0.00248012 1.04874 0.031745 0.876831 0.100826C0.70492 0.169907 0.548453 0.272466 0.416524 0.402543C0.284594 0.53262 0.179832 0.68762 0.108328 0.858537C0.0368225 1.02945 0 1.21288 0 1.39815C0 1.58342 0.0368225 1.76684 0.108328 1.93776C0.179832 2.10868 0.284594 2.26368 0.416524 2.39375C0.548453 2.52383 0.70492 2.62639 0.876831 2.69547C1.04874 2.76455 1.23267 2.79878 1.41792 2.79616H1.55171L4.0938 28.2388C4.23525 29.6561 5.45223 30.7563 6.87616 30.7563H21.1238C22.5478 30.7563 23.7647 29.6561 23.9062 28.2388L26.4483 2.79616H26.5821C26.7673 2.79878 26.9513 2.76455 27.1232 2.69547C27.2951 2.62639 27.4515 2.52383 27.5835 2.39375C27.7154 2.26368 27.8202 2.10868 27.8917 1.93776C27.9632 1.76684 28 1.58342 28 1.39815C28 1.21288 27.9632 1.02945 27.8917 0.858537C27.8202 0.68762 27.7154 0.53262 27.5835 0.402543C27.4515 0.272466 27.2951 0.169907 27.1232 0.100826C26.9513 0.031745 26.7673 -0.00248012 26.5821 0.000139811H1.41792ZM4.35865 2.79616H23.6413L23.0816 8.38819H4.9184L4.35865 2.79616ZM18.893 11.1842C20.0506 11.1842 20.99 12.1237 20.99 13.2812C20.99 14.4388 20.0506 15.3782 18.893 15.3782C17.7355 15.3782 16.796 14.4388 16.796 13.2812C16.796 12.1237 17.7355 11.1842 18.893 11.1842ZM10.505 16.7762C11.6625 16.7762 12.602 17.7157 12.602 18.8733C12.602 20.0308 11.6625 20.9703 10.505 20.9703C9.34743 20.9703 8.40796 20.0308 8.40796 18.8733C8.40796 17.7157 9.34743 16.7762 10.505 16.7762ZM15.398 22.3683C16.1697 22.3683 16.796 22.9946 16.796 23.7663C16.796 24.538 16.1697 25.1643 15.398 25.1643C14.6263 25.1643 14 24.538 14 23.7663C14 22.9946 14.6263 22.3683 15.398 22.3683Z" fill="#FCBA5E"/>
</svg>
