<svg width="82" height="90" viewBox="0 0 82 90" fill="none" xmlns="http://www.w3.org/2000/svg">
<g clip-path="url(#clip0)">
<path d="M4.11654 0.000405902C3.57872 -0.00720035 3.04473 0.0921629 2.54564 0.292721C2.04654 0.493278 1.59228 0.79103 1.20926 1.16867C0.826241 1.54632 0.522093 1.99632 0.314501 2.49253C0.106904 2.98873 0 3.52126 0 4.05914C0 4.59703 0.106904 5.12954 0.314501 5.62575C0.522093 6.12197 0.826241 6.57197 1.20926 6.9496C1.59228 7.32725 2.04654 7.625 2.54564 7.82556C3.04473 8.02611 3.57872 8.12549 4.11654 8.11788H4.50496L11.8852 81.9836C12.2959 86.0984 15.8291 89.2925 19.963 89.2925H61.3272C65.4614 89.2925 68.9943 86.0984 69.4051 81.9836L76.7854 8.11788H77.1738C77.7115 8.12549 78.2457 8.02611 78.7448 7.82556C79.2438 7.625 79.6979 7.32725 80.0811 6.9496C80.4641 6.57197 80.7683 6.12197 80.9759 5.62575C81.1835 5.12954 81.2903 4.59703 81.2903 4.05914C81.2903 3.52126 81.1835 2.98873 80.9759 2.49253C80.7683 1.99632 80.4641 1.54632 80.0811 1.16867C79.6979 0.79103 79.2438 0.493278 78.7448 0.292721C78.2457 0.0921629 77.7115 -0.00720035 77.1738 0.000405902H4.11654ZM12.6541 8.11788H68.636L63.871 40.6452H17.4194L12.6541 8.11788Z" fill="#31A2F4"/>
</g>
<defs>
<clipPath id="clip0">
<rect width="81.2903" height="90" fill="white"/>
</clipPath>
</defs>
</svg>
