<svg width="60" height="60" viewBox="0 0 60 60" fill="none" xmlns="http://www.w3.org/2000/svg">
<path d="M47.5 5.00004H42.2696C41.7519 3.5482 40.3774 2.50008 38.7499 2.50008H34.9743C33.8 0.942422 31.9543 0 30 0C28.0457 0 26.2 0.942422 25.0256 2.49996H21.25C19.6225 2.49996 18.248 3.54809 17.7302 4.99992H12.5C9.74238 5.00004 7.5 7.24242 7.5 9.99996V55C7.5 57.7576 9.74238 60 12.5 60H47.5001C50.2576 60 52.5 57.7576 52.5 55V9.99996C52.5 7.24242 50.2576 5.00004 47.5 5.00004ZM20 6.24996C20 5.56031 20.5603 4.99992 21.2501 4.99992H25.6935C26.1379 4.99992 26.5492 4.76309 26.7738 4.37859C27.4587 3.2018 28.6646 2.49996 30.0001 2.49996C31.3356 2.49996 32.5417 3.20191 33.2264 4.37859C33.4511 4.76309 33.8624 4.99992 34.3068 4.99992H38.7502C39.4398 4.99992 40.0002 5.5602 40.0002 6.24996V7.5C40.0002 8.87813 38.8784 9.99996 37.5002 9.99996H22.5C21.1219 9.99996 20 8.87813 20 7.5V6.24996ZM50 55C50 56.3781 48.8782 57.4999 47.5001 57.4999H12.5C11.1219 57.4999 10.0001 56.3781 10.0001 55V9.99996C10.0001 8.62184 11.1219 7.5 12.5 7.5H17.5001C17.5001 10.2575 19.7425 12.5 22.5001 12.5H37.5001C40.2577 12.5 42.5002 10.2577 42.5002 7.5H47.5002C48.8783 7.5 50.0002 8.62184 50.0002 9.99996V55H50Z" fill="white"/>
<path d="M21.2501 20H16.25C15.5591 20 15 20.5591 15 21.25V26.25C15 26.9409 15.5591 27.5 16.25 27.5H21.2501C21.941 27.5 22.5001 26.9409 22.5001 26.25V21.2499C22.5001 20.5591 21.941 20 21.2501 20ZM20.0002 24.9999H17.5002V22.5H20.0002V24.9999Z" fill="white"/>
<path d="M21.2501 32.5H16.25C15.5591 32.5 15 33.0591 15 33.75V38.7501C15 39.441 15.5591 40.0001 16.25 40.0001H21.2501C21.941 40.0001 22.5001 39.441 22.5001 38.7501V33.75C22.5001 33.0591 21.941 32.5 21.2501 32.5ZM20.0002 37.5H17.5002V35.0001H20.0002V37.5Z" fill="white"/>
<path d="M21.2501 45H16.25C15.5591 45 15 45.5591 15 46.25V51.2501C15 51.941 15.5591 52.5001 16.25 52.5001H21.2501C21.941 52.5001 22.5001 51.941 22.5001 51.2501V46.25C22.5001 45.5591 21.941 45 21.2501 45ZM20.0002 50H17.5002V47.5001H20.0002V50Z" fill="white"/>
<path d="M29.6338 22.8662C29.1454 22.3779 28.3544 22.3779 27.8662 22.8662L27.5 23.2324L27.1338 22.8662C26.6455 22.3779 25.8544 22.3779 25.3662 22.8662C24.8779 23.3546 24.8779 24.1456 25.3662 24.6338L25.7325 25L25.3662 25.3662C24.8779 25.8545 24.8779 26.6455 25.3662 27.1337C25.6103 27.3778 25.9303 27.4999 26.2501 27.4999C26.5699 27.4999 26.8897 27.3778 27.1339 27.1337L27.5001 26.7675L27.8663 27.1337C28.1104 27.3778 28.4304 27.4999 28.7502 27.4999C29.07 27.4999 29.3898 27.3778 29.634 27.1337C30.1223 26.6454 30.1223 25.8544 29.634 25.3662L29.2678 25L29.634 24.6338C30.1221 24.1456 30.1221 23.3546 29.6338 22.8662Z" fill="white"/>
<path d="M37.1338 22.8662C36.6454 22.3779 35.8544 22.3779 35.3662 22.8662L35 23.2324L34.6338 22.8662C34.1455 22.3779 33.3544 22.3779 32.8662 22.8662C32.3779 23.3546 32.3779 24.1456 32.8662 24.6338L33.2325 25L32.8662 25.3662C32.3779 25.8545 32.3779 26.6455 32.8662 27.1337C33.1103 27.3778 33.4303 27.4999 33.7501 27.4999C34.0699 27.4999 34.3897 27.3778 34.6339 27.1337L35.0001 26.7675L35.3663 27.1337C35.6104 27.3778 35.9303 27.4999 36.2502 27.4999C36.57 27.4999 36.8898 27.3778 37.134 27.1337C37.6223 26.6454 37.6223 25.8544 37.134 25.3662L36.7678 25L37.134 24.6338C37.6221 24.1456 37.6221 23.3546 37.1338 22.8662Z" fill="white"/>
<path d="M29.6338 35.3662C29.1454 34.8779 28.3544 34.8779 27.8662 35.3662L27.5 35.7325L27.1338 35.3662C26.6455 34.8779 25.8544 34.8779 25.3662 35.3662C24.8779 35.8546 24.8779 36.6456 25.3662 37.1338L25.7325 37.5L25.3662 37.8662C24.8779 38.3545 24.8779 39.1455 25.3662 39.6338C25.6103 39.8779 25.9303 40 26.2501 40C26.5699 40 26.8897 39.8779 27.1339 39.6338L27.5001 39.2675L27.8663 39.6338C28.1104 39.8779 28.4304 40 28.7502 40C29.07 40 29.3898 39.8779 29.634 39.6338C30.1223 39.1454 30.1223 38.3544 29.634 37.8662L29.2675 37.5L29.6338 37.1338C30.1221 36.6455 30.1221 35.8544 29.6338 35.3662Z" fill="white"/>
<path d="M37.1338 35.3662C36.6454 34.8779 35.8544 34.8779 35.3662 35.3662L35 35.7325L34.6338 35.3662C34.1455 34.8779 33.3544 34.8779 32.8662 35.3662C32.3779 35.8546 32.3779 36.6456 32.8662 37.1338L33.2325 37.5L32.8662 37.8662C32.3779 38.3545 32.3779 39.1455 32.8662 39.6338C33.1103 39.8779 33.4303 40 33.7501 40C34.0699 40 34.3897 39.8779 34.6339 39.6338L35.0001 39.2675L35.3663 39.6338C35.6104 39.8779 35.9303 40 36.2502 40C36.57 40 36.8898 39.8779 37.134 39.6338C37.6223 39.1454 37.6223 38.3544 37.134 37.8662L36.7675 37.5L37.1338 37.1338C37.6221 36.6455 37.6221 35.8544 37.1338 35.3662Z" fill="white"/>
<path d="M29.6338 47.8662C29.1454 47.3779 28.3544 47.3779 27.8662 47.8662L27.5 48.2325L27.1338 47.8662C26.6455 47.3779 25.8544 47.3779 25.3662 47.8662C24.8779 48.3546 24.8779 49.1456 25.3662 49.6338L25.7325 50L25.3662 50.3662C24.8779 50.8545 24.8779 51.6455 25.3662 52.1338C25.6103 52.3779 25.9303 52.5 26.2501 52.5C26.5699 52.5 26.8897 52.3779 27.1339 52.1338L27.5001 51.7675L27.8663 52.1338C28.1104 52.3779 28.4304 52.5 28.7502 52.5C29.07 52.5 29.3898 52.3779 29.634 52.1338C30.1223 51.6454 30.1223 50.8544 29.634 50.3662L29.2678 50L29.634 49.6338C30.1221 49.1456 30.1221 48.3546 29.6338 47.8662Z" fill="white"/>
<path d="M44.6337 22.8662C44.1454 22.3779 43.3544 22.3779 42.8662 22.8662L42.5 23.2324L42.1338 22.8662C41.6455 22.3779 40.8544 22.3779 40.3662 22.8662C39.8779 23.3546 39.8779 24.1456 40.3662 24.6338L40.7325 25L40.3662 25.3662C39.8779 25.8545 39.8779 26.6455 40.3662 27.1337C40.6103 27.3778 40.9303 27.4999 41.2501 27.4999C41.5699 27.4999 41.8897 27.3778 42.1339 27.1337L42.5001 26.7675L42.8663 27.1337C43.1104 27.3778 43.4303 27.4999 43.7502 27.4999C44.07 27.4999 44.3898 27.3778 44.634 27.1337C45.1223 26.6454 45.1223 25.8544 44.634 25.3662L44.2678 25L44.634 24.6338C45.1221 24.1456 45.1221 23.3546 44.6337 22.8662Z" fill="white"/>
</svg>
