<svg width="60" height="60" viewBox="0 0 60 60" fill="none" xmlns="http://www.w3.org/2000/svg">
<path d="M29.9815 4.78322C29.9234 4.78448 29.8654 4.78996 29.8081 4.79962H6.00024C5.68199 4.79966 5.37679 4.92609 5.15175 5.15113C4.92671 5.37617 4.80028 5.68137 4.80024 5.99962V21.3981C4.77882 21.5277 4.77882 21.6599 4.80024 21.7895V38.1981C4.77882 38.3277 4.77882 38.4599 4.80024 38.5895V53.9996C4.80028 54.3179 4.92671 54.6231 5.15175 54.8481C5.37679 55.0732 5.68199 55.1996 6.00024 55.1996H29.7987C29.9283 55.221 30.0605 55.221 30.1901 55.1996H54.0002C54.3185 55.1996 54.6237 55.0732 54.8487 54.8481C55.0738 54.6231 55.2002 54.3179 55.2002 53.9996V38.6012C55.2217 38.4716 55.2217 38.3394 55.2002 38.2098V21.8012C55.2217 21.6716 55.2217 21.5394 55.2002 21.4098V5.99962C55.2002 5.68137 55.0738 5.37617 54.8487 5.15113C54.6237 4.92609 54.3185 4.79966 54.0002 4.79962H30.1854C30.118 4.78836 30.0498 4.78287 29.9815 4.78322ZM7.20024 7.19962H28.8002V20.3996H7.20024V7.19962ZM31.2002 7.19962H52.8002V20.3996H31.2002V7.19962ZM7.20024 22.7996H28.8002V37.1996H7.20024V22.7996ZM31.2002 22.7996H52.8002V37.1996H31.2002V22.7996ZM7.20024 39.5996H28.8002V52.7996H7.20024V39.5996ZM31.2002 39.5996H52.8002V52.7996H31.2002V39.5996Z" fill="white"/>
</svg>
