<svg width="18" height="18" viewBox="0 0 18 18" fill="none" xmlns="http://www.w3.org/2000/svg">
<path fill-rule="evenodd" clip-rule="evenodd" d="M16.4994 6.75C16.4994 5.0175 16.5001 3.75336 16.5001 3.75336C16.5001 3.75266 15.6036 3.75195 14.2501 3.75195V4.49796C14.2501 4.91351 13.9168 5.25031 13.4999 5.25031C13.0857 5.25031 12.7497 4.91351 12.7497 4.49796V3.75125C10.4588 3.75125 7.54027 3.75055 5.25013 3.75055V4.49796C5.25013 4.91351 4.91685 5.25031 4.49989 5.25031C4.08575 5.25031 3.74965 4.91351 3.74965 4.49796V3.75055C2.39825 3.74985 1.50379 3.74985 1.50379 3.74985C1.50309 3.74985 1.50239 5.01618 1.50168 6.75009L16.4994 6.75ZM16.4994 8.24976H1.50111C1.50041 11.9187 1.4997 16.4966 1.4997 16.4966C1.4997 16.4988 16.4959 16.5002 16.4959 16.5002C16.4973 16.5002 16.4987 11.9193 16.4994 8.24968L16.4994 8.24976ZM14.2501 2.25H16.496C17.3271 2.25 18 2.92149 18 3.75329V16.4967C18 17.3271 17.3271 18 16.496 18H1.50399C0.672894 18 0 17.3285 0 16.4967V3.75329C0 2.92289 0.672894 2.25 1.50399 2.25H3.74985V0.752346C3.74985 0.336798 4.08314 0 4.50009 0C4.91423 0 5.25033 0.336096 5.25033 0.752346V2.25H12.7499V0.752346C12.7499 0.336798 13.0831 0 13.5001 0C13.9142 0 14.2503 0.336096 14.2503 0.752346L14.2501 2.25Z" fill="#F2994A"/>
</svg>
