<svg width="18" height="20" viewBox="0 0 18 20" fill="none" xmlns="http://www.w3.org/2000/svg">
<path d="M8.99565 0C4.57637 0 0.978882 3.59748 0.978882 8.01677C0.978882 8.51992 1.025 9.02725 1.12144 9.52201C1.12563 9.55136 1.1424 9.63941 1.17595 9.79036C1.29754 10.3312 1.47783 10.8637 1.71263 11.3711C2.57637 13.4046 4.47574 16.5283 8.64345 19.8742C8.74827 19.9581 8.87406 20 8.99985 20C9.12563 20 9.25142 19.9581 9.35624 19.8742C13.5198 16.5283 15.4233 13.4046 16.2871 11.3711C16.5219 10.8637 16.7022 10.3354 16.8237 9.79036C16.8573 9.63941 16.8741 9.55136 16.8783 9.52201C16.9705 9.02725 17.0208 8.51992 17.0208 8.01677C17.0124 3.59748 13.4149 0 8.99565 0ZM15.7546 9.32495C15.7546 9.33333 15.7504 9.34172 15.7504 9.3501C15.7462 9.37107 15.7336 9.43396 15.7126 9.5304C15.7126 9.53459 15.7126 9.53459 15.7126 9.53878C15.6078 10.0084 15.4527 10.4654 15.2472 10.9057C15.243 10.9099 15.243 10.9182 15.2388 10.9224C14.4548 12.7799 12.7357 15.6143 8.99565 18.7044C5.25561 15.6143 3.53653 12.7799 2.75247 10.9224C2.74827 10.9182 2.74827 10.9099 2.74408 10.9057C2.54282 10.4696 2.38769 10.0084 2.27867 9.53878C2.27867 9.53459 2.27867 9.53459 2.27867 9.5304C2.25351 9.43396 2.24513 9.37107 2.24094 9.3501C2.24094 9.34172 2.23674 9.33333 2.23674 9.32075C2.15289 8.88889 2.11096 8.45283 2.11096 8.01258C2.11096 4.21803 5.2011 1.12788 8.99565 1.12788C12.7902 1.12788 15.8803 4.21803 15.8803 8.01258C15.8803 8.45702 15.8384 8.89727 15.7546 9.32495Z" fill="#F2994A"/>
<path d="M8.99579 3.01465C6.19075 3.01465 3.90564 5.29976 3.90564 8.1048C3.90564 10.9098 6.19075 13.1949 8.99579 13.1949C11.8008 13.1949 14.0859 10.9098 14.0859 8.1048C14.0859 5.29976 11.8008 3.01465 8.99579 3.01465ZM8.99579 12.0629C6.8113 12.0629 5.03772 10.2851 5.03772 8.1048C5.03772 5.9245 6.81549 4.14672 8.99579 4.14672C11.1761 4.14672 12.9539 5.9245 12.9539 8.1048C12.9539 10.2851 11.1803 12.0629 8.99579 12.0629Z" fill="#F2994A"/>
</svg>
