<svg width="24" height="24" viewBox="0 0 24 24" fill="none" xmlns="http://www.w3.org/2000/svg">
<g clip-path="url(#clip0)">
<path d="M18.3472 10.288C18.3467 10.2835 18.3463 10.279 18.3457 10.2746C18.3425 10.2527 18.3384 10.2308 18.3324 10.2092C18.3324 10.209 18.3323 10.2087 18.3322 10.2085C18.3267 10.1883 18.3196 10.1683 18.3117 10.1486C18.3094 10.143 18.3069 10.1376 18.3044 10.132C18.2981 10.1178 18.2911 10.1038 18.2835 10.09C18.2802 10.084 18.277 10.0779 18.2734 10.072C18.2715 10.0688 18.27 10.0655 18.268 10.0623C18.26 10.0495 18.2512 10.0375 18.2423 10.0257C18.2406 10.0234 18.2392 10.0211 18.2375 10.0189C18.224 10.0013 18.2093 9.98498 18.1939 9.96951C18.1911 9.96657 18.1879 9.96386 18.1849 9.96104C18.1716 9.94817 18.1577 9.93611 18.1433 9.92477C18.1396 9.92189 18.136 9.91901 18.1322 9.91624C18.1129 9.90191 18.0929 9.88855 18.0721 9.87698L10.0726 5.32988L14.6785 2.4296L22.4001 6.81863L19.1481 8.86638C18.8943 9.02613 18.8181 9.36142 18.9779 9.61516C19.1377 9.86895 19.4729 9.94513 19.7267 9.78533L23.7462 7.25432C23.9078 7.15262 24.0041 6.97349 23.9997 6.78258C23.9954 6.59167 23.8912 6.41715 23.7252 6.32278L14.9325 1.32484C14.7586 1.22591 14.5443 1.2308 14.3749 1.33739L8.73023 4.8918C8.72909 4.89251 8.7279 4.89327 8.72676 4.89398L5.90612 6.67013C5.90482 6.67094 5.90352 6.67176 5.90227 6.67257L0.253782 10.2294C0.09219 10.3311 -0.00408078 10.5103 0.000263081 10.7012C0.00455265 10.8921 0.108751 11.0666 0.274795 11.161L9.06753 16.1589C9.15083 16.2063 9.24335 16.2299 9.33582 16.2299C9.43644 16.2299 9.53689 16.2019 9.62512 16.1464L13.6446 13.6153C13.8984 13.4556 13.9746 13.1203 13.8148 12.8665C13.6551 12.6127 13.3197 12.5365 13.066 12.6964L9.32154 15.0542L1.59994 10.6651L6.20585 7.76473L14.4413 12.4459V18.6458C14.4413 18.8435 14.5487 19.0256 14.7218 19.1212C14.8037 19.1663 14.894 19.1888 14.9843 19.1888C15.0849 19.1888 15.1854 19.1608 15.2736 19.1052L18.0978 17.3268C18.2557 17.2274 18.3515 17.0539 18.3515 16.8673V10.3516C18.3515 10.3483 18.351 10.3453 18.3509 10.3421C18.3505 10.3241 18.3493 10.306 18.3472 10.288ZM15.5272 17.6623V12.13C15.5272 11.9347 15.4223 11.7545 15.2525 11.658L7.24838 7.10831L9.03007 5.98635L16.7516 10.3754L16.0755 10.8011C15.8217 10.9609 15.7456 11.2962 15.9054 11.5499C16.0085 11.7139 16.185 11.8036 16.3654 11.8036C16.4642 11.8036 16.5643 11.7767 16.6541 11.7201L17.2655 11.3352V16.5677L15.5272 17.6623Z" fill="#F2994A"/>
<path d="M23.1678 8.50743L19.1483 11.0384C18.8945 11.1982 18.8183 11.5335 18.9781 11.7872C19.0813 11.9512 19.2577 12.041 19.4381 12.041C19.537 12.041 19.6371 12.014 19.7269 11.9574L23.7464 9.42638C24.0002 9.26663 24.0764 8.93134 23.9166 8.6776C23.7568 8.42381 23.4215 8.34758 23.1678 8.50743Z" fill="#F2994A"/>
<path d="M13.0658 14.8678L9.32138 17.2257L0.811263 12.3884C0.550739 12.2403 0.219086 12.3313 0.0709056 12.5921C-0.0772744 12.8528 0.0138924 13.1843 0.274633 13.3325L9.06737 18.3304C9.15066 18.3778 9.24319 18.4014 9.33566 18.4014C9.43627 18.4014 9.53672 18.3734 9.62496 18.3179L13.6444 15.7868C13.8982 15.6271 13.9744 15.2918 13.8146 15.0381C13.6549 14.7842 13.3196 14.708 13.0658 14.8678Z" fill="#F2994A"/>
<path d="M23.1678 10.6793L19.1483 13.2103C18.8945 13.3701 18.8183 13.7054 18.9781 13.9591C19.0813 14.1231 19.2577 14.2128 19.4381 14.2128C19.537 14.2128 19.6371 14.1858 19.7269 14.1293L23.7464 11.5983C24.0002 11.4385 24.0764 11.1032 23.9166 10.8495C23.7568 10.5956 23.4215 10.5195 23.1678 10.6793Z" fill="#F2994A"/>
<path d="M13.0658 17.0397L9.32138 19.3976L0.811263 14.5603C0.550739 14.4122 0.219086 14.5032 0.0709056 14.764C-0.0772744 15.0247 0.0138924 15.3562 0.274633 15.5044L9.06737 20.5023C9.15066 20.5497 9.24319 20.5733 9.33566 20.5733C9.43627 20.5733 9.53672 20.5453 9.62496 20.4898L13.6444 17.9587C13.8982 17.799 13.9744 17.4637 13.8146 17.2099C13.6549 16.956 13.3196 16.8799 13.0658 17.0397Z" fill="#F2994A"/>
<path d="M23.1678 12.8512L19.1483 15.3822C18.8945 15.5419 18.8183 15.8772 18.9781 16.1309C19.0813 16.2949 19.2577 16.3847 19.4381 16.3847C19.537 16.3847 19.6371 16.3577 19.7269 16.3011L23.7464 13.7701C24.0002 13.6104 24.0764 13.2751 23.9166 13.0213C23.7568 12.7675 23.4215 12.6914 23.1678 12.8512Z" fill="#F2994A"/>
<path d="M13.0658 19.2116L9.32138 21.5694L0.811263 16.7322C0.550739 16.584 0.219086 16.675 0.0709056 16.9359C-0.0772744 17.1966 0.0138924 17.5281 0.274633 17.6762L9.06737 22.6742C9.15066 22.7216 9.24319 22.7452 9.33566 22.7452C9.43627 22.7452 9.53672 22.7172 9.62496 22.6616L13.6444 20.1306C13.8982 19.9708 13.9744 19.6355 13.8146 19.3818C13.6549 19.128 13.3196 19.0517 13.0658 19.2116Z" fill="#F2994A"/>
</g>
<defs>
<clipPath id="clip0">
<rect width="24" height="24" fill="white"/>
</clipPath>
</defs>
</svg>
