<svg width="20" height="20" viewBox="0 0 20 20" fill="none" xmlns="http://www.w3.org/2000/svg">
<path fill-rule="evenodd" clip-rule="evenodd" d="M13.9951 15.4688C13.9951 15.0765 12.9725 15.0805 12.583 15.4718L11.852 16.2084C11.5374 16.5245 10.9991 16.3027 10.9991 15.8552V7.03151C10.9991 6.4816 10.6006 6.03705 10.0554 6.03003C9.5081 6.03705 9.00177 6.4816 9.00177 7.03151V15.8552C9.00177 16.3027 8.46349 16.5265 8.14891 16.2104L7.41789 15.2671C7.02841 14.8758 6.40624 15.0594 6.01676 15.0594H6.01077C5.62129 16.0629 5.6183 16.2947 6.00877 16.6861L8.58932 19.3854C9.36928 20.1692 10.6336 20.2213 11.4136 19.4376L13.9951 16.8687C14.3856 16.4763 13.9951 15.8542 13.9951 15.4628V15.4688ZM10.0444 6.02808C10.0484 6.02808 10.0514 6.03008 10.0554 6.03008C10.0594 6.03008 10.0624 6.02808 10.0664 6.02808H10.0444ZM13.9952 14.0559C13.4439 14.0559 12.9965 13.6064 12.9965 13.0525C12.9965 12.4985 13.4439 12.049 13.9952 12.049H14.888C19.1423 12.049 18.8337 5.89559 14.894 6.03808C13.5478 -0.665213 3.21261 1.75419 5.24389 8.47756C3.16867 6.8198 0.677995 10.0279 2.79916 11.6115C4.29816 12.7313 7.00454 11.199 7.00454 13.0525C7.00454 14.3148 5.57845 14.0559 4.20928 14.0559C0.877728 14.0559 -1.17553 10.4835 0.731923 7.75204C1.6437 6.4475 3.07379 6.12539 3.07379 6.12539C3.73291 0.994555 9.56312 -1.71486 13.8814 1.18923C15.7349 2.43657 16.4379 4.2589 16.4379 4.2589C17.5275 4.59206 18.4622 5.28246 19.0984 6.19663C21.2405 9.27332 19.5757 14.0559 13.9952 14.0559Z" fill="white" fill-opacity="0.01"/>
<mask id="mask0" mask-type="alpha" maskUnits="userSpaceOnUse" x="0" y="0" width="20" height="20">
<path fill-rule="evenodd" clip-rule="evenodd" d="M13.9951 15.4688C13.9951 15.0765 12.9725 15.0805 12.583 15.4718L11.852 16.2084C11.5374 16.5245 10.9991 16.3027 10.9991 15.8552V7.03151C10.9991 6.4816 10.6006 6.03705 10.0554 6.03003C9.5081 6.03705 9.00177 6.4816 9.00177 7.03151V15.8552C9.00177 16.3027 8.46349 16.5265 8.14891 16.2104L7.41789 15.2671C7.02841 14.8758 6.40624 15.0594 6.01676 15.0594H6.01077C5.62129 16.0629 5.6183 16.2947 6.00877 16.6861L8.58932 19.3854C9.36928 20.1692 10.6336 20.2213 11.4136 19.4376L13.9951 16.8687C14.3856 16.4763 13.9951 15.8542 13.9951 15.4628V15.4688ZM10.0444 6.02808C10.0484 6.02808 10.0514 6.03008 10.0554 6.03008C10.0594 6.03008 10.0624 6.02808 10.0664 6.02808H10.0444ZM13.9952 14.0559C13.4439 14.0559 12.9965 13.6064 12.9965 13.0525C12.9965 12.4985 13.4439 12.049 13.9952 12.049H14.888C19.1423 12.049 18.8337 5.89559 14.894 6.03808C13.5478 -0.665213 3.21261 1.75419 5.24389 8.47756C3.16867 6.8198 0.677995 10.0279 2.79916 11.6115C4.29816 12.7313 7.00454 11.199 7.00454 13.0525C7.00454 14.3148 5.57845 14.0559 4.20928 14.0559C0.877728 14.0559 -1.17553 10.4835 0.731923 7.75204C1.6437 6.4475 3.07379 6.12539 3.07379 6.12539C3.73291 0.994555 9.56312 -1.71486 13.8814 1.18923C15.7349 2.43657 16.4379 4.2589 16.4379 4.2589C17.5275 4.59206 18.4622 5.28246 19.0984 6.19663C21.2405 9.27332 19.5757 14.0559 13.9952 14.0559Z" fill="white"/>
</mask>
<g mask="url(#mask0)">
<rect width="20" height="20" fill="#9EA0A5"/>
</g>
</svg>
