<svg width="20" height="6" viewBox="0 0 20 6" fill="none" xmlns="http://www.w3.org/2000/svg">
<path d="M2.27271 5.27199C3.5279 5.27199 4.54542 4.25446 4.54542 2.99927C4.54542 1.74409 3.5279 0.726562 2.27271 0.726562C1.01753 0.726562 0 1.74409 0 2.99927C0 4.25446 1.01753 5.27199 2.27271 5.27199Z" fill="#B1BAD2"/>
<path d="M10.0003 5.27199C11.2554 5.27199 12.273 4.25446 12.273 2.99927C12.273 1.74409 11.2554 0.726562 10.0003 0.726562C8.74507 0.726562 7.72754 1.74409 7.72754 2.99927C7.72754 4.25446 8.74507 5.27199 10.0003 5.27199Z" fill="#B1BAD2"/>
<path d="M17.7268 5.27199C18.982 5.27199 19.9995 4.25446 19.9995 2.99927C19.9995 1.74409 18.982 0.726562 17.7268 0.726562C16.4716 0.726562 15.4541 1.74409 15.4541 2.99927C15.4541 4.25446 16.4716 5.27199 17.7268 5.27199Z" fill="#B1BAD2"/>
</svg>
