<svg width="20" height="20" viewBox="0 0 20 20" fill="none" xmlns="http://www.w3.org/2000/svg">
<path fill-rule="evenodd" clip-rule="evenodd" d="M18.3327 7.5C18.3327 5.575 18.3335 4.1704 18.3335 4.1704C18.3335 4.16962 17.3374 4.16884 15.8335 4.16884V4.99774C15.8335 5.45946 15.4632 5.83368 14.9999 5.83368C14.5397 5.83368 14.1663 5.45946 14.1663 4.99774V4.16806C11.6209 4.16806 8.37808 4.16728 5.83348 4.16728V4.99774C5.83348 5.45946 5.46316 5.83368 4.99988 5.83368C4.53972 5.83368 4.16628 5.45946 4.16628 4.99774V4.16728C2.66472 4.16649 1.67088 4.1665 1.67088 4.1665C1.6701 4.1665 1.66932 5.57354 1.66854 7.5001L18.3327 7.5ZM18.3327 9.1664H1.6679C1.66712 13.243 1.66634 18.3296 1.66634 18.3296C1.66634 18.3319 18.3287 18.3335 18.3287 18.3335C18.3303 18.3335 18.3319 13.2437 18.3326 9.16631L18.3327 9.1664ZM15.8335 2.5H18.3289C19.2523 2.5 20 3.2461 20 4.17032V18.3297C20 19.2524 19.2523 20 18.3289 20H1.6711C0.74766 20 0 19.2539 0 18.3297V4.17032C0 3.24766 0.74766 2.5 1.6711 2.5H4.1665V0.83594C4.1665 0.37422 4.53682 0 5.0001 0C5.46026 0 5.8337 0.37344 5.8337 0.83594V2.5H14.1665V0.83594C14.1665 0.37422 14.5368 0 15.0001 0C15.4603 0 15.8337 0.37344 15.8337 0.83594L15.8335 2.5Z" fill="#E0E0E0"/>
</svg>
