<svg width="14" height="14" viewBox="0 0 14 14" fill="none" xmlns="http://www.w3.org/2000/svg">
<path fill-rule="evenodd" clip-rule="evenodd" d="M12.8329 5.25C12.8329 3.9025 12.8334 2.91928 12.8334 2.91928C12.8334 2.91873 12.1362 2.91819 11.0834 2.91819V3.49842C11.0834 3.82162 10.8242 4.08357 10.4999 4.08357C10.1778 4.08357 9.9164 3.82162 9.9164 3.49842V2.91764C8.13462 2.91764 5.86466 2.91709 4.08344 2.91709V3.49842C4.08344 3.82162 3.82421 4.08357 3.49992 4.08357C3.1778 4.08357 2.9164 3.82162 2.9164 3.49842V2.91709C1.86531 2.91655 1.16962 2.91655 1.16962 2.91655C1.16907 2.91655 1.16852 3.90148 1.16798 5.25007L12.8329 5.25ZM12.8329 6.41648H1.16753C1.16698 9.2701 1.16644 12.8307 1.16644 12.8307C1.16644 12.8324 12.8301 12.8335 12.8301 12.8335C12.8312 12.8335 12.8323 9.2706 12.8329 6.41642L12.8329 6.41648ZM11.0834 1.75H12.8302C13.4766 1.75 14 2.27227 14 2.91922V12.8308C14 13.4767 13.4766 14 12.8302 14H1.16977C0.523362 14 0 13.4778 0 12.8308V2.91922C0 2.27336 0.523362 1.75 1.16977 1.75H2.91655V0.585158C2.91655 0.261954 3.17577 0 3.50007 0C3.82218 0 4.08359 0.261408 4.08359 0.585158V1.75H9.91655V0.585158C9.91655 0.261954 10.1758 0 10.5001 0C10.8222 0 11.0836 0.261408 11.0836 0.585158L11.0834 1.75Z" fill="#B1BAD2"/>
</svg>
