<svg width="476" height="316" viewBox="0 0 476 316" fill="none" xmlns="http://www.w3.org/2000/svg">
<rect width="238" height="158" fill="black" fill-opacity="0" transform="scale(2)"/>
<path d="M233.865 218.255C230.169 204.872 209.653 195.006 193.644 192.457V186.027L194.527 185.686C194.443 184.402 194.185 183.135 193.76 181.92C200.601 179.14 206.507 174.471 210.784 168.46C215.285 163.755 218.676 158.106 220.71 151.927C222.745 145.747 223.37 139.192 222.542 132.74C221.714 126.288 219.452 120.102 215.922 114.633C212.392 109.165 207.684 104.552 202.139 101.131C203.666 100.174 204.852 98.7619 205.529 97.0948C206.207 95.4277 206.341 93.5902 205.914 91.8425C205.487 90.0948 204.52 88.5255 203.149 87.3569C201.779 86.1883 200.074 85.4796 198.278 85.3312C199.742 81.8835 200.005 78.0451 199.025 74.4306C198.044 70.816 195.877 67.6342 192.87 65.3944C189.863 63.1546 186.189 61.9864 182.438 62.0766C178.687 62.1669 175.074 63.5104 172.179 65.8922C174.733 64.5361 177.595 63.8628 180.488 63.938C183.38 64.0133 186.203 64.8344 188.683 66.3215C191.163 67.8085 193.215 69.911 194.639 72.4241C196.063 74.9373 196.811 77.7756 196.81 80.6628C196.81 80.8114 196.81 80.9545 196.81 81.0977C196.74 78.6738 196.142 76.2942 195.059 74.1237C193.975 71.9532 192.432 70.0436 190.536 68.5273C188.64 67.0109 186.436 65.9241 184.077 65.342C181.718 64.7598 179.261 64.6964 176.875 65.156C174.489 65.6156 172.232 66.5873 170.26 68.0038C168.287 69.4202 166.647 71.2476 165.453 73.3593C164.258 75.471 163.538 77.8166 163.342 80.2336C163.146 82.6506 163.479 85.0812 164.318 87.3571C163.033 87.6323 161.831 88.2052 160.809 89.0297C159.786 89.8541 158.973 90.9068 158.434 92.1029C157.895 93.2989 157.645 94.6048 157.705 95.9149C157.765 97.225 158.133 98.5027 158.779 99.6448C152.715 102.824 147.483 107.379 143.503 112.943C139.524 118.508 136.909 124.926 135.868 131.683C134.827 138.44 135.389 145.346 137.51 151.846C139.63 158.346 143.25 164.259 148.077 169.11C152.148 174.584 157.594 178.891 163.865 181.596V192.314C147.685 194.621 126.38 204.668 122.662 218.382C119.418 230.333 115.954 243.458 114.232 251.165C129 261.52 159.987 267.604 179.411 267.604C197.864 267.604 228.023 262.098 242.356 252.685C240.822 244.218 237.253 230.515 233.865 218.255ZM204.285 94.6185C204.285 94.7727 204.285 94.9213 204.285 95.0699C204.176 93.1803 203.429 91.3833 202.164 89.9724C200.9 88.5616 199.193 87.6202 197.324 87.3021C197.485 87.0268 197.64 86.7479 197.787 86.4653C199.634 86.891 201.282 87.9289 202.463 89.4096C203.643 90.8903 204.285 92.7265 204.285 94.6185Z" fill="url(#paint0_linear)"/>
<path d="M179.4 264.674C197.329 264.674 226.628 259.34 240.552 250.179C239.046 241.954 235.587 228.643 232.277 216.729C228.09 201.557 201.654 191.042 185.882 191.042H170.695C154.879 191.042 128.405 201.623 124.267 216.856C121.117 228.467 117.736 241.222 116.081 248.709C130.424 258.745 160.533 264.674 179.4 264.674Z" fill="#156EDC"/>
<path d="M179.113 181.496C202.6 181.496 221.64 162.495 221.64 139.056C221.64 115.618 202.6 96.6167 179.113 96.6167C155.626 96.6167 136.585 115.618 136.585 139.056C136.585 162.495 155.626 181.496 179.113 181.496Z" fill="#333333"/>
<path d="M167.633 168.559H189.882C190.76 168.559 191.602 168.907 192.222 169.527C192.843 170.146 193.192 170.986 193.192 171.862V194.566C193.192 198.184 191.752 201.654 189.188 204.212C186.624 206.77 183.147 208.208 179.522 208.208H177.949C174.324 208.208 170.847 206.77 168.283 204.212C165.72 201.654 164.279 198.184 164.279 194.566V171.884C164.279 171.008 164.628 170.168 165.249 169.549C165.869 168.929 166.711 168.581 167.589 168.581L167.633 168.559Z" fill="#C8AFAD"/>
<path opacity="0.05" d="M180.073 187.783C184.862 187.786 189.607 186.874 194.052 185.097C193.824 181.599 192.273 178.318 189.713 175.918C187.152 173.518 183.774 172.178 180.261 172.17H179.075C175.617 172.173 172.285 173.465 169.733 175.794C167.182 178.122 165.594 181.319 165.283 184.755C169.957 186.755 174.989 187.785 180.073 187.783Z" fill="black"/>
<path d="M179.191 184.172C199.969 184.172 216.814 167.362 216.814 146.626C216.814 125.89 199.969 109.081 179.191 109.081C158.412 109.081 141.567 125.89 141.567 146.626C141.567 167.362 158.412 184.172 179.191 184.172Z" fill="#C8AFAD"/>
<path d="M166.447 105.645C170.944 105.645 174.589 102.007 174.589 97.5198C174.589 93.032 170.944 89.394 166.447 89.394C161.95 89.394 158.304 93.032 158.304 97.5198C158.304 102.007 161.95 105.645 166.447 105.645Z" fill="#333333"/>
<path d="M195.398 105.645C199.895 105.645 203.54 102.007 203.54 97.5198C203.54 93.032 199.895 89.394 195.398 89.394C190.901 89.394 187.255 93.032 187.255 97.5198C187.255 102.007 190.901 105.645 195.398 105.645Z" fill="#333333"/>
<path d="M180.017 100.228C189.011 100.228 196.302 92.9524 196.302 83.977C196.302 75.0016 189.011 67.7256 180.017 67.7256C171.023 67.7256 163.732 75.0016 163.732 83.977C163.732 92.9524 171.023 100.228 180.017 100.228Z" fill="#333333"/>
<path d="M197.207 87.588C195.588 87.5849 194.004 88.0662 192.662 88.9698C194.528 88.3151 196.569 88.3609 198.404 89.0983C200.239 89.8358 201.742 91.2147 202.632 92.9773C203.523 94.74 203.74 96.7659 203.243 98.6767C202.746 100.587 201.57 102.252 199.932 103.36C201.743 102.719 203.268 101.458 204.237 99.8023C205.206 98.1461 205.557 96.2012 205.226 94.3121C204.896 92.4229 203.906 90.7113 202.432 89.4806C200.959 88.2499 199.096 87.5794 197.174 87.588H197.207Z" fill="#333333"/>
<path d="M182.732 65.0113C178.943 65 175.27 66.3128 172.35 68.7218C175.914 66.829 180.056 66.3253 183.972 67.3084C187.888 68.2915 191.298 70.6912 193.541 74.042C195.784 77.3927 196.699 81.4554 196.11 85.4417C195.52 89.4281 193.467 93.0536 190.35 95.6149C193.56 93.9133 196.107 91.189 197.586 87.8757C199.065 84.5624 199.391 80.8506 198.512 77.3312C197.633 73.8118 195.599 70.6871 192.734 68.4545C189.87 66.222 186.339 65.0099 182.704 65.0113H182.732Z" fill="#333333"/>
<path d="M151.966 112.857C151.966 112.857 156.489 142.657 213.498 126.4L185.446 102.018L151.966 112.857Z" fill="#333333"/>
<g opacity="0.7">
<rect width="22.2596" height="39.8639" fill="black" fill-opacity="0" transform="translate(23.4644 222.328) scale(2)"/>
<path opacity="0.7" d="M67.7271 251.281C68.1496 249.589 68.0484 247.809 67.4368 246.175C66.8253 244.542 65.7321 243.132 64.3013 242.131C63.5104 241.679 62.7444 241.184 62.0064 240.65C60.9009 239.6 60.1053 238.267 59.706 236.796C58.553 233.35 58.1945 229.48 56.1754 226.364C54.3384 223.529 50.7636 222.698 47.5916 222.417C46.4411 222.229 45.2615 222.339 44.1657 222.736C42.4004 223.534 41.5564 225.615 41.4736 227.553C41.3909 229.491 41.8984 231.407 42.0253 233.328C42.1522 235.25 41.8046 237.386 40.3703 238.696C38.936 240.006 36.8949 240.16 35.0027 240.424C32.5239 240.769 30.0886 241.375 27.7373 242.23C25.7624 242.946 23.5612 244.245 23.4674 246.343C23.3902 248.055 24.7749 249.425 25.8175 250.785C26.815 252.05 27.532 253.512 27.9209 255.074C28.3099 256.636 28.362 258.263 28.0738 259.847C27.4008 263.04 25.1555 265.776 24.7639 269.013C24.6107 269.822 24.7129 270.659 25.0562 271.408C25.373 271.92 25.7917 272.362 26.2864 272.707C27.5056 273.648 28.8682 274.403 30.0267 275.427C32.4374 277.557 33.7394 280.646 34.7434 283.684C34.8427 283.976 34.9254 284.274 35.0192 284.571H32.6526C30.331 284.577 28.1061 285.5 26.4645 287.138C24.8229 288.776 23.8981 290.996 23.8922 293.313C23.8981 295.63 24.8229 297.85 26.4645 299.488C28.1061 301.127 30.331 302.05 32.6526 302.055H56.2968C58.6184 302.05 60.8432 301.127 62.4848 299.488C64.1265 297.85 65.0513 295.63 65.0571 293.313C65.0383 291.008 64.11 288.803 62.4733 287.176C60.8366 285.548 58.6235 284.63 56.3133 284.62H49.8313C51.3649 282.572 52.9647 280.646 55.3479 279.858C57.7311 279.071 60.5776 279.534 62.4312 277.887C63.3015 277.033 63.8657 275.917 64.0365 274.711C64.429 272.559 64.0625 270.337 62.9994 268.424C62.2547 267.097 61.1624 265.892 60.9252 264.389C60.8056 263.082 61.1196 261.773 61.8189 260.662C63.5952 257.38 66.7617 254.865 67.7271 251.281Z" fill="url(#paint1_linear)"/>
</g>
<path d="M47.4981 224.321C46.4033 224.143 45.2808 224.247 44.2378 224.624C42.5552 225.384 41.7553 227.377 41.6781 229.21C41.6009 231.043 42.0808 232.871 42.2298 234.715C42.3787 236.56 42.0201 238.569 40.663 239.824C39.306 241.079 37.3531 241.217 35.5492 241.476C33.1853 241.803 30.8628 242.379 28.6203 243.193C26.7391 243.876 24.6428 245.109 24.5546 247.108C24.4828 248.759 25.8013 250.042 26.7943 251.341C27.7427 252.544 28.4248 253.934 28.7956 255.419C29.1665 256.904 29.2176 258.451 28.9458 259.957C28.3059 262.996 26.1875 265.605 25.7792 268.688C25.6371 269.47 25.7452 270.277 26.0882 270.995C26.3896 271.483 26.7876 271.904 27.2577 272.233C28.4217 273.131 29.7181 273.852 30.8159 274.821C33.1108 276.847 34.352 279.776 35.3119 282.699C36.2529 285.556 36.9903 288.475 37.5186 291.436C39.4935 290.169 42.0477 290.186 44.1385 289.151C48.629 286.949 50.1406 280.59 54.8793 279.005C57.1246 278.256 59.8443 278.697 61.6261 277.128C62.4572 276.314 62.9963 275.25 63.1597 274.1C63.5321 272.046 63.1792 269.927 62.1612 268.105C61.4496 266.838 60.4125 265.693 60.1863 264.251C60.0716 263.006 60.3701 261.759 61.0359 260.7C62.7405 257.606 65.7526 255.195 66.6738 251.798C67.0743 250.187 66.9767 248.493 66.3938 246.938C65.8108 245.384 64.7699 244.042 63.408 243.089C62.6476 242.659 61.911 242.188 61.2013 241.679C60.1433 240.682 59.38 239.414 58.9947 238.013C57.8914 234.71 57.5549 231.049 55.6296 228.104C53.925 225.378 50.5212 224.613 47.4981 224.321Z" fill="#4DB6AC"/>
<path opacity="0.6" d="M47.465 224.432C47.465 224.432 51.6355 280.216 40.7954 289.768" stroke="#535461" stroke-miterlimit="10"/>
<path d="M56.2584 283.524H32.8404C28.4836 283.524 24.9517 287.049 24.9517 291.397V292.3C24.9517 296.648 28.4836 300.172 32.8404 300.172H56.2584C60.6152 300.172 64.1471 296.648 64.1471 292.3V291.397C64.1471 287.049 60.6152 283.524 56.2584 283.524Z" fill="#EB5757"/>
<path opacity="0.6" d="M24.5044 246.084C24.5044 246.084 35.168 244.839 48.1817 252.745" stroke="#535461" stroke-miterlimit="10"/>
<path opacity="0.6" d="M48.0059 259.39C50.1439 256.274 52.9026 253.63 56.1097 251.625C59.3169 249.62 62.9037 248.296 66.6465 247.735" stroke="#535461" stroke-miterlimit="10"/>
<path opacity="0.6" d="M25.5752 268.754C25.5752 268.754 40.3542 266.254 47.1451 270.405" stroke="#535461" stroke-miterlimit="10"/>
<path opacity="0.6" d="M46.3008 276.137C46.3008 276.137 54.024 272.635 62.7403 275.482" stroke="#535461" stroke-miterlimit="10"/>
<g opacity="0.7">
<rect width="18.9316" height="16.7937" fill="black" fill-opacity="0" transform="translate(298.26 266.894) scale(2)"/>
<path opacity="0.7" d="M328.309 272.894V266.894H298.26V294.634C298.26 296.185 298.878 297.672 299.976 298.769C301.075 299.865 302.565 300.481 304.119 300.481H322.451C324.004 300.481 325.495 299.865 326.593 298.769C327.692 297.672 328.309 296.185 328.309 294.634V288.474C330.382 288.474 332.369 287.652 333.835 286.19C335.3 284.728 336.123 282.744 336.123 280.676C336.123 278.608 335.3 276.624 333.835 275.162C332.369 273.699 330.382 272.878 328.309 272.878V272.894ZM328.309 285.49V275.889C328.954 275.867 329.597 275.975 330.2 276.207C330.802 276.438 331.351 276.788 331.815 277.235C332.28 277.683 332.649 278.219 332.901 278.812C333.153 279.405 333.283 280.043 333.283 280.687C333.283 281.331 333.153 281.969 332.901 282.561C332.649 283.154 332.28 283.691 331.815 284.138C331.351 284.586 330.802 284.936 330.2 285.167C329.597 285.399 328.954 285.507 328.309 285.485V285.49Z" fill="url(#paint2_linear)"/>
</g>
<path d="M327.366 273.83C325.956 273.83 324.577 274.248 323.404 275.03C322.23 275.812 321.316 276.924 320.776 278.224C320.237 279.525 320.095 280.956 320.37 282.337C320.646 283.718 321.325 284.986 322.323 285.982C323.32 286.977 324.591 287.655 325.975 287.93C327.358 288.204 328.793 288.063 330.096 287.525C331.399 286.986 332.513 286.074 333.297 284.903C334.081 283.732 334.499 282.356 334.499 280.948C334.499 279.06 333.748 277.25 332.41 275.915C331.072 274.58 329.258 273.83 327.366 273.83ZM327.366 285.33C326.494 285.33 325.64 285.072 324.914 284.588C324.189 284.104 323.623 283.416 323.289 282.612C322.955 281.807 322.868 280.921 323.038 280.067C323.208 279.213 323.629 278.428 324.246 277.812C324.863 277.196 325.649 276.777 326.505 276.607C327.361 276.437 328.249 276.524 329.055 276.857C329.862 277.191 330.551 277.755 331.036 278.479C331.521 279.204 331.78 280.055 331.78 280.926C331.78 282.094 331.315 283.215 330.487 284.041C329.659 284.866 328.537 285.33 327.366 285.33Z" fill="#213ECF"/>
<path opacity="0.1" d="M327.366 273.83C325.956 273.83 324.577 274.248 323.404 275.03C322.23 275.812 321.316 276.924 320.776 278.224C320.237 279.525 320.095 280.956 320.37 282.337C320.646 283.718 321.325 284.986 322.323 285.982C323.32 286.977 324.591 287.655 325.975 287.93C327.358 288.204 328.793 288.063 330.096 287.525C331.399 286.986 332.513 286.074 333.297 284.903C334.081 283.732 334.499 282.356 334.499 280.948C334.499 279.06 333.748 277.25 332.41 275.915C331.072 274.58 329.258 273.83 327.366 273.83ZM327.366 285.33C326.494 285.33 325.64 285.072 324.914 284.588C324.189 284.104 323.623 283.416 323.289 282.612C322.955 281.807 322.868 280.921 323.038 280.067C323.208 279.213 323.629 278.428 324.246 277.812C324.863 277.196 325.649 276.777 326.505 276.607C327.361 276.437 328.249 276.524 329.055 276.857C329.862 277.191 330.551 277.755 331.036 278.479C331.521 279.204 331.78 280.055 331.78 280.926C331.78 282.094 331.315 283.215 330.487 284.041C329.659 284.866 328.537 285.33 327.366 285.33Z" fill="black"/>
<path d="M299.905 268.352H327.344V293.676C327.344 295.1 326.778 296.465 325.769 297.472C324.76 298.478 323.392 299.044 321.966 299.044H305.283C303.857 299.044 302.489 298.478 301.48 297.472C300.471 296.465 299.905 295.1 299.905 293.676V268.352Z" fill="#4F4F4F"/>
<path d="M356.157 299.021H0V311.067H356.157V299.021Z" fill="#E0E0E0"/>
<g opacity="0.7">
<rect width="75.7319" height="43.5188" fill="black" fill-opacity="0" transform="translate(102.344 211.984) scale(2)"/>
<path opacity="0.7" d="M245.809 211.984H110.343C105.925 211.984 102.344 215.558 102.344 219.967V291.039C102.344 295.448 105.925 299.022 110.343 299.022H245.809C250.226 299.022 253.808 295.448 253.808 291.039V219.967C253.808 215.558 250.226 211.984 245.809 211.984Z" fill="url(#paint3_linear)"/>
</g>
<path d="M236.26 213.592H119.898C111.72 213.592 105.091 220.207 105.091 228.368V284.246C105.091 292.406 111.72 299.022 119.898 299.022H236.26C244.437 299.022 251.066 292.406 251.066 284.246V228.368C251.066 220.207 244.437 213.592 236.26 213.592Z" fill="#07121F"/>
<path d="M178.076 261.234C180.803 261.234 183.013 259.028 183.013 256.307C183.013 253.586 180.803 251.38 178.076 251.38C175.349 251.38 173.139 253.586 173.139 256.307C173.139 259.028 175.349 261.234 178.076 261.234Z" fill="white"/>
<path d="M341.064 311.073H15.0933V316H341.064V311.073Z" fill="#E0E0E0"/>
<path opacity="0.1" d="M341.064 311.073H15.0933V312.713H341.064V311.073Z" fill="black"/>
<path opacity="0.1" d="M322.401 268.352V293.676C322.401 295.092 321.838 296.451 320.834 297.452C319.831 298.454 318.469 299.016 317.05 299.016H319.809C321.228 299.016 322.589 298.454 323.592 297.452C324.596 296.451 325.16 295.092 325.16 293.676V268.352H322.401Z" fill="black"/>
<path d="M305.3 247.939C305.064 247.947 304.834 248.006 304.624 248.112C304.414 248.219 304.23 248.37 304.086 248.556C303.727 249.205 304.378 249.943 304.974 250.389C306.077 251.215 307.23 252.041 307.981 253.18C308.731 254.32 308.963 255.933 308.146 257.034C307.081 258.476 304.533 258.79 304.285 260.563C304.125 261.702 305.112 262.677 306.116 263.249C308.587 264.664 311.776 265.038 313.563 267.252C314.303 265.732 315.963 264.851 317.613 264.499C319.262 264.147 320.978 264.152 322.655 263.899C322.931 263.894 323.202 263.823 323.446 263.693C323.69 263.563 323.899 263.377 324.056 263.15C324.525 262.203 323.19 261.064 323.653 260.117C324.006 259.39 325.032 259.451 325.783 259.159C327.007 258.685 327.509 257.116 327.162 255.856C326.814 254.595 325.832 253.604 324.801 252.795C322.042 250.593 318.677 249.332 315.296 248.391C313.723 247.961 311.875 247.29 310.242 247.224C308.61 247.157 306.877 247.675 305.3 247.939Z" fill="#EEEEEE"/>
<path opacity="0.1" d="M476 0H236.315V163.874H476V0Z" fill="#535461"/>
<g opacity="0.5">
<rect width="28.2119" height="25.9737" fill="black" fill-opacity="0" transform="translate(258.166 16.1416) scale(2)"/>
<path opacity="0.5" d="M312.107 16.1416H260.648C259.277 16.1416 258.166 17.2507 258.166 18.619V65.6116C258.166 66.9798 259.277 68.0889 260.648 68.0889H312.107C313.478 68.0889 314.59 66.9798 314.59 65.6116V18.619C314.59 17.2507 313.478 16.1416 312.107 16.1416Z" fill="url(#paint4_linear)"/>
</g>
<path d="M311.495 16.5435H261.338C259.967 16.5435 258.855 17.6526 258.855 19.0208V64.7527C258.855 66.1209 259.967 67.2301 261.338 67.2301H311.495C312.866 67.2301 313.977 66.1209 313.977 64.7527V19.0208C313.977 17.6526 312.866 16.5435 311.495 16.5435Z" fill="#F5F5F5"/>
<path d="M269.916 24.8892H265.585C264.214 24.8892 263.103 25.9983 263.103 27.3665V30.7632C263.103 32.1314 264.214 33.2406 265.585 33.2406H269.916C271.287 33.2406 272.399 32.1314 272.399 30.7632V27.3665C272.399 25.9983 271.287 24.8892 269.916 24.8892Z" fill="#213ECF"/>
<path d="M311.705 24.8892H275.632C275.388 24.8892 275.19 25.0863 275.19 25.3296V25.3791C275.19 25.6224 275.388 25.8195 275.632 25.8195H311.705C311.949 25.8195 312.146 25.6224 312.146 25.3791V25.3296C312.146 25.0863 311.949 24.8892 311.705 24.8892Z" fill="#E0E0E0"/>
<path d="M311.705 27.6748H275.632C275.388 27.6748 275.19 27.872 275.19 28.1152V28.1648C275.19 28.408 275.388 28.6052 275.632 28.6052H311.705C311.949 28.6052 312.146 28.408 312.146 28.1648V28.1152C312.146 27.872 311.949 27.6748 311.705 27.6748Z" fill="#E0E0E0"/>
<path d="M311.704 37.7769H262.618C262.374 37.7769 262.176 37.974 262.176 38.2173V38.2668C262.176 38.5101 262.374 38.7072 262.618 38.7072H311.704C311.948 38.7072 312.146 38.5101 312.146 38.2668V38.2173C312.146 37.974 311.948 37.7769 311.704 37.7769Z" fill="#E0E0E0"/>
<path d="M311.704 40.5571H262.618C262.374 40.5571 262.176 40.7543 262.176 40.9975V41.0471C262.176 41.2903 262.374 41.4875 262.618 41.4875H311.704C311.948 41.4875 312.146 41.2903 312.146 41.0471V40.9975C312.146 40.7543 311.948 40.5571 311.704 40.5571Z" fill="#E0E0E0"/>
<path d="M311.704 44.2671H262.618C262.374 44.2671 262.176 44.4643 262.176 44.7075V44.7571C262.176 45.0003 262.374 45.1975 262.618 45.1975H311.704C311.948 45.1975 312.146 45.0003 312.146 44.7571V44.7075C312.146 44.4643 311.948 44.2671 311.704 44.2671Z" fill="#E0E0E0"/>
<path d="M290.554 47.0532H262.618C262.374 47.0532 262.176 47.2504 262.176 47.4936V47.5432C262.176 47.7864 262.374 47.9836 262.618 47.9836H290.554C290.797 47.9836 290.995 47.7864 290.995 47.5432V47.4936C290.995 47.2504 290.797 47.0532 290.554 47.0532Z" fill="#E0E0E0"/>
<path d="M311.704 50.7529H262.618C262.374 50.7529 262.176 50.9501 262.176 51.1933V51.2429C262.176 51.4861 262.374 51.6833 262.618 51.6833H311.704C311.948 51.6833 312.146 51.4861 312.146 51.2429V51.1933C312.146 50.9501 311.948 50.7529 311.704 50.7529Z" fill="#E0E0E0"/>
<path d="M311.704 53.5386H262.618C262.374 53.5386 262.176 53.7358 262.176 53.979V54.0285C262.176 54.2718 262.374 54.469 262.618 54.469H311.704C311.948 54.469 312.146 54.2718 312.146 54.0285V53.979C312.146 53.7358 311.948 53.5386 311.704 53.5386Z" fill="#E0E0E0"/>
<path d="M311.704 57.2485H262.618C262.374 57.2485 262.176 57.4457 262.176 57.689V57.7385C262.176 57.9817 262.374 58.1789 262.618 58.1789H311.704C311.948 58.1789 312.146 57.9817 312.146 57.7385V57.689C312.146 57.4457 311.948 57.2485 311.704 57.2485Z" fill="#E0E0E0"/>
<path d="M290.554 60.0288H262.618C262.374 60.0288 262.176 60.226 262.176 60.4692V60.5188C262.176 60.762 262.374 60.9592 262.618 60.9592H290.554C290.797 60.9592 290.995 60.762 290.995 60.5188V60.4692C290.995 60.226 290.797 60.0288 290.554 60.0288Z" fill="#E0E0E0"/>
<g opacity="0.5">
<rect width="28.2119" height="25.9737" fill="black" fill-opacity="0" transform="translate(266.684 28.1431) scale(2)"/>
<path opacity="0.5" d="M320.625 28.1431H269.166C267.795 28.1431 266.684 29.2522 266.684 30.6204V77.613C266.684 78.9812 267.795 80.0904 269.166 80.0904H320.625C321.996 80.0904 323.107 78.9812 323.107 77.613V30.6204C323.107 29.2522 321.996 28.1431 320.625 28.1431Z" fill="url(#paint5_linear)"/>
</g>
<path d="M320.013 28.5444H269.856C268.485 28.5444 267.374 29.6536 267.374 31.0218V76.7537C267.374 78.1219 268.485 79.2311 269.856 79.2311H320.013C321.384 79.2311 322.495 78.1219 322.495 76.7537V31.0218C322.495 29.6536 321.384 28.5444 320.013 28.5444Z" fill="white"/>
<path d="M278.434 36.8965H274.104C272.733 36.8965 271.621 38.0056 271.621 39.3738V42.7706C271.621 44.1388 272.733 45.2479 274.104 45.2479H278.434C279.805 45.2479 280.917 44.1388 280.917 42.7706V39.3738C280.917 38.0056 279.805 36.8965 278.434 36.8965Z" fill="#213ECF"/>
<path d="M320.217 36.8965H284.143C283.9 36.8965 283.702 37.0937 283.702 37.3369V37.3865C283.702 37.6297 283.9 37.8269 284.143 37.8269H320.217C320.46 37.8269 320.658 37.6297 320.658 37.3865V37.3369C320.658 37.0937 320.46 36.8965 320.217 36.8965Z" fill="#E0E0E0"/>
<path d="M320.217 39.6763H284.143C283.9 39.6763 283.702 39.8735 283.702 40.1167V40.1662C283.702 40.4095 283.9 40.6067 284.143 40.6067H320.217C320.46 40.6067 320.658 40.4095 320.658 40.1662V40.1167C320.658 39.8735 320.46 39.6763 320.217 39.6763Z" fill="#E0E0E0"/>
<path d="M320.217 49.7783H271.13C270.886 49.7783 270.688 49.9755 270.688 50.2187V50.2683C270.688 50.5115 270.886 50.7087 271.13 50.7087H320.217C320.46 50.7087 320.658 50.5115 320.658 50.2683V50.2187C320.658 49.9755 320.46 49.7783 320.217 49.7783Z" fill="#E0E0E0"/>
<path d="M320.217 52.564H271.13C270.886 52.564 270.688 52.7611 270.688 53.0044V53.0539C270.688 53.2972 270.886 53.4943 271.13 53.4943H320.217C320.46 53.4943 320.658 53.2972 320.658 53.0539V53.0044C320.658 52.7611 320.46 52.564 320.217 52.564Z" fill="#E0E0E0"/>
<path d="M320.217 56.2744H271.13C270.886 56.2744 270.688 56.4716 270.688 56.7148V56.7644C270.688 57.0076 270.886 57.2048 271.13 57.2048H320.217C320.46 57.2048 320.658 57.0076 320.658 56.7644V56.7148C320.658 56.4716 320.46 56.2744 320.217 56.2744Z" fill="#E0E0E0"/>
<path d="M299.066 59.0547H271.13C270.886 59.0547 270.688 59.2519 270.688 59.4951V59.5447C270.688 59.7879 270.886 59.9851 271.13 59.9851H299.066C299.31 59.9851 299.507 59.7879 299.507 59.5447V59.4951C299.507 59.2519 299.31 59.0547 299.066 59.0547Z" fill="#E0E0E0"/>
<path d="M320.217 62.7593H271.13C270.886 62.7593 270.688 62.9565 270.688 63.1997V63.2492C270.688 63.4925 270.886 63.6897 271.13 63.6897H320.217C320.46 63.6897 320.658 63.4925 320.658 63.2492V63.1997C320.658 62.9565 320.46 62.7593 320.217 62.7593Z" fill="#E0E0E0"/>
<path d="M320.217 65.54H271.13C270.886 65.54 270.688 65.7372 270.688 65.9805V66.03C270.688 66.2732 270.886 66.4704 271.13 66.4704H320.217C320.46 66.4704 320.658 66.2732 320.658 66.03V65.9805C320.658 65.7372 320.46 65.54 320.217 65.54Z" fill="#E0E0E0"/>
<path d="M320.217 69.25H271.13C270.886 69.25 270.688 69.4472 270.688 69.6904V69.74C270.688 69.9832 270.886 70.1804 271.13 70.1804H320.217C320.46 70.1804 320.658 69.9832 320.658 69.74V69.6904C320.658 69.4472 320.46 69.25 320.217 69.25Z" fill="#E0E0E0"/>
<path d="M299.066 72.0356H271.13C270.886 72.0356 270.688 72.2328 270.688 72.4761V72.5256C270.688 72.7688 270.886 72.966 271.13 72.966H299.066C299.31 72.966 299.507 72.7688 299.507 72.5256V72.4761C299.507 72.2328 299.31 72.0356 299.066 72.0356Z" fill="#E0E0E0"/>
<path d="M377.496 36.0039H346.421V65.7982H377.496V36.0039Z" fill="url(#paint6_linear)"/>
<path d="M377.01 36.731H346.912V65.1875H377.01V36.731Z" fill="#F5F5F5"/>
<g opacity="0.5">
<rect width="6.38823" height="4.30784" fill="black" fill-opacity="0" transform="translate(355.567 40.2598) scale(2)"/>
<path opacity="0.5" d="M364.62 41.7186V40.2598H359.297V41.7186H355.567V48.8754H368.344V41.7186H364.62ZM359.959 40.7883H363.953V41.7186H359.959V40.7883Z" fill="url(#paint7_linear)"/>
</g>
<path opacity="0.6" d="M367.814 41.9609H356.113V48.5287H367.814V41.9609Z" fill="#213ECF"/>
<path opacity="0.6" d="M359.522 40.623V42.3242H360.135V41.1075H363.787V42.3242H364.399V40.623H359.522Z" fill="#213ECF"/>
<g opacity="0.6">
<rect width="5.42283" height="0.729443" fill="black" fill-opacity="0" transform="translate(356.781 53.6377) scale(2)"/>
<path opacity="0.6" d="M367.626 53.6377H356.781V55.0966H367.626V53.6377Z" fill="#213ECF"/>
</g>
<path d="M371.223 56.313H352.699V57.7719H371.223V56.313Z" fill="#BDBDBD"/>
<g opacity="0.5">
<rect width="33.883" height="39.7257" fill="black" fill-opacity="0" transform="translate(391.734 9.93115) scale(2)"/>
<path opacity="0.5" d="M459.5 9.93115H391.734V89.3826H459.5V9.93115Z" fill="url(#paint8_linear)"/>
</g>
<path d="M458.055 11.209H393.814V87.627H458.055V11.209Z" fill="white"/>
<g opacity="0.5">
<rect width="8.39903" height="5.67589" fill="black" fill-opacity="0" transform="translate(417.535 21.4429) scale(2)"/>
<path opacity="0.5" d="M429.423 23.3642V21.4429H422.434V23.3642H417.535V32.7947H434.333V23.3642H429.423ZM423.3 22.142H428.552V23.3642H423.3V22.142Z" fill="url(#paint9_linear)"/>
</g>
<path d="M433.627 23.6782H418.247V32.3104H433.627V23.6782Z" fill="#213ECF"/>
<path d="M422.732 21.9219V24.157H423.532V22.5605H428.337V24.157H429.137V21.9219H422.732Z" fill="#213ECF"/>
<path d="M448.599 44.7354H403.423V46.6512H448.599V44.7354Z" fill="#E0E0E0"/>
<path d="M448.599 57.3643H403.423V59.2801H448.599V57.3643Z" fill="#E0E0E0"/>
<path d="M448.599 60.7227H403.423V62.6385H448.599V60.7227Z" fill="#E0E0E0"/>
<path d="M422.489 54.0117H403.423V55.9275H422.489V54.0117Z" fill="#E0E0E0"/>
<path opacity="0.6" d="M448.599 54.0117H434.344V55.9275H448.599V54.0117Z" fill="#3AD29F"/>
<path d="M433.539 68.5566H419.284V70.4725H433.539V68.5566Z" fill="#213ECF"/>
<g opacity="0.5">
<rect width="20.1328" height="16.5019" fill="black" fill-opacity="0" transform="translate(352.196 111.734) scale(2)"/>
<path opacity="0.5" d="M392.462 111.734H352.196V144.738H392.462V111.734Z" fill="url(#paint10_linear)"/>
</g>
<path d="M391.911 112.356H352.666V144.187H391.911V112.356Z" fill="#F2F2F2"/>
<path d="M391.911 112.356H352.666V119.458H391.911V112.356Z" fill="#213ECF"/>
<path opacity="0.1" d="M391.911 112.356H352.666V119.458H391.911V112.356Z" fill="black"/>
<path d="M388.788 122.029H355.793V126.163H388.788V122.029Z" fill="#E0E0E0"/>
<path d="M379.873 129.285H355.793V130.689H379.873V129.285Z" fill="#E0E0E0"/>
<path d="M371.427 131.707H355.793V133.111H371.427V131.707Z" fill="#E0E0E0"/>
<path d="M376.431 134.124H355.793V135.527H376.431V134.124Z" fill="#E0E0E0"/>
<path d="M379.873 136.541H355.793V137.944H379.873V136.541Z" fill="#E0E0E0"/>
<path d="M363.847 138.963H355.793V140.367H363.847V138.963Z" fill="#E0E0E0"/>
<g opacity="0.5">
<rect width="24.9516" height="20.4519" fill="black" fill-opacity="0" transform="translate(326.986 99.6279) scale(2)"/>
<path opacity="0.5" d="M376.889 99.6279H326.986V140.532H376.889V99.6279Z" fill="url(#paint11_linear)"/>
</g>
<path d="M376.21 100.399H327.565V139.855H376.21V100.399Z" fill="white"/>
<path d="M376.21 100.399H327.565V109.196H376.21V100.399Z" fill="#213ECF"/>
<path d="M372.337 112.395H331.443V117.52H372.337V112.395Z" fill="#F5F5F5"/>
<path d="M361.288 121.385H331.443V123.124H361.288V121.385Z" fill="#E0E0E0"/>
<path d="M350.823 124.385H331.443V126.124H350.823V124.385Z" fill="#E0E0E0"/>
<path d="M357.023 127.38H331.443V129.12H357.023V127.38Z" fill="#E0E0E0"/>
<path d="M361.288 130.38H331.443V132.12H361.288V130.38Z" fill="#E0E0E0"/>
<path d="M341.422 133.375H331.443V135.115H341.422V133.375Z" fill="#E0E0E0"/>
<path d="M345.201 114.134H333.572V115.681H345.201V114.134Z" fill="#69F0AE"/>
<path opacity="0.1" d="M258.933 208.251C262.653 208.251 265.669 205.242 265.669 201.53C265.669 197.817 262.653 194.808 258.933 194.808C255.213 194.808 252.197 197.817 252.197 201.53C252.197 205.242 255.213 208.251 258.933 208.251Z" fill="#535461"/>
<path opacity="0.1" d="M271.45 186.638C275.17 186.638 278.186 183.629 278.186 179.916C278.186 176.204 275.17 173.194 271.45 173.194C267.73 173.194 264.714 176.204 264.714 179.916C264.714 183.629 267.73 186.638 271.45 186.638Z" fill="#535461"/>
<defs>
<linearGradient id="paint0_linear" x1="178.313" y1="267.604" x2="178.313" y2="62.0881" gradientUnits="userSpaceOnUse">
<stop stop-color="#808080" stop-opacity="0.25"/>
<stop offset="0.54" stop-color="#808080" stop-opacity="0.12"/>
<stop offset="1" stop-color="#808080" stop-opacity="0.1"/>
</linearGradient>
<linearGradient id="paint1_linear" x1="9421.93" y1="51192.3" x2="13015.5" y2="51192.3" gradientUnits="userSpaceOnUse">
<stop stop-color="#808080" stop-opacity="0.25"/>
<stop offset="0.54" stop-color="#808080" stop-opacity="0.12"/>
<stop offset="1" stop-color="#808080" stop-opacity="0.1"/>
</linearGradient>
<linearGradient id="paint2_linear" x1="28451.8" y1="24074" x2="28451.8" y2="22024.8" gradientUnits="userSpaceOnUse">
<stop stop-color="#808080" stop-opacity="0.25"/>
<stop offset="0.54" stop-color="#808080" stop-opacity="0.12"/>
<stop offset="1" stop-color="#808080" stop-opacity="0.1"/>
</linearGradient>
<linearGradient id="paint3_linear" x1="48994.9" y1="47487.3" x2="48994.9" y2="33726.7" gradientUnits="userSpaceOnUse">
<stop stop-color="#808080" stop-opacity="0.25"/>
<stop offset="0.54" stop-color="#808080" stop-opacity="0.12"/>
<stop offset="1" stop-color="#808080" stop-opacity="0.1"/>
</linearGradient>
<linearGradient id="paint4_linear" x1="29548.9" y1="6440.99" x2="29548.9" y2="1539.24" gradientUnits="userSpaceOnUse">
<stop stop-color="#808080" stop-opacity="0.25"/>
<stop offset="0.54" stop-color="#808080" stop-opacity="0.12"/>
<stop offset="1" stop-color="#808080" stop-opacity="0.1"/>
</linearGradient>
<linearGradient id="paint5_linear" x1="30428.6" y1="7585.44" x2="30428.6" y2="2683.69" gradientUnits="userSpaceOnUse">
<stop stop-color="#808080" stop-opacity="0.25"/>
<stop offset="0.54" stop-color="#808080" stop-opacity="0.12"/>
<stop offset="1" stop-color="#808080" stop-opacity="0.1"/>
</linearGradient>
<linearGradient id="paint6_linear" x1="20735.7" y1="3597.02" x2="20735.7" y2="1984.55" gradientUnits="userSpaceOnUse">
<stop stop-color="#808080" stop-opacity="0.25"/>
<stop offset="0.54" stop-color="#808080" stop-opacity="0.12"/>
<stop offset="1" stop-color="#808080" stop-opacity="0.1"/>
</linearGradient>
<linearGradient id="paint7_linear" x1="10892.4" y1="2209.77" x2="10892.4" y2="2074.68" gradientUnits="userSpaceOnUse">
<stop stop-color="#808080" stop-opacity="0.25"/>
<stop offset="0.54" stop-color="#808080" stop-opacity="0.12"/>
<stop offset="1" stop-color="#808080" stop-opacity="0.1"/>
</linearGradient>
<linearGradient id="paint8_linear" x1="52673.8" y1="12909.7" x2="52673.8" y2="1443.23" gradientUnits="userSpaceOnUse">
<stop stop-color="#808080" stop-opacity="0.25"/>
<stop offset="0.54" stop-color="#808080" stop-opacity="0.12"/>
<stop offset="1" stop-color="#808080" stop-opacity="0.1"/>
</linearGradient>
<linearGradient id="paint9_linear" x1="16219" y1="2548.01" x2="16219" y2="2313.94" gradientUnits="userSpaceOnUse">
<stop stop-color="#808080" stop-opacity="0.25"/>
<stop offset="0.54" stop-color="#808080" stop-opacity="0.12"/>
<stop offset="1" stop-color="#808080" stop-opacity="0.1"/>
</linearGradient>
<linearGradient id="paint10_linear" x1="27528.3" y1="8788.44" x2="27528.3" y2="6810.19" gradientUnits="userSpaceOnUse">
<stop stop-color="#808080" stop-opacity="0.25"/>
<stop offset="0.54" stop-color="#808080" stop-opacity="0.12"/>
<stop offset="1" stop-color="#808080" stop-opacity="0.1"/>
</linearGradient>
<linearGradient id="paint11_linear" x1="32163.2" y1="10541.2" x2="32163.2" y2="7502" gradientUnits="userSpaceOnUse">
<stop stop-color="#808080" stop-opacity="0.25"/>
<stop offset="0.54" stop-color="#808080" stop-opacity="0.12"/>
<stop offset="1" stop-color="#808080" stop-opacity="0.1"/>
</linearGradient>
</defs>
</svg>
