<svg width="120" height="115" viewBox="0 0 120 115" fill="none" xmlns="http://www.w3.org/2000/svg">
<g clip-path="url(#clip0)">
<path d="M72.632 6.40994L10.1133 19.8242L28.6475 106.205L91.1662 92.7906L72.632 6.40994Z" fill="#E0E0E0"/>
<g opacity="0.5">
<path opacity="0.5" d="M71.8897 8.09671L11.4839 21.0576L29.3916 104.518L89.7974 91.5576L71.8897 8.09671Z" fill="url(#paint0_linear)"/>
</g>
<path d="M71.2517 8.87589L12.3838 21.5068L29.8958 103.124L88.7637 90.4928L71.2517 8.87589Z" fill="#FAFAFA"/>
<path d="M55.7374 8.50348L26.5337 14.7695L28.0516 21.8437L57.2552 15.5776L55.7374 8.50348Z" fill="url(#paint1_linear)"/>
<path d="M39.6523 4.72752C37.3977 5.21181 35.9711 7.47527 36.4671 9.78263C36.9631 12.09 39.1915 13.5707 41.4417 13.0864C43.692 12.6021 45.123 10.3386 44.627 8.03126C44.131 5.72391 41.907 4.24322 39.6523 4.72752ZM41.0672 11.3262C40.5907 11.4399 40.0911 11.4091 39.6322 11.2377C39.1732 11.0664 38.7757 10.7623 38.4902 10.3642C38.2047 9.96606 38.0443 9.49197 38.0293 9.00232C38.0142 8.51266 38.1454 8.02962 38.4059 7.61476C38.6664 7.1999 39.0446 6.87201 39.4921 6.67287C39.9397 6.47373 40.4365 6.41236 40.9191 6.49659C41.4016 6.58081 41.8482 6.80682 42.2019 7.1458C42.5556 7.48478 42.8003 7.92139 42.9049 8.39997C42.9771 8.71282 42.9869 9.03686 42.9336 9.35348C42.8802 9.6701 42.7649 9.97307 42.5941 10.245C42.4234 10.5169 42.2006 10.7524 41.9385 10.9379C41.6765 11.1235 41.3804 11.2555 41.0672 11.3262Z" fill="url(#paint2_linear)"/>
<path d="M55.3649 8.26633L26.7764 14.4004L28.2273 21.1627L56.8158 15.0286L55.3649 8.26633Z" fill="#F2994A"/>
<path d="M39.6523 4.72772C38.8621 4.89732 38.1399 5.29744 37.5771 5.87748C37.0142 6.45752 36.6361 7.19143 36.4903 7.9864C36.3446 8.78137 36.4379 9.6017 36.7583 10.3437C37.0788 11.0856 37.6121 11.7159 38.2908 12.1548C38.9695 12.5936 39.763 12.8214 40.5712 12.8093C41.3793 12.7972 42.1657 12.5457 42.8309 12.0866C43.4961 11.6276 44.0102 10.9816 44.3083 10.2304C44.6064 9.47913 44.675 8.65637 44.5055 7.86613C44.3929 7.34137 44.1781 6.84394 43.8733 6.40221C43.5684 5.96049 43.1796 5.58314 42.7289 5.29171C42.2782 5.00027 41.7746 4.80047 41.2467 4.7037C40.7188 4.60693 40.177 4.61509 39.6523 4.72772ZM41.0042 11.0338C40.5481 11.1317 40.0732 11.0921 39.6396 10.92C39.206 10.748 38.8331 10.4512 38.5681 10.0673C38.3032 9.68332 38.1581 9.22942 38.1511 8.76297C38.1441 8.29652 38.2756 7.83848 38.529 7.44678C38.7823 7.05507 39.1462 6.7473 39.5745 6.56238C40.0027 6.37746 40.4762 6.3237 40.9351 6.4079C41.3939 6.4921 41.8175 6.71047 42.1522 7.0354C42.4869 7.36034 42.7178 7.77723 42.8156 8.23337C42.9466 8.84493 42.8295 9.48351 42.4898 10.0087C42.1501 10.5338 41.6157 10.9026 41.0042 11.0338Z" fill="#F2994A"/>
<path d="M101.674 17.1055H37.7324V105.452H101.674V17.1055Z" fill="#E0E0E0"/>
<g opacity="0.5">
<path opacity="0.5" d="M100.595 18.5996H38.814V103.96H100.595V18.5996Z" fill="url(#paint3_linear)"/>
</g>
<path d="M99.8074 19.2285H39.5996V102.703H99.8074V19.2285Z" fill="white"/>
<path d="M84.7165 15.6084H54.8481V22.8436H84.7165V15.6084Z" fill="url(#paint4_linear)"/>
<path d="M69.7827 8.5459C67.4768 8.5459 65.6069 10.4597 65.6069 12.8212C65.6069 15.1827 67.4768 17.0964 69.7827 17.0964C72.0886 17.0964 73.9585 15.1827 73.9585 12.8212C73.9585 10.4597 72.0886 8.5459 69.7827 8.5459ZM69.7827 15.288C69.2925 15.2996 68.8099 15.1649 68.3966 14.901C67.9833 14.6371 67.6581 14.256 67.4624 13.8064C67.2666 13.3568 67.2094 12.8591 67.2978 12.3768C67.3863 11.8945 67.6165 11.4495 67.9591 11.0986C68.3016 10.7477 68.7409 10.5069 69.221 10.4069C69.701 10.3069 70.2 10.3522 70.6542 10.537C71.1084 10.7219 71.4971 11.0379 71.7709 11.4448C72.0446 11.8516 72.1909 12.3308 72.191 12.8212C72.1957 13.4656 71.945 14.0858 71.4936 14.5459C71.0423 15.0059 70.4272 15.2686 69.7827 15.2763V15.288Z" fill="url(#paint5_linear)"/>
<path d="M84.4023 15.2988H55.1631V22.215H84.4023V15.2988Z" fill="#F2994A"/>
<path d="M69.7828 8.5459C68.9746 8.5459 68.1845 8.78557 67.5125 9.2346C66.8404 9.68363 66.3167 10.3219 66.0074 11.0686C65.6981 11.8153 65.6171 12.637 65.7748 13.4297C65.9325 14.2224 66.3217 14.9505 66.8932 15.522C67.4647 16.0935 68.1929 16.4827 68.9856 16.6404C69.7783 16.7981 70.6 16.7172 71.3467 16.4079C72.0934 16.0986 72.7316 15.5748 73.1806 14.9028C73.6297 14.2307 73.8693 13.4407 73.8693 12.6324C73.8693 11.5486 73.4388 10.5092 72.6724 9.74281C71.9061 8.97644 70.8666 8.5459 69.7828 8.5459ZM69.7828 14.991C69.3167 14.9904 68.8612 14.8517 68.4739 14.5925C68.0865 14.3332 67.7847 13.965 67.6064 13.5343C67.4282 13.1036 67.3816 12.6298 67.4724 12.1726C67.5633 11.7155 67.7876 11.2955 68.117 10.9657C68.4463 10.6359 68.8661 10.4111 69.3231 10.3197C69.7802 10.2282 70.2541 10.2743 70.685 10.452C71.1159 10.6297 71.4845 10.9311 71.7442 11.3181C72.0039 11.7052 72.1432 12.1605 72.1443 12.6266C72.1441 12.9364 72.0829 13.2432 71.9641 13.5294C71.8453 13.8156 71.6713 14.0755 71.452 14.2944C71.2326 14.5133 70.9724 14.6868 70.686 14.8051C70.3996 14.9234 70.0927 14.9841 69.7828 14.9837V14.991Z" fill="#F2994A"/>
<g opacity="0.5">
<path opacity="0.5" d="M2.78402 107.84H2.23389V110.961H2.78402V107.84Z" fill="#47E6B1"/>
<path opacity="0.5" d="M4.06982 109.676V109.126H0.948976V109.676H4.06982Z" fill="#47E6B1"/>
</g>
<g opacity="0.5">
<path opacity="0.5" d="M66.6092 0H66.0591V3.12085H66.6092V0Z" fill="#47E6B1"/>
<path opacity="0.5" d="M67.8955 1.83528V1.28516L64.7747 1.28516V1.83528L67.8955 1.83528Z" fill="#47E6B1"/>
</g>
<path opacity="0.5" d="M112.819 113.035C112.667 112.969 112.545 112.849 112.476 112.699C112.406 112.549 112.395 112.378 112.443 112.22C112.451 112.196 112.456 112.171 112.458 112.145C112.462 112.073 112.443 112.001 112.403 111.94C112.363 111.879 112.305 111.833 112.237 111.808C112.169 111.783 112.095 111.78 112.025 111.801C111.955 111.821 111.894 111.864 111.85 111.922C111.835 111.942 111.822 111.964 111.812 111.987C111.746 112.139 111.627 112.261 111.476 112.331C111.326 112.4 111.156 112.412 110.997 112.363C110.973 112.356 110.948 112.351 110.923 112.349C110.85 112.344 110.778 112.364 110.718 112.403C110.657 112.443 110.61 112.501 110.585 112.569C110.56 112.637 110.558 112.712 110.578 112.781C110.599 112.851 110.641 112.912 110.699 112.956C110.719 112.971 110.741 112.984 110.765 112.994C110.916 113.06 111.039 113.18 111.108 113.33C111.177 113.48 111.189 113.651 111.141 113.809C111.133 113.833 111.128 113.858 111.126 113.884C111.122 113.956 111.141 114.028 111.181 114.089C111.22 114.15 111.278 114.196 111.347 114.221C111.415 114.246 111.489 114.249 111.559 114.228C111.628 114.208 111.69 114.165 111.733 114.107C111.749 114.087 111.761 114.065 111.771 114.042C111.837 113.89 111.957 113.768 112.107 113.698C112.258 113.629 112.428 113.617 112.586 113.666C112.611 113.673 112.636 113.678 112.661 113.68C112.733 113.685 112.805 113.666 112.866 113.626C112.927 113.586 112.973 113.528 112.998 113.46C113.024 113.392 113.026 113.317 113.006 113.248C112.985 113.178 112.943 113.117 112.885 113.073C112.864 113.058 112.842 113.045 112.819 113.035Z" fill="#4D8AF0"/>
<path opacity="0.5" d="M19.9967 83.0321C19.845 82.966 19.7228 82.8465 19.6535 82.6962C19.5841 82.5459 19.5725 82.3754 19.6207 82.2171C19.6285 82.1929 19.6334 82.1679 19.6353 82.1425C19.6397 82.07 19.6206 81.9981 19.5809 81.9373C19.5412 81.8765 19.483 81.8302 19.4149 81.805C19.3467 81.7799 19.2724 81.7774 19.2027 81.7979C19.1331 81.8183 19.0718 81.8607 19.0281 81.9186C19.0129 81.939 19.0001 81.9611 18.9901 81.9845C18.924 82.1362 18.8045 82.2584 18.6542 82.3277C18.5039 82.3971 18.3334 82.4087 18.1751 82.3605C18.1509 82.3527 18.1259 82.3478 18.1005 82.3459C18.028 82.3415 17.9561 82.3606 17.8953 82.4003C17.8345 82.44 17.7882 82.4982 17.7631 82.5663C17.7379 82.6344 17.7354 82.7088 17.7559 82.7785C17.7763 82.8481 17.8187 82.9094 17.8766 82.9531C17.897 82.9683 17.9191 82.9811 17.9425 82.9911C18.0942 83.0572 18.2164 83.1767 18.2857 83.327C18.3551 83.4772 18.3667 83.6478 18.3185 83.8061C18.3107 83.8303 18.3058 83.8553 18.3039 83.8807C18.2995 83.9532 18.3186 84.0251 18.3583 84.0859C18.398 84.1467 18.4562 84.193 18.5243 84.2181C18.5924 84.2433 18.6668 84.2458 18.7365 84.2253C18.8061 84.2049 18.8674 84.1625 18.9111 84.1046C18.9263 84.0842 18.9391 84.0621 18.9491 84.0387C19.0152 83.887 19.1347 83.7648 19.285 83.6955C19.4352 83.6261 19.6058 83.6145 19.7641 83.6627C19.7883 83.6705 19.8133 83.6754 19.8387 83.6773C19.9112 83.6817 19.9831 83.6626 20.0439 83.6229C20.1046 83.5832 20.151 83.525 20.1761 83.4569C20.2012 83.3888 20.2038 83.3144 20.1833 83.2447C20.1628 83.1751 20.1205 83.1138 20.0626 83.0701C20.0422 83.0549 20.0201 83.0421 19.9967 83.0321Z" fill="#FDD835"/>
<path opacity="0.5" d="M97.3097 9.97543C97.158 9.90937 97.0358 9.78984 96.9665 9.63957C96.8971 9.4893 96.8855 9.31878 96.9337 9.16047C96.9415 9.13625 96.9464 9.11121 96.9483 9.08585C96.9527 9.01338 96.9336 8.94144 96.8939 8.88067C96.8542 8.81989 96.796 8.77352 96.7279 8.7484C96.6597 8.72329 96.5853 8.72078 96.5157 8.74124C96.446 8.76169 96.3848 8.80403 96.3411 8.86199C96.3259 8.88237 96.3131 8.90447 96.3031 8.92783C96.237 9.07957 96.1175 9.20173 95.9672 9.27107C95.8169 9.3404 95.6464 9.35207 95.4881 9.30385C95.4639 9.29607 95.4388 9.29116 95.4135 9.28922C95.341 9.28486 95.2691 9.30394 95.2083 9.34364C95.1475 9.38335 95.1012 9.44157 95.076 9.50968C95.0509 9.57779 95.0484 9.65218 95.0689 9.72183C95.0893 9.79149 95.1317 9.8527 95.1896 9.89642C95.21 9.91164 95.2321 9.9244 95.2555 9.93446C95.4072 10.0005 95.5294 10.1201 95.5987 10.2703C95.668 10.4206 95.6797 10.5911 95.6315 10.7494C95.6237 10.7736 95.6188 10.7987 95.6169 10.824C95.6125 10.8965 95.6316 10.9684 95.6713 11.0292C95.711 11.09 95.7692 11.1364 95.8373 11.1615C95.9054 11.1866 95.9798 11.1891 96.0495 11.1687C96.1191 11.1482 96.1803 11.1059 96.2241 11.0479C96.2393 11.0275 96.252 11.0054 96.2621 10.9821C96.3282 10.8303 96.4477 10.7082 96.598 10.6388C96.7482 10.5695 96.9187 10.5578 97.0771 10.606C97.1013 10.6138 97.1263 10.6187 97.1517 10.6207C97.2241 10.625 97.2961 10.606 97.3569 10.5662C97.4176 10.5265 97.464 10.4683 97.4891 10.4002C97.5142 10.3321 97.5168 10.2577 97.4963 10.1881C97.4758 10.1184 97.4335 10.0572 97.3755 10.0135C97.3552 9.99826 97.3331 9.98549 97.3097 9.97543Z" fill="#FDD835"/>
<path opacity="0.5" d="M118.9 47.1127C119.508 47.1127 120.001 46.6194 120.001 46.0109C120.001 45.4024 119.508 44.9092 118.9 44.9092C118.291 44.9092 117.798 45.4024 117.798 46.0109C117.798 46.6194 118.291 47.1127 118.9 47.1127Z" fill="#F55F44"/>
<path opacity="0.5" d="M33.7585 110.346C34.3669 110.346 34.8602 109.853 34.8602 109.244C34.8602 108.636 34.3669 108.143 33.7585 108.143C33.15 108.143 32.6567 108.636 32.6567 109.244C32.6567 109.853 33.15 110.346 33.7585 110.346Z" fill="#F55F44"/>
<path opacity="0.5" d="M107.585 70.9261C108.194 70.9261 108.687 70.4329 108.687 69.8244C108.687 69.2159 108.194 68.7227 107.585 68.7227C106.977 68.7227 106.483 69.2159 106.483 69.8244C106.483 70.4329 106.977 70.9261 107.585 70.9261Z" fill="#F55F44"/>
<path opacity="0.5" d="M12.7497 15.1996C13.3582 15.1996 13.8514 14.7063 13.8514 14.0978C13.8514 13.4894 13.3582 12.9961 12.7497 12.9961C12.1412 12.9961 11.6479 13.4894 11.6479 14.0978C11.6479 14.7063 12.1412 15.1996 12.7497 15.1996Z" fill="#4D8AF0"/>
<path opacity="0.5" d="M1.10174 45.2533C1.71021 45.2533 2.20347 44.76 2.20347 44.1515C2.20347 43.5431 1.71021 43.0498 1.10174 43.0498C0.493264 43.0498 0 43.5431 0 44.1515C0 44.76 0.493264 45.2533 1.10174 45.2533Z" fill="#47E6B1"/>
</g>
<defs>
<linearGradient id="paint0_linear" x1="59.5938" y1="98.0382" x2="41.6861" y2="14.5773" gradientUnits="userSpaceOnUse">
<stop stop-color="#808080" stop-opacity="0.25"/>
<stop offset="0.54" stop-color="#808080" stop-opacity="0.12"/>
<stop offset="1" stop-color="#808080" stop-opacity="0.1"/>
</linearGradient>
<linearGradient id="paint1_linear" x1="16066.1" y1="-2092.11" x2="15991" y2="-2441.93" gradientUnits="userSpaceOnUse">
<stop stop-color="#808080" stop-opacity="0.25"/>
<stop offset="0.54" stop-color="#808080" stop-opacity="0.12"/>
<stop offset="1" stop-color="#808080" stop-opacity="0.1"/>
</linearGradient>
<linearGradient id="paint2_linear" x1="4691.34" y1="238.632" x2="4586.62" y2="-249.394" gradientUnits="userSpaceOnUse">
<stop stop-color="#808080" stop-opacity="0.25"/>
<stop offset="0.54" stop-color="#808080" stop-opacity="0.12"/>
<stop offset="1" stop-color="#808080" stop-opacity="0.1"/>
</linearGradient>
<linearGradient id="paint3_linear" x1="29471.1" y1="60669.7" x2="29471.1" y2="10869.6" gradientUnits="userSpaceOnUse">
<stop stop-color="#808080" stop-opacity="0.25"/>
<stop offset="0.54" stop-color="#808080" stop-opacity="0.12"/>
<stop offset="1" stop-color="#808080" stop-opacity="0.1"/>
</linearGradient>
<linearGradient id="paint4_linear" x1="14300.2" y1="1145.24" x2="14300.2" y2="787.458" gradientUnits="userSpaceOnUse">
<stop stop-color="#808080" stop-opacity="0.25"/>
<stop offset="0.54" stop-color="#808080" stop-opacity="0.12"/>
<stop offset="1" stop-color="#808080" stop-opacity="0.1"/>
</linearGradient>
<linearGradient id="paint5_linear" x1="5634.92" y1="1516.77" x2="5634.92" y2="1017.08" gradientUnits="userSpaceOnUse">
<stop stop-color="#808080" stop-opacity="0.25"/>
<stop offset="0.54" stop-color="#808080" stop-opacity="0.12"/>
<stop offset="1" stop-color="#808080" stop-opacity="0.1"/>
</linearGradient>
<clipPath id="clip0">
<rect width="120" height="114.243" fill="white"/>
</clipPath>
</defs>
</svg>
