<svg width="12" height="12" viewBox="0 0 12 12" fill="none" xmlns="http://www.w3.org/2000/svg">
<path fill-rule="evenodd" clip-rule="evenodd" d="M10.8 4.8002H1.19995V1.8002C1.19995 1.469 1.40215 1.2002 1.73335 1.2002H3.74635C3.97555 1.2002 4.18435 1.3304 4.28515 1.5362L4.96675 2.9276C5.16835 3.3392 5.58595 3.6002 6.04435 3.6002H10.1334C10.4646 3.6002 10.8 3.869 10.8 4.2002V4.8002ZM10.8 10.2C10.8 10.5312 10.4646 10.8 10.1334 10.8H1.73335C1.40215 10.8 1.19995 10.5312 1.19995 10.2V6H10.8V10.2ZM10.7334 2.4H6.675C6.2202 2.4 5.805 2.1432 5.6016 1.7364L5.0652 0.6636C4.8618 0.2568 4.446 0 3.9918 0H1.1334C0.4704 0 0 0.537 0 1.2V10.8C0 11.463 0.4704 12 1.1334 12H10.7334C11.3958 12 12 11.463 12 10.8V3.6C12 2.937 11.3958 2.4 10.7334 2.4Z" fill="white"/>
</svg>
