<svg width="144" height="56" viewBox="0 0 144 56" fill="none" xmlns="http://www.w3.org/2000/svg">
<path d="M5.387 17.9513C4.41468 17.9513 3.42667 17.8417 2.42298 17.6224C1.41928 17.4187 0.611625 17.1759 1.49562e-08 16.894L0.305812 14.5208C1.08995 14.8968 1.97602 15.2257 2.96403 15.5077C3.95204 15.7897 4.9322 15.9306 5.90453 15.9306C7.00232 15.9306 7.84918 15.7348 8.44513 15.3432C9.05675 14.9359 9.36256 14.3329 9.36256 13.534C9.36256 12.9387 9.20574 12.4453 8.89208 12.0537C8.59411 11.6464 8.14715 11.3097 7.55121 11.0434C6.97095 10.7614 6.15545 10.4638 5.10471 10.1505C4.03829 9.8372 3.15222 9.50042 2.4465 9.14014C1.74078 8.77986 1.16836 8.28643 0.729245 7.65986C0.305812 7.03329 0.0940961 6.24224 0.0940961 5.28671C0.0940961 3.95525 0.603783 2.88224 1.62316 2.06769C2.65822 1.25315 4.10886 0.845874 5.9751 0.845874C6.97879 0.845874 7.9276 0.955525 8.82151 1.17483C9.73111 1.39413 10.5231 1.66042 11.1974 1.97371L10.9622 4.34685C10.084 3.82993 9.2371 3.45399 8.4216 3.21902C7.6061 2.98406 6.75924 2.86657 5.88101 2.86657C4.86163 2.86657 4.04613 3.05455 3.43451 3.43049C2.83857 3.80643 2.5406 4.38601 2.5406 5.16923C2.5406 5.70182 2.6739 6.14042 2.9405 6.48504C3.22279 6.82965 3.6227 7.12727 4.14023 7.3779C4.65776 7.61287 5.37916 7.87133 6.30444 8.15329C8.155 8.7172 9.53507 9.39077 10.4447 10.174C11.3543 10.9415 11.8091 12.0067 11.8091 13.3695C11.8091 14.8106 11.268 15.9385 10.1859 16.753C9.1038 17.5519 7.50416 17.9513 5.387 17.9513ZM19.501 17.8573C18.1837 17.8573 17.0545 17.591 16.1136 17.0585C15.1883 16.5102 14.4826 15.774 13.9964 14.8498C13.5103 13.9256 13.2672 12.8996 13.2672 11.7717C13.2672 10.6909 13.4867 9.70406 13.9259 8.81119C14.3806 7.90266 15.0315 7.18993 15.8783 6.67301C16.7409 6.14042 17.7524 5.87413 18.9129 5.87413C20.3871 5.87413 21.579 6.3049 22.4886 7.16643C23.4139 8.02797 23.8765 9.21846 23.8765 10.7379C23.8765 11.1295 23.8451 11.5055 23.7824 11.8657H15.4314C15.5725 13.3538 16.0273 14.4112 16.7958 15.0378C17.5642 15.6643 18.5522 15.9776 19.7598 15.9776C20.9674 15.9776 22.073 15.7505 23.0767 15.2962L23.359 16.9645C22.0259 17.5597 20.74 17.8573 19.501 17.8573ZM21.6888 10.409C21.6888 9.57874 21.4535 8.92867 20.983 8.45874C20.5126 7.98881 19.8068 7.75385 18.8659 7.75385C17.9563 7.75385 17.2427 7.98098 16.7252 8.43525C16.2077 8.87385 15.8391 9.53175 15.6196 10.409H21.6888ZM28.9745 17.8573C27.9395 17.8573 27.1789 17.591 26.6927 17.0585C26.2222 16.5259 25.987 15.868 25.987 15.0848V0H28.1042V13.8629C28.1042 14.5522 28.1434 15.0534 28.2218 15.3667C28.3159 15.68 28.4884 15.8915 28.7393 16.0011C28.9902 16.1108 29.398 16.1656 29.9626 16.1656L29.6567 17.8573H28.9745ZM34.2518 17.8573C33.1853 17.8573 32.3228 17.5441 31.6641 16.9175C31.0211 16.2909 30.6996 15.492 30.6996 14.5208C30.6996 13.0641 31.3897 12.0224 32.7698 11.3958C34.1498 10.7692 35.7573 10.4403 37.5922 10.409C37.5922 9.3751 37.3883 8.67804 36.9806 8.31776C36.5885 7.94182 35.9533 7.75385 35.0751 7.75385C34.5889 7.75385 34.1028 7.83217 33.6166 7.98881C33.1305 8.12979 32.6051 8.39608 32.0405 8.78769L31.7347 7.07245C32.2052 6.71217 32.7854 6.42238 33.4755 6.20308C34.1655 5.98378 34.8869 5.87413 35.6397 5.87413C36.6277 5.87413 37.4118 6.04643 37.9921 6.39105C38.588 6.73567 39.0193 7.30741 39.2859 8.10629C39.5682 8.90518 39.7093 10.0017 39.7093 11.3958V13.7455C39.7093 14.372 39.7329 14.8498 39.7799 15.1787C39.8426 15.492 39.9681 15.7348 40.1563 15.9071C40.3445 16.0794 40.6346 16.1656 41.0267 16.1656H41.2384L40.9091 17.8573H40.7444C40.0857 17.8573 39.5682 17.7947 39.1918 17.6694C38.8154 17.5441 38.5253 17.3639 38.3214 17.129C38.1332 16.894 37.9529 16.5729 37.7804 16.1656C36.808 17.2934 35.6318 17.8573 34.2518 17.8573ZM34.6517 16.1656C35.2163 16.1656 35.7573 16.0246 36.2748 15.7427C36.808 15.4607 37.2472 15.0848 37.5922 14.6148V11.8657C35.8985 11.9284 34.683 12.1555 33.946 12.5471C33.2246 12.9231 32.8639 13.5418 32.8639 14.4034C32.8639 14.9986 33.0207 15.445 33.3343 15.7427C33.6637 16.0246 34.1028 16.1656 34.6517 16.1656Z" transform="translate(61.5229 10.1816) scale(2)" fill="#156EDC"/>
<path d="M1.45065 0.724475C1.45065 0.324359 1.12591 0 0.725324 0C0.324739 0 0 0.324359 0 0.724475V4.32727C0 4.72739 0.324739 5.05175 0.725324 5.05175C1.12591 5.05175 1.45065 4.72739 1.45065 4.32727V0.724475Z" transform="translate(26.7388) scale(2)" fill="#156EDC"/>
<path d="M1.45065 0.724475C1.45065 0.324359 1.12591 0 0.725324 0C0.324739 0 0 0.324359 0 0.724475V4.32727C0 4.72739 0.324739 5.05175 0.725324 5.05175C1.12591 5.05175 1.45065 4.72739 1.45065 4.32727V0.724475Z" transform="translate(26.3862 45.8965) scale(2)" fill="#156EDC"/>
<path d="M1.45054 0.724532C1.45054 0.324384 1.12582 0 0.725268 0C0.324713 0 0 0.324384 0 0.724532V4.32761C0 4.72776 0.324713 5.05214 0.725268 5.05214C1.12582 5.05214 1.45054 4.72776 1.45054 4.32761V0.724532Z" transform="matrix(1.932 0.517073 -0.518204 1.9317 34.0137 0.626465)" fill="#156EDC"/>
<path d="M1.45054 0.724532C1.45054 0.324384 1.12582 0 0.725268 0C0.324713 0 0 0.324384 0 0.724532V4.32761C0 4.72776 0.324713 5.05214 0.725268 5.05214C1.12582 5.05214 1.45054 4.72776 1.45054 4.32761V0.724532Z" transform="matrix(1.932 -0.517073 0.518204 1.9317 19.5249 1.29834)" fill="#156EDC"/>
<path d="M1.45022 0.724688C1.45022 0.324454 1.12558 0 0.725112 0C0.324644 0 0 0.324454 0 0.724688V4.32854C0 4.72877 0.324644 5.05323 0.725112 5.05323C1.12558 5.05323 1.45022 4.72877 1.45022 4.32854V0.724688Z" transform="matrix(1.73256 0.999122 -1.00088 1.73154 40.9316 3.09375)" fill="#156EDC"/>
<path d="M1.45022 0.724688C1.45022 0.324454 1.12558 0 0.725112 0C0.324644 0 0 0.324454 0 0.724688V4.32854C0 4.72877 0.324644 5.05323 0.725112 5.05323C1.12558 5.05323 1.45022 4.72877 1.45022 4.32854V0.724688Z" transform="matrix(1.73256 -0.999122 1.00088 1.73154 12.8989 4.38623)" fill="#156EDC"/>
<path d="M1.4498 0.7249C1.4498 0.324549 1.12525 0 0.7249 0C0.324549 0 0 0.324549 0 0.7249V4.32981C0 4.73016 0.324549 5.05471 0.7249 5.05471C1.12525 5.05471 1.4498 4.73016 1.4498 4.32981V0.7249Z" transform="translate(46.9272 7.25244) scale(2.00117 1.99883) rotate(45)" fill="#156EDC"/>
<path d="M1.4498 0.7249C1.4498 0.324549 1.12525 0 0.7249 0C0.324549 0 0 0.324549 0 0.7249V4.32981C0 4.73016 0.324549 5.05471 0.7249 5.05471C1.12525 5.05471 1.4498 4.73016 1.4498 4.32981V0.7249Z" transform="translate(7.29248 9.09814) scale(2.00117 1.99883) rotate(-45)" fill="#156EDC"/>
<path d="M1.44938 0.725112C1.44938 0.324644 1.12492 0 0.724688 0C0.324454 0 0 0.324644 0 0.725112V4.33107C0 4.73154 0.324454 5.05619 0.724688 5.05619C1.12492 5.05619 1.44938 4.73154 1.44938 4.33107V0.725112Z" transform="matrix(1.00088 1.73154 -1.73256 0.999122 51.6899 12.8369)" fill="#156EDC"/>
<path d="M1.44938 0.725112C1.44938 0.324644 1.12492 0 0.724688 0C0.324454 0 0 0.324644 0 0.725112V4.33107C0 4.73154 0.324454 5.05619 0.724688 5.05619C1.12492 5.05619 1.44938 4.73154 1.44938 4.33107V0.725112Z" transform="matrix(1.00088 -1.73154 1.73256 0.999122 3.01904 15.1196)" fill="#156EDC"/>
<path d="M1.44907 0.725267C1.44907 0.324713 1.12468 0 0.724533 0C0.324384 0 0 0.324713 0 0.725267V4.332C0 4.73256 0.324384 5.05727 0.724533 5.05727C1.12468 5.05727 1.44907 4.73256 1.44907 4.332V0.725267Z" transform="matrix(0.518204 1.9317 -1.932 0.517073 54.8193 19.4849)" fill="#156EDC"/>
<path d="M1.44907 0.725267C1.44907 0.324713 1.12468 0 0.724533 0C0.324384 0 0 0.324713 0 0.725267V4.332C0 4.73256 0.324384 5.05727 0.724533 5.05727C1.12468 5.05727 1.44907 4.73256 1.44907 4.332V0.725267Z" transform="matrix(0.518204 -1.9317 1.932 0.517073 0.627441 21.9878)" fill="#156EDC"/>
<path d="M1.44895 0.725324C1.44895 0.324739 1.12459 0 0.724476 0C0.324359 0 0 0.324739 0 0.725324V4.33234C0 4.73293 0.324359 5.05767 0.724476 5.05767C1.12459 5.05767 1.44895 4.73293 1.44895 4.33234V0.725324Z" transform="translate(56.0654 26.7075) scale(2) rotate(90)" fill="#156EDC"/>
<path d="M1.44895 0.725324C1.44895 0.324739 1.12459 0 0.724476 0C0.324359 0 0 0.324739 0 0.725324V4.33234C0 4.73293 0.324359 5.05767 0.724476 5.05767C1.12459 5.05767 1.44895 4.73293 1.44895 4.33234V0.725324Z" transform="translate(10.1152 26.3945) scale(2) rotate(90)" fill="#156EDC"/>
<path d="M1.44907 0.725267C1.44907 0.324713 1.12468 0 0.724533 0C0.324384 0 0 0.324713 0 0.725267V4.332C0 4.73256 0.324384 5.05727 0.724533 5.05727C1.12468 5.05727 1.44907 4.73256 1.44907 4.332V0.725267Z" transform="matrix(-0.518204 1.9317 -1.932 -0.517073 55.4531 33.9814)" fill="#156EDC"/>
<path d="M1.44907 0.725267C1.44907 0.324713 1.12468 0 0.724533 0C0.324384 0 0 0.324713 0 0.725267V4.332C0 4.73256 0.324384 5.05727 0.724533 5.05727C1.12468 5.05727 1.44907 4.73256 1.44907 4.332V0.725267Z" transform="matrix(-0.518204 -1.9317 1.932 -0.517073 1.26074 36.5078)" fill="#156EDC"/>
<path d="M1.44938 0.725112C1.44938 0.324644 1.12492 0 0.724688 0C0.324454 0 0 0.324644 0 0.725112V4.33107C0 4.73154 0.324454 5.05619 0.724688 5.05619C1.12492 5.05619 1.44938 4.73154 1.44938 4.33107V0.725112Z" transform="matrix(-1.00088 1.73154 -1.73256 -0.999122 52.9854 40.8838)" fill="#156EDC"/>
<path d="M1.44938 0.725112C1.44938 0.324644 1.12492 0 0.724688 0C0.324454 0 0 0.324644 0 0.725112V4.33107C0 4.73154 0.324454 5.05619 0.724688 5.05619C1.12492 5.05619 1.44938 4.73154 1.44938 4.33107V0.725112Z" transform="matrix(-1.00088 -1.73154 1.73256 -0.999122 4.39111 43.1196)" fill="#156EDC"/>
<path d="M1.4498 0.7249C1.4498 0.324549 1.12525 0 0.7249 0C0.324549 0 0 0.324549 0 0.7249V4.32981C0 4.73016 0.324549 5.05471 0.7249 5.05471C1.12525 5.05471 1.4498 4.73016 1.4498 4.32981V0.7249Z" transform="translate(48.8071 46.8828) scale(2.00117 1.99883) rotate(135)" fill="#156EDC"/>
<path d="M1.4498 0.7249C1.4498 0.324549 1.12525 0 0.7249 0C0.324549 0 0 0.324549 0 0.7249V4.32981C0 4.73016 0.324549 5.05471 0.7249 5.05471C1.12525 5.05471 1.4498 4.73016 1.4498 4.32981V0.7249Z" transform="translate(9.10889 48.7065) scale(2.00117 1.99883) rotate(-135)" fill="#156EDC"/>
<path d="M1.45022 0.724688C1.45022 0.324454 1.12558 0 0.725112 0C0.324644 0 0 0.324454 0 0.724688V4.32854C0 4.72877 0.324644 5.05323 0.725112 5.05323C1.12558 5.05323 1.45022 4.72877 1.45022 4.32854V0.724688Z" transform="matrix(-1.73256 0.999122 -1.00088 -1.73154 43.168 51.5664)" fill="#156EDC"/>
<path d="M1.45022 0.724688C1.45022 0.324454 1.12558 0 0.725112 0C0.324644 0 0 0.324454 0 0.724688V4.32854C0 4.72877 0.324644 5.05323 0.725112 5.05323C1.12558 5.05323 1.45022 4.72877 1.45022 4.32854V0.724688Z" transform="matrix(-1.73256 -0.999122 1.00088 -1.73154 15.1372 52.9624)" fill="#156EDC"/>
<path d="M1.45054 0.724532C1.45054 0.324384 1.12582 0 0.725268 0C0.324713 0 0 0.324384 0 0.724532V4.32761C0 4.72776 0.324713 5.05214 0.725268 5.05214C1.12582 5.05214 1.45054 4.72776 1.45054 4.32761V0.724532Z" transform="matrix(-1.932 0.517073 -0.518204 -1.9317 36.5508 54.7158)" fill="#156EDC"/>
<path d="M1.45054 0.724532C1.45054 0.324384 1.12582 0 0.725268 0C0.324713 0 0 0.324384 0 0.724532V4.32761C0 4.72776 0.324713 5.05214 0.725268 5.05214C1.12582 5.05214 1.45054 4.72776 1.45054 4.32761V0.724532Z" transform="matrix(-1.932 -0.517073 0.518204 -1.9317 22.0137 55.4268)" fill="#156EDC"/>
</svg>
