<svg width="12" height="12" viewBox="0 0 12 12" fill="none" xmlns="http://www.w3.org/2000/svg">
<rect width="12" height="12" fill="black" fill-opacity="0"/>
<path d="M6 12C7.5915 12 9.1177 11.3678 10.2428 10.2428C11.3678 9.11772 12 7.5915 12 6C12 4.4085 11.3678 2.8823 10.2428 1.75722C9.11772 0.632166 7.5915 0 6 0C4.4085 0 2.8823 0.632179 1.75722 1.75722C0.632166 2.88228 0 4.4085 0 6C0.00196162 7.59049 0.634627 9.1157 1.75974 10.2403C2.8843 11.3653 4.40951 11.998 6 12ZM6 1.17115C7.28 1.17115 8.50815 1.67973 9.41351 2.58511C10.3188 3.49046 10.8275 4.71799 10.8275 5.99862C10.8275 7.27862 10.3194 8.50677 9.41401 9.41212C8.50867 10.3175 7.28113 10.8261 6.001 10.8266C4.7205 10.8266 3.49285 10.3185 2.58712 9.41313C1.68178 8.50828 1.17265 7.28025 1.17265 6.00013C1.17413 4.72012 1.68271 3.49298 2.588 2.58813C3.49285 1.68278 4.71987 1.17416 6 1.17278V1.17115ZM6.54635 8.94017V8.94067C6.54635 9.19128 6.39481 9.41737 6.16332 9.5135C5.93134 9.60962 5.66454 9.55616 5.4875 9.37912C5.30995 9.20157 5.257 8.93478 5.35312 8.7033C5.44875 8.47131 5.67485 8.32026 5.92595 8.32026C6.09074 8.32026 6.24866 8.38549 6.36489 8.50221C6.48112 8.61894 6.54635 8.77686 6.54635 8.94164V8.94017ZM3.99112 4.10693C3.93668 3.95244 3.94649 3.78324 4.0176 3.63611C4.1873 3.27957 4.4541 2.97843 4.7871 2.76656C5.1201 2.55518 5.50608 2.44141 5.90088 2.43944H5.91363H5.91314C6.4639 2.4414 6.9926 2.6567 7.38838 3.03923C7.78415 3.42227 8.01712 3.94311 8.03772 4.49338C8.05194 4.94508 7.92001 5.38891 7.66204 5.75969C7.40407 6.13095 7.0333 6.40855 6.60515 6.55224C6.60515 6.55224 6.54384 6.57382 6.54384 6.61011V7.10251H6.54335C6.54335 7.44336 6.26724 7.71949 5.92638 7.71949C5.58553 7.71949 5.3094 7.44338 5.3094 7.10251V6.61011C5.31529 6.05102 5.67674 5.55764 6.20838 5.38353C6.57474 5.25945 6.81702 4.91026 6.80475 4.5233C6.77974 4.05052 6.39229 3.67778 5.91853 3.67092C5.58209 3.67484 5.27753 3.86954 5.13383 4.17312C5.02643 4.40118 4.7915 4.54095 4.53991 4.52624C4.28831 4.51202 4.07105 4.34576 3.99111 4.10692L3.99112 4.10693Z" fill="#4F4F4F"/>
</svg>
