<svg width="12" height="12" viewBox="0 0 12 12" fill="none" xmlns="http://www.w3.org/2000/svg">
<path d="M6 1.5C3.51855 1.5 1.5 3.51855 1.5 6C1.5 8.48145 3.51855 10.5 6 10.5C8.48145 10.5 10.5 8.48145 10.5 6C10.5 3.51855 8.48145 1.5 6 1.5ZM6 2.25C8.07568 2.25 9.75 3.92432 9.75 6C9.75 8.07568 8.07568 9.75 6 9.75C3.92432 9.75 2.25 8.07568 2.25 6C2.25 3.92432 3.92432 2.25 6 2.25ZM6 3.75C5.17529 3.75 4.5 4.42529 4.5 5.25H5.25C5.25 4.83105 5.58105 4.5 6 4.5C6.41895 4.5 6.75 4.83105 6.75 5.25C6.75 5.53711 6.56543 5.79199 6.29297 5.88281L6.14062 5.92969C5.83447 6.03076 5.625 6.32373 5.625 6.64453V7.125H6.375V6.64453L6.52734 6.59766C7.10449 6.40576 7.5 5.85791 7.5 5.25C7.5 4.42529 6.82471 3.75 6 3.75ZM5.625 7.5V8.25H6.375V7.5H5.625Z" fill="#67747C"/>
</svg>
