<svg width="17" height="20" viewBox="0 0 17 20" fill="none" xmlns="http://www.w3.org/2000/svg">
<path d="M1.66665 8.14488e-05C0.753022 8.14488e-05 0 0.753104 0 1.66674V18.3333C0 19.2469 0.753022 19.9999 1.66665 19.9999H6.11107C6.25972 20.0021 6.40296 19.9446 6.50929 19.8404C6.61454 19.7352 6.67422 19.593 6.67422 19.4444C6.67422 19.2957 6.61454 19.1536 6.50929 19.0483C6.40295 18.9442 6.25972 18.8867 6.11107 18.8888H1.66665C1.34874 18.8888 1.1111 18.6512 1.1111 18.3333V1.66673C1.1111 1.34881 1.34873 1.11117 1.66665 1.11117H6.11107C6.25972 1.11334 6.40296 1.05584 6.50929 0.951669C6.61454 0.846417 6.67422 0.704277 6.67422 0.555616C6.67422 0.406956 6.61454 0.264813 6.50929 0.159564C6.40295 0.0553976 6.25972 -0.00211023 6.11107 5.91966e-05L1.66665 8.14488e-05ZM11.5885 4.99144C11.3813 5.01748 11.2066 5.15636 11.1361 5.35277C11.0644 5.54808 11.1089 5.76726 11.25 5.92026L14.3316 9.44468H4.44449C4.42712 9.4436 4.40976 9.4436 4.3924 9.44468C4.24483 9.45119 4.10596 9.5163 4.00721 9.62589C3.90738 9.73439 3.85639 9.87871 3.8629 10.0263C3.86941 10.1738 3.93451 10.3127 4.0441 10.4115C4.15261 10.5113 4.29692 10.5623 4.44449 10.5558H14.3316L11.25 14.0713C11.0482 14.3013 11.0699 14.6518 11.2988 14.8547C11.5289 15.0587 11.8793 15.0381 12.0833 14.8091L15.9722 10.3647C16.1588 10.1542 16.1588 9.8374 15.9722 9.62691L12.0833 5.18249C11.9618 5.03927 11.7752 4.96765 11.5885 4.99152L11.5885 4.99144Z" fill="#828282"/>
</svg>
