<svg width="43" height="42" viewBox="0 0 43 42" fill="none" xmlns="http://www.w3.org/2000/svg">
<rect width="42.0507" height="42" fill="black" fill-opacity="0" transform="translate(0.949219)"/>
<rect width="42.0507" height="42" fill="black" fill-opacity="0" transform="translate(0.949219)"/>
<rect width="42.0507" height="42" fill="black" fill-opacity="0" transform="translate(0.949219)"/>
<path d="M42.9999 0H0.949219V42H42.9999V0Z" fill="#010E1D"/>
<path d="M10.9841 14.0464C11.0192 13.7 10.887 13.3577 10.628 13.1245L7.99036 9.95088V9.47681H16.1803L22.5107 23.3435L28.0762 9.47681H35.8837V9.95088L33.6285 12.1106C33.4341 12.2586 33.3376 12.5019 33.3779 12.7427V28.611C33.3376 28.8518 33.4341 29.095 33.6285 29.2431L35.831 31.4027V31.8768H24.7528V31.4027L27.0343 29.1904C27.2585 28.9665 27.2585 28.9007 27.2585 28.5583V15.732L20.9149 31.8241H20.0577L12.6722 15.732V26.5171C12.6106 26.9706 12.7614 27.4271 13.0811 27.755L16.0484 31.3501V31.8241H7.63428V31.3501L10.6017 27.755C10.919 27.4265 11.061 26.967 10.9841 26.5171V14.0464Z" fill="white"/>
</svg>
