<svg width="16" height="16" viewBox="0 0 16 16" fill="none" xmlns="http://www.w3.org/2000/svg">
<g clip-path="url(#clip0)">
<path d="M12.2314 6.85864C12.231 6.85568 12.2308 6.85267 12.2304 6.84974C12.2283 6.83511 12.2255 6.82053 12.2215 6.80612C12.2215 6.80597 12.2214 6.80583 12.2214 6.80565C12.2177 6.79218 12.213 6.7789 12.2077 6.76576C12.2062 6.76199 12.2045 6.75837 12.2029 6.75468C12.1987 6.7452 12.194 6.73586 12.1889 6.72666C12.1867 6.72265 12.1846 6.71863 12.1822 6.71468C12.1809 6.71255 12.1799 6.71034 12.1786 6.7082C12.1732 6.6997 12.1674 6.6917 12.1614 6.68377C12.1603 6.68228 12.1594 6.68073 12.1583 6.67928C12.1492 6.66755 12.1395 6.65665 12.1292 6.64634C12.1273 6.64438 12.1252 6.64257 12.1232 6.64069C12.1143 6.63211 12.1051 6.62408 12.0954 6.61651C12.093 6.61459 12.0906 6.61267 12.088 6.61083C12.0752 6.60127 12.0619 6.59237 12.048 6.58466L6.71502 3.55326L9.78558 1.61973L14.9333 4.54576L12.7653 5.91092C12.5961 6.01742 12.5453 6.24095 12.6519 6.4101C12.7584 6.5793 12.9819 6.63008 13.1511 6.52355L15.8307 4.83622C15.9384 4.76841 16.0026 4.64899 15.9997 4.52172C15.9969 4.39444 15.9274 4.2781 15.8167 4.21519L9.95492 0.883229C9.83898 0.817274 9.6961 0.820532 9.58316 0.891591L5.82007 3.2612C5.81931 3.26167 5.81852 3.26218 5.81776 3.26265L3.93733 4.44675C3.93647 4.44729 3.9356 4.44784 3.93476 4.44838L0.169106 6.81962C0.0613786 6.88742 -0.0028019 7.00684 9.40073e-05 7.13412C0.00295372 7.26139 0.0724193 7.37774 0.183115 7.44065L6.04494 10.7726C6.10047 10.8042 6.16215 10.8199 6.2238 10.8199C6.29088 10.8199 6.35784 10.8013 6.41667 10.7642L9.09632 9.07687C9.26552 8.97038 9.3163 8.74685 9.20977 8.57769C9.10331 8.4085 8.87974 8.35767 8.71059 8.46424L6.21428 10.0361L1.06655 7.11005L4.13715 5.17648L9.62743 8.29726V12.4305C9.62743 12.5624 9.69907 12.6837 9.81447 12.7474C9.86902 12.7776 9.92926 12.7925 9.98942 12.7925C10.0565 12.7925 10.1235 12.7739 10.1823 12.7368L12.0651 11.5512C12.1704 11.4849 12.2343 11.3693 12.2343 11.2449V6.90103C12.2343 6.8989 12.2339 6.89687 12.2338 6.89473C12.2336 6.88272 12.2328 6.8707 12.2314 6.85864ZM10.3514 11.7748V8.08669C10.3514 7.95648 10.2815 7.83634 10.1683 7.77201L4.83217 4.73888L6.01996 3.9909L11.1677 6.91696L10.7169 7.20076C10.5478 7.30726 10.497 7.53078 10.6035 7.69994C10.6723 7.80926 10.7899 7.8691 10.9102 7.8691C10.9761 7.8691 11.0428 7.85111 11.1027 7.81339L11.5102 7.55678V11.0451L10.3514 11.7748Z" fill="#B1BAD2"/>
<path d="M15.4455 5.67097L12.7658 7.35831C12.5967 7.46481 12.5459 7.68834 12.6524 7.85749C12.7212 7.96681 12.8388 8.02665 12.9591 8.02665C13.025 8.02665 13.0917 8.00866 13.1516 7.97094L15.8312 6.2836C16.0004 6.1771 16.0512 5.95358 15.9447 5.78442C15.8382 5.61522 15.6147 5.5644 15.4455 5.67097Z" fill="#B1BAD2"/>
<path d="M8.71064 9.91221L6.21433 11.4841L0.540923 8.25927C0.367241 8.16051 0.146138 8.22118 0.0473518 8.39508C-0.0514349 8.56887 0.00934298 8.78987 0.18317 8.88865L6.04499 12.2206C6.10052 12.2522 6.16221 12.2679 6.22385 12.2679C6.29093 12.2679 6.3579 12.2493 6.41672 12.2122L9.09638 10.5249C9.26557 10.4184 9.31636 10.1949 9.20982 10.0257C9.10336 9.85646 8.8798 9.80564 8.71064 9.91221Z" fill="#B1BAD2"/>
<path d="M15.4455 7.1202L12.7658 8.80753C12.5967 8.91403 12.5459 9.13756 12.6524 9.30671C12.7212 9.41603 12.8388 9.47587 12.9591 9.47587C13.025 9.47587 13.0917 9.45788 13.1516 9.42016L15.8312 7.73283C16.0004 7.62633 16.0512 7.4028 15.9447 7.23365C15.8382 7.06442 15.6147 7.01363 15.4455 7.1202Z" fill="#B1BAD2"/>
<path d="M8.71064 11.3595L6.21433 12.9314L0.540923 9.70653C0.367241 9.60778 0.146138 9.66845 0.0473518 9.84235C-0.0514349 10.0161 0.00934298 10.2371 0.18317 10.3359L6.04499 13.6679C6.10052 13.6995 6.16221 13.7152 6.22385 13.7152C6.29093 13.7152 6.3579 13.6966 6.41672 13.6595L9.09638 11.9721C9.26557 11.8657 9.31636 11.6421 9.20982 11.473C9.10336 11.3037 8.8798 11.2529 8.71064 11.3595Z" fill="#B1BAD2"/>
<path d="M15.4455 8.56744L12.7658 10.2548C12.5967 10.3613 12.5459 10.5848 12.6524 10.754C12.7212 10.8633 12.8388 10.9231 12.9591 10.9231C13.025 10.9231 13.0917 10.9051 13.1516 10.8674L15.8312 9.18007C16.0004 9.07357 16.0512 8.85004 15.9447 8.68089C15.8382 8.51169 15.6147 8.46091 15.4455 8.56744Z" fill="#B1BAD2"/>
<path d="M8.71064 12.8077L6.21433 14.3796L0.540923 11.1548C0.367241 11.056 0.146138 11.1167 0.0473518 11.2906C-0.0514349 11.4644 0.00934298 11.6854 0.18317 11.7842L6.04499 15.1161C6.10052 15.1477 6.16221 15.1634 6.22385 15.1634C6.29093 15.1634 6.3579 15.1448 6.41672 15.1078L9.09638 13.4204C9.26557 13.3139 9.31636 13.0904 9.20982 12.9212C9.10336 12.752 8.8798 12.7012 8.71064 12.8077Z" fill="#B1BAD2"/>
</g>
<defs>
<clipPath id="clip0">
<rect width="16" height="16" fill="white"/>
</clipPath>
</defs>
</svg>
