<svg width="31" height="57" viewBox="0 0 31 57" fill="none" xmlns="http://www.w3.org/2000/svg">
<path fill-rule="evenodd" clip-rule="evenodd" d="M29.8247 13.5552V4.39966C29.8247 1.97339 27.8489 0 25.4214 0H4.40332C1.9751 0 0 1.97339 0 4.39966V9.67932C0 10.1656 0.394043 10.5592 0.880615 10.5592H28.0632V42.6277C28.0632 43.1134 28.4578 43.5076 28.9438 43.5076C29.4302 43.5076 29.8247 43.1134 29.8247 42.6277V20.2791C30.4944 20.1436 31 19.5504 31 18.8418V14.9918C31 14.2837 30.4944 13.6907 29.8247 13.5552ZM15.499 20.6937C15.0125 20.6937 14.6184 21.0874 14.6184 21.5736V33.302L10.3665 29.0531C10.0225 28.7094 9.46533 28.7094 9.12134 29.0531C8.77734 29.3969 8.77734 29.9536 9.12134 30.2974L14.8704 36.0427C14.9536 36.1278 15.054 36.1959 15.1663 36.2416C15.2759 36.2838 15.3845 36.3074 15.499 36.3074C15.613 36.3068 15.7192 36.2838 15.8179 36.2457C15.9419 36.1964 16.0369 36.1326 16.1167 36.0533L21.8792 30.2986C22.2231 29.9548 22.2231 29.3981 21.8792 29.0543C21.5352 28.7106 20.978 28.7106 20.634 29.0543L16.3796 33.3044V21.5736C16.3796 21.0879 15.9851 20.6937 15.499 20.6937ZM1.76123 8.79944H28.0632V4.39966C28.0632 2.94434 26.8772 1.75989 25.4211 1.75989H4.40332C2.94653 1.75989 1.76123 2.94434 1.76123 4.39966V8.79944ZM14.9126 54.1549C16.2625 54.1549 17.3604 53.0574 17.3604 51.7086C17.3604 50.36 16.2625 49.2625 14.9126 49.2625C13.5627 49.2625 12.4644 50.36 12.4644 51.7086C12.4644 53.0574 13.5623 54.1549 14.9126 54.1549ZM15.5994 51.7092C15.5994 51.3302 15.2913 51.0228 14.9126 51.0228C14.5339 51.0228 14.2256 51.3302 14.2256 51.7092C14.2256 52.0881 14.5339 52.3955 14.9126 52.3955C15.2913 52.3955 15.5994 52.0881 15.5994 51.7092ZM28.9438 46.4408H1.76123V14.3723C1.76123 13.8861 1.36743 13.4924 0.880615 13.4924C0.394043 13.4924 0 13.8861 0 14.3723V52.6003C0 55.0266 1.9751 57 4.40332 57H25.4214C27.8489 57 29.8247 55.0266 29.8247 52.6003V47.3208C29.8247 46.835 29.4307 46.4408 28.9438 46.4408ZM25.4211 55.2402C26.8772 55.2402 28.0632 54.0558 28.0632 52.6003V48.2007H1.76123V52.6003C1.76123 54.0558 2.94653 55.2402 4.40332 55.2402H25.4211Z" fill="#409FFF"/>
</svg>
