<svg width="12" height="12" viewBox="0 0 12 12" fill="none" xmlns="http://www.w3.org/2000/svg">
<rect width="11.3887" height="12" fill="black" fill-opacity="0"/>
<rect width="11.3887" height="12" fill="black" fill-opacity="0"/>
<path d="M11.3801 6.16956C11.3736 6.05435 11.3671 5.94567 11.358 5.83701C11.2418 4.46046 10.6869 3.26165 9.70984 2.27355H9.71034C9.55589 2.11356 9.32647 2.05067 9.11166 2.10854C8.89382 2.16136 8.72074 2.32738 8.65887 2.54322C8.58441 2.79729 8.64378 3.00104 8.8571 3.22442C9.82707 4.24218 10.2366 5.46118 10.0736 6.84674H10.0731C9.92619 8.06928 9.27266 9.17353 8.27101 9.89052C7.25575 10.6165 5.98196 10.8821 4.76138 10.6225C2.4713 10.134 0.961968 7.93899 1.3262 5.62727C1.47209 4.70257 1.88866 3.87748 2.56584 3.17414C2.68809 3.05138 2.75601 2.88385 2.75349 2.71027C2.74795 2.53973 2.674 2.37823 2.54822 2.26251C2.43301 2.15183 2.28007 2.08944 2.12058 2.08843C1.93846 2.09045 1.7654 2.16792 1.64264 2.30174C0.280264 3.7356 -0.238388 5.43104 0.100597 7.34182C0.365229 8.83094 1.20239 10.128 2.45816 10.9929C3.72095 11.8627 5.24075 12.1842 6.73656 11.8984C9.45333 11.3782 11.3651 9.08404 11.3887 6.31704C11.3862 6.26773 11.3832 6.21843 11.3802 6.16963L11.3801 6.16956Z" fill="#4F4F4F"/>
<path d="M5.05632 3.1571H5.06537V3.58725C5.06537 3.88207 5.06085 4.17688 5.06034 4.4717C5.06034 5.16095 5.05632 5.87581 5.06034 6.57567C5.06236 6.90269 5.34912 7.18241 5.68922 7.18241C6.03183 7.18241 6.32212 6.90368 6.32313 6.57869C6.32816 4.70912 6.32615 2.80748 6.32464 0.969079V0.601309C6.32464 0.453402 6.26829 0.321582 6.15258 0.198828H6.15208C5.97549 0.0111759 5.70281 -0.0502071 5.46232 0.0428721C5.21732 0.133933 5.05531 0.368875 5.05733 0.630493C5.05532 1.33081 5.05532 2.04774 5.05633 2.73653V3.15712L5.05632 3.1571Z" fill="#4F4F4F"/>
</svg>
