<svg width="12" height="12" viewBox="0 0 12 12" fill="none" xmlns="http://www.w3.org/2000/svg">
<path d="M11.991 6.16956C11.9841 6.05435 11.9772 5.94567 11.9676 5.83701C11.8452 4.46046 11.2605 3.26165 10.231 2.27355H10.2315C10.0688 2.11356 9.82707 2.05067 9.60072 2.10854C9.37119 2.16136 9.18883 2.32738 9.12363 2.54322C9.04518 2.79729 9.10773 3.00104 9.3325 3.22442C10.3545 4.24218 10.7861 5.46118 10.6143 6.84674H10.6138C10.459 8.06928 9.77037 9.17353 8.71495 9.89052C7.6452 10.6165 6.30304 10.8821 5.01695 10.6225C2.60395 10.134 1.0136 7.93899 1.39738 5.62727C1.55111 4.70257 1.99004 3.87748 2.70356 3.17414C2.83237 3.05138 2.90394 2.88385 2.90128 2.71027C2.89545 2.53973 2.81752 2.37823 2.68499 2.26251C2.5636 2.15183 2.40245 2.08944 2.2344 2.08843C2.0425 2.09045 1.86015 2.16792 1.73081 2.30174C0.295307 3.7356 -0.251184 5.43104 0.105996 7.34182C0.384832 8.83094 1.26693 10.128 2.59011 10.9929C3.92067 11.8627 5.52205 12.1842 7.09814 11.8984C9.96074 11.3782 11.9752 9.08404 12 6.31704C11.9973 6.26773 11.9942 6.21843 11.991 6.16963L11.991 6.16956Z" fill="white"/>
<path d="M5.32759 3.1571H5.33714V3.58725C5.33714 3.88207 5.33236 4.17688 5.33183 4.4717C5.33183 5.16095 5.32759 5.87581 5.33183 6.57567C5.33396 6.90269 5.63612 7.18241 5.99446 7.18241C6.35547 7.18241 6.66134 6.90368 6.6624 6.57869C6.6677 4.70912 6.66558 2.80748 6.66399 0.969079V0.601309C6.66399 0.453402 6.60462 0.321582 6.4827 0.198828H6.48217C6.2961 0.0111759 6.00878 -0.0502071 5.75539 0.0428721C5.49724 0.133933 5.32653 0.368875 5.32866 0.630493C5.32654 1.33081 5.32654 2.04774 5.3276 2.73653V3.15712L5.32759 3.1571Z" fill="white"/>
</svg>
