<?xml version="1.0" encoding="UTF-8" standalone="no"?>
<svg width="36px" height="40px" viewBox="0 0 36 40" version="1.1" xmlns="http://www.w3.org/2000/svg" xmlns:xlink="http://www.w3.org/1999/xlink">
    <!-- Generator: Sketch 49.3 (51167) - http://www.bohemiancoding.com/sketch -->
    <title>Group 2</title>
    <desc>Created with Sketch.</desc>
    <defs></defs>
    <g id="Page-1" stroke="none" stroke-width="1" fill="none" fill-rule="evenodd">
        <g id="Group-2">
            <g id="pdf" fill-rule="nonzero">
                <path d="M8,0 C6.625,0 5.5,1.125 5.5,2.5 L5.5,37.5 C5.5,38.875 6.625,40 8,40 L33,40 C34.375,40 35.5,38.875 35.5,37.5 L35.5,10 L25.5,0 L8,0 Z" id="Shape" fill="#E2E5E7"></path>
                <path d="M28,10 L35.5,10 L25.5,0 L25.5,7.5 C25.5,8.875 26.625,10 28,10 Z" id="Shape" fill="#B0B7BD"></path>
                <polygon id="Shape" fill="#CAD1D8" points="35.5 17.5 28 10 35.5 10"></polygon>
                <path d="M30.5,32.5 C30.5,33.1875 29.9375,33.75 29.25,33.75 L1.75,33.75 C1.0625,33.75 0.5,33.1875 0.5,32.5 L0.5,20 C0.5,19.3125 1.0625,18.75 1.75,18.75 L29.25,18.75 C29.9375,18.75 30.5,19.3125 30.5,20 L30.5,32.5 Z" id="Shape" fill="#50E3C2"></path>
                <path d="M29.25,33.75 L5.5,33.75 L5.5,35 L29.25,35 C29.9375,35 30.5,34.4375 30.5,33.75 L30.5,32.5 C30.5,33.1875 29.9375,33.75 29.25,33.75 Z" id="Shape" fill="#CAD1D8"></path>
            </g>
            <text id="DOC" font-family="SofiaPro-Bold, Sofia Pro" font-size="7" font-weight="bold" letter-spacing="0.0524999946" fill="#FFFFFF">
                <tspan x="9" y="29">DOC</tspan>
            </text>
        </g>
    </g>
</svg>