<?xml version="1.0" encoding="UTF-8" standalone="no"?>
<svg width="116px" height="116px" viewBox="0 0 116 116" version="1.1" xmlns="http://www.w3.org/2000/svg" xmlns:xlink="http://www.w3.org/1999/xlink">
    <!-- Generator: Sketch 49.3 (51167) - http://www.bohemiancoding.com/sketch -->
    <title>Group</title>
    <desc>Created with Sketch.</desc>
    <defs></defs>
    <g id="Page-1" stroke="none" stroke-width="1" fill="none" fill-rule="evenodd" fill-opacity="0.97">
        <g id="Group" fill="#F2994A" fill-rule="nonzero">
            <path d="M61.3219,3.0014 C61.3219,1.343772 59.97812,0 58.3205,0 C56.662872,0 55.3191,1.343772 55.3191,3.0014 L55.3191,17.92728 C55.3191,19.5849 56.662872,20.9286 58.3205,20.9286 C59.97812,20.9286 61.3219,19.5849 61.3219,17.92728 L61.3219,3.0014 Z" id="Shape"></path>
            <path d="M60.598,98.0727 C60.598,96.415072 59.25422,95.0713 57.5966,95.0713 C55.938972,95.0713 54.5952,96.415072 54.5952,98.0727 L54.5952,112.99858 C54.5952,114.6562 55.938972,115.9999 57.5966,115.9999 C59.25422,115.9999 60.598,114.6562 60.598,112.99858 L60.598,98.0727 Z" id="Shape"></path>
            <path d="M73.5676696,4.72097711 C73.5676696,3.06334911 72.2238896,1.71957711 70.5662696,1.71957711 C68.9086416,1.71957711 67.5648696,3.06334911 67.5648696,4.72097711 L67.5648696,19.6468571 C67.5648696,21.3044771 68.9086416,22.6481771 70.5662696,22.6481771 C72.2238896,22.6481771 73.5676696,21.3044771 73.5676696,19.6468571 L73.5676696,4.72097711 Z" id="Shape" transform="translate(70.566270, 12.183877) rotate(15.000000) translate(-70.566270, -12.183877) "></path>
            <path d="M49.0026899,4.55795814 C49.0026899,2.90033014 47.6589099,1.55655814 46.0012899,1.55655814 C44.3436619,1.55655814 42.9998899,2.90033014 42.9998899,4.55795814 L42.9998899,19.4838381 C42.9998899,21.1414581 44.3436619,22.4851581 46.0012899,22.4851581 C47.6589099,22.4851581 49.0026899,21.1414581 49.0026899,19.4838381 L49.0026899,4.55795814 Z" id="Shape" transform="translate(46.001290, 12.020858) rotate(-15.000000) translate(-46.001290, -12.020858) "></path>
            <path d="M85.0538386,9.50639963 C85.0538386,7.84877163 83.7100586,6.50499963 82.0524386,6.50499963 C80.3948106,6.50499963 79.0510386,7.84877163 79.0510386,9.50639963 L79.0510386,24.4322796 C79.0510386,26.0898996 80.3948106,27.4335996 82.0524386,27.4335996 C83.7100586,27.4335996 85.0538386,26.0898996 85.0538386,24.4322796 L85.0538386,9.50639963 Z" id="Shape" transform="translate(82.052439, 16.969300) rotate(30.000000) translate(-82.052439, -16.969300) "></path>
            <path d="M37.5181386,9.18614963 C37.5181386,7.52852163 36.1743586,6.18474963 34.5167386,6.18474963 C32.8591106,6.18474963 31.5153386,7.52852163 31.5153386,9.18614963 L31.5153386,24.1120296 C31.5153386,25.7696496 32.8591106,27.1133496 34.5167386,27.1133496 C36.1743586,27.1133496 37.5181386,25.7696496 37.5181386,24.1120296 L37.5181386,9.18614963 Z" id="Shape" transform="translate(34.516739, 16.649050) rotate(-30.000000) translate(-34.516739, -16.649050) "></path>
            <path d="M94.8139328,17.0780878 C94.8139328,15.4204598 93.4701528,14.0766878 91.8125328,14.0766878 C90.1549048,14.0766878 88.8111328,15.4204598 88.8111328,17.0780878 L88.8111328,32.0039678 C88.8111328,33.6615878 90.1549048,35.0052878 91.8125328,35.0052878 C93.4701528,35.0052878 94.8139328,33.6615878 94.8139328,32.0039678 L94.8139328,17.0780878 Z" id="Shape" transform="translate(91.812533, 24.540988) rotate(45.000000) translate(-91.812533, -24.540988) "></path>
            <path d="M27.6138878,16.6566672 C27.6138878,14.9990392 26.2701078,13.6552672 24.6124878,13.6552672 C22.9548598,13.6552672 21.6110878,14.9990392 21.6110878,16.6566672 L21.6110878,31.5825472 C21.6110878,33.2401672 22.9548598,34.5838672 24.6124878,34.5838672 C26.2701078,34.5838672 27.6138878,33.2401672 27.6138878,31.5825472 L27.6138878,16.6566672 Z" id="Shape" transform="translate(24.612488, 24.119567) rotate(-45.000000) translate(-24.612488, -24.119567) "></path>
            <path d="M102.38275,26.9598386 C102.38275,25.3022106 101.03897,23.9584386 99.3813504,23.9584386 C97.7237224,23.9584386 96.3799504,25.3022106 96.3799504,26.9598386 L96.3799504,41.8857186 C96.3799504,43.5433386 97.7237224,44.8870386 99.3813504,44.8870386 C101.03897,44.8870386 102.38275,43.5433386 102.38275,41.8857186 L102.38275,26.9598386 Z" id="Shape" transform="translate(99.381350, 34.422739) rotate(60.000000) translate(-99.381350, -34.422739) "></path>
            <path d="M19.8142096,26.4902614 C19.8142096,24.8326334 18.4704296,23.4888614 16.8128096,23.4888614 C15.1551816,23.4888614 13.8114096,24.8326334 13.8114096,26.4902614 L13.8114096,41.4161414 C13.8114096,43.0737614 15.1551816,44.4174614 16.8128096,44.4174614 C18.4704296,44.4174614 19.8142096,43.0737614 19.8142096,41.4161414 L19.8142096,26.4902614 Z" id="Shape" transform="translate(16.812810, 33.953161) rotate(-60.000000) translate(-16.812810, -33.953161) "></path>
            <path d="M107.092482,38.5039899 C107.092482,36.8463619 105.748702,35.5025899 104.091082,35.5025899 C102.433454,35.5025899 101.089682,36.8463619 101.089682,38.5039899 L101.089682,53.4298699 C101.089682,55.0874899 102.433454,56.4311899 104.091082,56.4311899 C105.748702,56.4311899 107.092482,55.0874899 107.092482,53.4298699 L107.092482,38.5039899 Z" id="Shape" transform="translate(104.091082, 45.966890) rotate(75.000000) translate(-104.091082, -45.966890) "></path>
            <path d="M15.1857571,37.8912304 C15.1857571,36.2336024 13.8419771,34.8898304 12.1843571,34.8898304 C10.5267291,34.8898304 9.18295711,36.2336024 9.18295711,37.8912304 L9.18295711,52.8171104 C9.18295711,54.4747304 10.5267291,55.8184304 12.1843571,55.8184304 C13.8419771,55.8184304 15.1857571,54.4747304 15.1857571,52.8171104 L15.1857571,37.8912304 Z" id="Shape" transform="translate(12.184357, 45.354130) rotate(-75.000000) translate(-12.184357, -45.354130) "></path>
            <path d="M108.5371,50.8576 C108.5371,49.199972 107.19332,47.8562 105.5357,47.8562 C103.878072,47.8562 102.5343,49.199972 102.5343,50.8576 L102.5343,65.78348 C102.5343,67.4411 103.878072,68.7848 105.5357,68.7848 C107.19332,68.7848 108.5371,67.4411 108.5371,65.78348 L108.5371,50.8576 Z" id="Shape" transform="translate(105.535700, 58.320500) rotate(90.000000) translate(-105.535700, -58.320500) "></path>
            <path d="M13.4658,50.216 C13.4658,48.558372 12.12202,47.2146 10.4644,47.2146 C8.806772,47.2146 7.463,48.558372 7.463,50.216 L7.463,65.14188 C7.463,66.7995 8.806772,68.1432 10.4644,68.1432 C12.12202,68.1432 13.4658,66.7995 13.4658,65.14188 L13.4658,50.216 Z" id="Shape" transform="translate(10.464400, 57.678900) rotate(90.000000) translate(-10.464400, -57.678900) "></path>
            <path d="M106.847843,63.1138696 C106.847843,61.4562416 105.504063,60.1124696 103.846443,60.1124696 C102.188815,60.1124696 100.845043,61.4562416 100.845043,63.1138696 L100.845043,78.0397496 C100.845043,79.6973696 102.188815,81.0410696 103.846443,81.0410696 C105.504063,81.0410696 106.847843,79.6973696 106.847843,78.0397496 L106.847843,63.1138696 Z" id="Shape" transform="translate(103.846443, 70.576770) rotate(105.000000) translate(-103.846443, -70.576770) "></path>
            <path d="M14.9392481,62.5512101 C14.9392481,60.8935821 13.5954681,59.5498101 11.9378481,59.5498101 C10.2802201,59.5498101 8.93644814,60.8935821 8.93644814,62.5512101 L8.93644814,77.4770901 C8.93644814,79.1347101 10.2802201,80.4784101 11.9378481,80.4784101 C13.5954681,80.4784101 14.9392481,79.1347101 14.9392481,77.4770901 L14.9392481,62.5512101 Z" id="Shape" transform="translate(11.937848, 70.014110) rotate(-105.000000) translate(-11.937848, -70.014110) "></path>
            <path d="M102.06535,74.5895386 C102.06535,72.9319106 100.72157,71.5881386 99.0639504,71.5881386 C97.4063224,71.5881386 96.0625504,72.9319106 96.0625504,74.5895386 L96.0625504,89.5154186 C96.0625504,91.1730386 97.4063224,92.5167386 99.0639504,92.5167386 C100.72157,92.5167386 102.06535,91.1730386 102.06535,89.5154186 L102.06535,74.5895386 Z" id="Shape" transform="translate(99.063950, 82.052439) rotate(120.000000) translate(-99.063950, -82.052439) "></path>
            <path d="M19.6504496,74.0264614 C19.6504496,72.3688334 18.3066696,71.0250614 16.6490496,71.0250614 C14.9914216,71.0250614 13.6476496,72.3688334 13.6476496,74.0264614 L13.6476496,88.9523414 C13.6476496,90.6099614 14.9914216,91.9536614 16.6490496,91.9536614 C18.3066696,91.9536614 19.6504496,90.6099614 19.6504496,88.9523414 L19.6504496,74.0264614 Z" id="Shape" transform="translate(16.649050, 81.489361) rotate(-120.000000) translate(-16.649050, -81.489361) "></path>
            <path d="M94.4637122,84.3733328 C94.4637122,82.7157048 93.1199322,81.3719328 91.4623122,81.3719328 C89.8046842,81.3719328 88.4609122,82.7157048 88.4609122,84.3733328 L88.4609122,99.2992128 C88.4609122,100.956833 89.8046842,102.300533 91.4623122,102.300533 C93.1199322,102.300533 94.4637122,100.956833 94.4637122,99.2992128 L94.4637122,84.3733328 Z" id="Shape" transform="translate(91.462312, 91.836233) rotate(135.000000) translate(-91.462312, -91.836233) "></path>
            <path d="M27.1209672,83.9114122 C27.1209672,82.2537842 25.7771872,80.9100122 24.1195672,80.9100122 C22.4619392,80.9100122 21.1181672,82.2537842 21.1181672,83.9114122 L21.1181672,98.8372922 C21.1181672,100.494912 22.4619392,101.838612 24.1195672,101.838612 C25.7771872,101.838612 27.1209672,100.494912 27.1209672,98.8372922 L27.1209672,83.9114122 Z" id="Shape" transform="translate(24.119567, 91.374312) rotate(-135.000000) translate(-24.119567, -91.374312) "></path>
            <path d="M84.4863614,91.7934504 C84.4863614,90.1358224 83.1425814,88.7920504 81.4849614,88.7920504 C79.8273334,88.7920504 78.4835614,90.1358224 78.4835614,91.7934504 L78.4835614,106.71933 C78.4835614,108.37695 79.8273334,109.72065 81.4849614,109.72065 C83.1425814,109.72065 84.4863614,108.37695 84.4863614,106.71933 L84.4863614,91.7934504 Z" id="Shape" transform="translate(81.484961, 99.256350) rotate(150.000000) translate(-81.484961, -99.256350) "></path>
            <path d="M36.9545614,91.6830504 C36.9545614,90.0254224 35.6107814,88.6816504 33.9531614,88.6816504 C32.2955334,88.6816504 30.9517614,90.0254224 30.9517614,91.6830504 L30.9517614,106.60893 C30.9517614,108.26655 32.2955334,109.61025 33.9531614,109.61025 C35.6107814,109.61025 36.9545614,108.26655 36.9545614,106.60893 L36.9545614,91.6830504 Z" id="Shape" transform="translate(33.953161, 99.145950) rotate(-150.000000) translate(-33.953161, -99.145950) "></path>
            <path d="M73.0155101,96.5451819 C73.0155101,94.8875539 71.6717301,93.5437819 70.0141101,93.5437819 C68.3564821,93.5437819 67.0127101,94.8875539 67.0127101,96.5451819 L67.0127101,111.471062 C67.0127101,113.128682 68.3564821,114.472382 70.0141101,114.472382 C71.6717301,114.472382 73.0155101,113.128682 73.0155101,111.471062 L73.0155101,96.5451819 Z" id="Shape" transform="translate(70.014110, 104.008082) rotate(165.000000) translate(-70.014110, -104.008082) "></path>
            <path d="M48.6143494,94.7854399 C48.6143494,92.969404 47.2705694,91.4972171 45.6129494,91.4972171 C43.9553214,91.4972171 42.6115494,92.969404 42.6115494,94.7854399 L42.6115494,111.137682 C42.6115494,112.953709 43.9553214,114.425817 45.6129494,114.425817 C47.2705694,114.425817 48.6143494,112.953709 48.6143494,111.137682 L48.6143494,94.7854399 Z" id="Shape" transform="translate(45.612949, 102.961517) rotate(-165.000000) translate(-45.612949, -102.961517) "></path>
        </g>
    </g>
</svg>