<svg width="29" height="28" viewBox="0 0 29 28" fill="none" xmlns="http://www.w3.org/2000/svg">
<rect width="28.0328" height="28" fill="black" fill-opacity="0"/>
<path d="M14.82 0.724475C14.82 0.324359 14.4953 0 14.0947 0C13.6941 0 13.3694 0.324359 13.3694 0.724475V4.32727C13.3694 4.72739 13.6941 5.05175 14.0947 5.05175C14.4953 5.05175 14.82 4.72739 14.82 4.32727V0.724475Z" fill="white"/>
<path d="M14.6438 23.6727C14.6438 23.2726 14.319 22.9482 13.9184 22.9482C13.5179 22.9482 13.1931 23.2726 13.1931 23.6727V27.2755C13.1931 27.6756 13.5179 28 13.9184 28C14.319 28 14.6438 27.6756 14.6438 27.2755V23.6727Z" fill="white"/>
<path d="M18.2203 1.38804C18.324 1.00156 18.0944 0.604298 17.7074 0.500741C17.3205 0.397183 16.9228 0.626539 16.8191 1.01302L15.8855 4.49306C15.7819 4.87954 16.0115 5.2768 16.3984 5.38035C16.7854 5.48391 17.1831 5.25456 17.2868 4.86807L18.2203 1.38804Z" fill="white"/>
<path d="M11.3514 0.973882C11.2477 0.587399 10.85 0.358043 10.4631 0.461601C10.0761 0.565159 9.8465 0.962415 9.95018 1.3489L10.8837 4.82893C10.9874 5.21542 11.3851 5.44477 11.7721 5.34121C12.159 5.23766 12.3886 4.8404 12.285 4.45392L11.3514 0.973882Z" fill="white"/>
<path d="M21.3595 2.8987C21.5597 2.55219 21.4409 2.10911 21.094 1.90905C20.7471 1.70899 20.3035 1.82772 20.1032 2.17423L18.2996 5.29434C18.0994 5.64085 18.2182 6.08394 18.5651 6.28399C18.9121 6.48405 19.3557 6.36533 19.5559 6.01882L21.3595 2.8987Z" fill="white"/>
<path d="M8.06842 2.09599C7.86813 1.74948 7.42453 1.63076 7.07761 1.83082C6.73069 2.03087 6.61183 2.47396 6.81212 2.82047L8.61563 5.94058C8.81593 6.28709 9.25953 6.40582 9.60645 6.20576C9.95336 6.0057 10.0722 5.56262 9.87193 5.21611L8.06842 2.09599Z" fill="white"/>
<path d="M23.9765 5.16319C24.2598 4.88026 24.2598 4.42155 23.9765 4.13862C23.6932 3.8557 23.234 3.8557 22.9507 4.13862L20.4002 6.68619C20.1169 6.96911 20.1169 7.42782 20.4002 7.71075C20.6835 7.99367 21.1427 7.99368 21.426 7.71075L23.9765 5.16319Z" fill="white"/>
<path d="M5.18489 4.03679C4.90163 3.75387 4.44238 3.75387 4.15912 4.03679C3.87587 4.31972 3.87587 4.77843 4.15912 5.06135L6.70967 7.60892C6.99292 7.89184 7.45217 7.89184 7.73543 7.60892C8.01869 7.32599 8.01869 6.86728 7.73543 6.58435L5.18489 4.03679Z" fill="white"/>
<path d="M25.9421 8.0354C26.2891 7.83534 26.4079 7.39226 26.2076 7.04575C26.0073 6.69924 25.5637 6.58051 25.2168 6.78057L22.0931 8.58197C21.7461 8.78203 21.6273 9.22511 21.8276 9.57162C22.0279 9.91813 22.4715 10.0369 22.8184 9.8368L25.9421 8.0354Z" fill="white"/>
<path d="M2.86299 6.66716C2.51608 6.4671 2.07248 6.58583 1.87218 6.93234C1.67189 7.27885 1.79075 7.72193 2.13767 7.92199L5.26144 9.72339C5.60836 9.92345 6.05196 9.80472 6.25225 9.45821C6.45254 9.1117 6.33368 8.66862 5.98676 8.46856L2.86299 6.66716Z" fill="white"/>
<path d="M27.0845 11.3294C27.4715 11.2258 27.7011 10.8286 27.5974 10.4421C27.4937 10.0556 27.096 9.82626 26.7091 9.92982L23.2249 10.8623C22.838 10.9658 22.6084 11.3631 22.7121 11.7496C22.8157 12.1361 23.2135 12.3654 23.6004 12.2619L27.0845 11.3294Z" fill="white"/>
<path d="M1.38979 9.78195C1.00285 9.67839 0.605128 9.90775 0.501448 10.2942C0.397769 10.6807 0.627394 11.078 1.01433 11.1815L4.49844 12.114C4.88538 12.2176 5.2831 11.9882 5.38678 11.6017C5.49046 11.2152 5.26083 10.818 4.8739 10.7144L1.38979 9.78195Z" fill="white"/>
<path d="M27.3074 14.8028C27.708 14.8028 28.0327 14.4784 28.0327 14.0783C28.0327 13.6782 27.708 13.3538 27.3074 13.3538H23.7004C23.2998 13.3538 22.975 13.6782 22.975 14.0783C22.975 14.4784 23.2998 14.8028 23.7004 14.8028H27.3074Z" fill="white"/>
<path d="M4.33229 14.6462C4.73288 14.6462 5.05762 14.3218 5.05762 13.9217C5.05762 13.5216 4.73288 13.1972 4.33229 13.1972H0.725276C0.32469 13.1972 -4.86374e-05 13.5216 -4.86374e-05 13.9217C-4.86374e-05 14.3218 0.32469 14.6462 0.725276 14.6462H4.33229Z" fill="white"/>
<path d="M26.6505 18.2029C27.0374 18.3064 27.4352 18.0771 27.5388 17.6906C27.6425 17.3041 27.4129 16.9068 27.026 16.8033L23.5418 15.8708C23.1549 15.7672 22.7572 15.9966 22.6535 16.3831C22.5498 16.7696 22.7795 17.1668 23.1664 17.2704L26.6505 18.2029Z" fill="white"/>
<path d="M0.955525 16.6668C0.568589 16.7704 0.338964 17.1676 0.442643 17.5541C0.546323 17.9406 0.944045 18.17 1.33098 18.0664L4.81509 17.1339C5.20203 17.0304 5.43165 16.6331 5.32797 16.2466C5.22429 15.8601 4.82657 15.6308 4.43964 15.7343L0.955525 16.6668Z" fill="white"/>
<path d="M25.1392 21.3346C25.4861 21.5347 25.9297 21.4159 26.13 21.0694C26.3303 20.7229 26.2114 20.2798 25.8645 20.0798L22.7408 18.2784C22.3938 18.0783 21.9502 18.197 21.7499 18.5436C21.5497 18.8901 21.6685 19.3332 22.0154 19.5332L25.1392 21.3346Z" fill="white"/>
<path d="M2.09838 19.9427C1.75146 20.1428 1.6326 20.5859 1.83289 20.9324C2.03319 21.2789 2.47679 21.3976 2.82371 21.1976L5.94747 19.3962C6.29439 19.1961 6.41325 18.753 6.21296 18.4065C6.01267 18.06 5.56907 17.9413 5.22215 18.1413L2.09838 19.9427Z" fill="white"/>
<path d="M22.8649 23.9537C23.1482 24.2367 23.6074 24.2367 23.8907 23.9537C24.1739 23.6708 24.1739 23.2121 23.8907 22.9292L21.3401 20.3816C21.0569 20.0987 20.5976 20.0987 20.3144 20.3816C20.0311 20.6645 20.0311 21.1233 20.3144 21.4062L22.8649 23.9537Z" fill="white"/>
<path d="M4.04156 22.8165C3.7583 23.0995 3.7583 23.5582 4.04156 23.8411C4.32482 24.124 4.78407 24.124 5.06732 23.8411L7.61787 21.2935C7.90113 21.0106 7.90113 20.5519 7.61787 20.269C7.33461 19.9861 6.87536 19.9861 6.59211 20.269L4.04156 22.8165Z" fill="white"/>
<path d="M19.965 25.8803C20.1653 26.2268 20.6089 26.3456 20.9558 26.1455C21.3028 25.9454 21.4216 25.5024 21.2213 25.1559L19.4178 22.0357C19.2175 21.6892 18.7739 21.5705 18.427 21.7706C18.0801 21.9706 17.9612 22.4137 18.1615 22.7602L19.965 25.8803Z" fill="white"/>
<path d="M6.67497 25.1293C6.47467 25.4758 6.59354 25.9189 6.94045 26.119C7.28737 26.319 7.73097 26.2003 7.93127 25.8538L9.73477 22.7337C9.93507 22.3872 9.8162 21.9441 9.46929 21.744C9.12237 21.544 8.67877 21.6627 8.47848 22.0092L6.67497 25.1293Z" fill="white"/>
<path d="M16.6864 27.0331C16.7901 27.4196 17.1878 27.649 17.5748 27.5454C17.9617 27.4419 18.1913 27.0446 18.0877 26.6581L17.1541 23.1781C17.0504 22.7916 16.6527 22.5622 16.2658 22.6658C15.8788 22.7694 15.6492 23.1666 15.7529 23.5531L16.6864 27.0331Z" fill="white"/>
<path d="M9.79334 26.6386C9.68967 27.0251 9.91929 27.4223 10.3062 27.5259C10.6932 27.6294 11.0909 27.4001 11.1946 27.0136L12.1281 23.5336C12.2318 23.1471 12.0022 22.7498 11.6152 22.6463C11.2283 22.5427 10.8306 22.7721 10.7269 23.1585L9.79334 26.6386Z" fill="white"/>
</svg>
