<svg width="12" height="12" viewBox="0 0 12 12" fill="none" xmlns="http://www.w3.org/2000/svg">
<path d="M6 7.74395e-08C5.92617 7.74395e-08 5.89336 0.00546891 5.90088 0.00546891V0.00615234C5.68281 0.00820302 5.49277 0.153811 5.43329 0.363683C5.34989 0.667207 5.24187 0.966619 5.11951 1.17239C4.99783 1.37815 4.88161 1.46497 4.82283 1.48069C4.76404 1.49573 4.62185 1.47522 4.41609 1.35422C4.21032 1.23322 3.97106 1.0295 3.75094 0.803926V0.803242C3.59918 0.64533 3.36128 0.607047 3.16783 0.709588C2.61753 1.0049 2.11508 1.38431 1.68304 1.83139V1.83207C1.53196 1.98862 1.50326 2.22583 1.61126 2.4145C1.7678 2.68794 1.89768 2.97573 1.95785 3.20679C2.01801 3.43716 1.99408 3.57867 1.96332 3.62994C1.93256 3.68258 1.82523 3.76735 1.59485 3.82819C1.36448 3.88903 1.04524 3.91364 0.731458 3.9109C0.512705 3.90954 0.319922 4.05309 0.258409 4.26296C0.0916103 4.81257 -2.55817e-08 5.39431 -2.55817e-08 6.00068C-2.55817e-08 6.07383 0.0054688 6.11006 0.0054688 6.10527C0.00751949 6.32334 0.153127 6.51338 0.362999 6.57286C0.666524 6.65558 0.966618 6.76633 1.1717 6.88664C1.37679 7.00696 1.4595 7.12043 1.47386 7.17786C1.4889 7.23597 1.46839 7.37338 1.3474 7.57914C1.2264 7.78491 1.02268 8.02964 0.7971 8.25044V8.24975C0.641922 8.40083 0.604317 8.6353 0.703445 8.8274C0.998762 9.37974 1.37817 9.87946 1.82525 10.3122H1.82593C1.98111 10.4646 2.219 10.4961 2.40836 10.3894C2.68248 10.2329 2.97302 10.0975 3.20612 10.0374C3.43854 9.97723 3.578 10.0018 3.62928 10.0319C3.68123 10.0627 3.77284 10.1748 3.833 10.4058C3.89316 10.6369 3.91435 10.9548 3.91025 11.2692C3.9082 11.4859 4.04902 11.6787 4.25684 11.7423C4.80645 11.9091 5.39368 12.0007 6.00002 12.0007C6.0759 12.0007 6.1012 11.9952 6.08274 11.9952C6.30013 11.9932 6.49085 11.8476 6.54965 11.6377C6.63373 11.3342 6.74584 11.0354 6.86889 10.829C6.99194 10.6225 7.1061 10.5419 7.16557 10.5268C7.22436 10.5118 7.36654 10.5268 7.57231 10.6478C7.77808 10.7695 8.01666 10.9766 8.23746 11.2036H8.23814C8.3899 11.3608 8.6278 11.3991 8.82125 11.2966C9.37634 10.9999 9.87811 10.6171 10.3115 10.1693C10.4626 10.0121 10.4913 9.77488 10.3833 9.58621C10.2261 9.31277 10.0921 9.02086 10.0312 8.78844C9.97039 8.55602 9.995 8.41724 10.0258 8.36528C10.0572 8.31196 10.1666 8.22241 10.3997 8.16156C10.6328 8.10072 10.9527 8.07543 11.2685 8.07885V8.07953C11.488 8.08363 11.6828 7.94213 11.7471 7.73294C11.9118 7.18537 12 6.60226 12 6.00069C12 5.92618 11.9945 5.8961 11.9945 5.90704C11.9925 5.68897 11.8469 5.49825 11.637 5.43945C11.3342 5.35605 11.0334 5.24803 10.8283 5.12567C10.6232 5.00399 10.5412 4.88845 10.5261 4.82899C10.5104 4.76951 10.5261 4.62733 10.6471 4.42225C10.7675 4.21648 10.9725 3.97721 11.1974 3.7571V3.75641C11.3547 3.60534 11.3929 3.36743 11.2904 3.17399C10.9951 2.62233 10.6157 2.12192 10.1686 1.68919V1.68851C10.0121 1.53812 9.77416 1.50941 9.58549 1.61742C9.31137 1.77396 9.01946 1.90384 8.78772 1.96401C8.55667 2.02417 8.41721 2.00024 8.36457 1.96948C8.30988 1.93735 8.22716 1.82729 8.16633 1.59555C8.10617 1.36381 8.08019 1.04798 8.08361 0.732157L8.08429 0.731473C8.08771 0.511355 7.94415 0.31516 7.73224 0.253629C7.18194 0.0875128 6.60225 0.000697534 5.99999 0.000697534L6 7.74395e-08ZM6.23106 0.995327C6.53526 1.009 6.8299 1.0507 7.11633 1.11633C7.12931 1.36037 7.15324 1.60443 7.21545 1.84231C7.31184 2.21009 7.49162 2.59291 7.86966 2.81576C8.24838 3.03861 8.66811 3.00991 9.0359 2.91488C9.27036 2.85404 9.47956 2.73442 9.69557 2.62914C9.90475 2.85883 10.0921 3.10562 10.2568 3.37153C10.0968 3.55063 9.92183 3.71881 9.80015 3.92731C9.60873 4.25407 9.46997 4.64714 9.58003 5.07098V5.07645C9.69009 5.49961 10.0025 5.77373 10.3279 5.96718C10.5384 6.09228 10.7743 6.15653 11.0047 6.23653C10.9903 6.53526 10.9479 6.82784 10.8837 7.11086C10.6389 7.12385 10.3908 7.15324 10.1522 7.21545C9.78305 7.31115 9.4016 7.49026 9.17875 7.86966C8.9559 8.24907 8.98871 8.66743 9.08509 9.0359C9.14594 9.26968 9.26556 9.48024 9.37084 9.69557C9.14047 9.90611 8.88958 10.0914 8.62298 10.2568C8.44593 10.0975 8.27982 9.92799 8.07269 9.80563C7.74592 9.61216 7.34944 9.46451 6.92355 9.57457C6.49903 9.68463 6.22149 10.0011 6.02734 10.3279C5.90225 10.5378 5.83799 10.775 5.758 11.0047C5.44697 10.9896 5.14412 10.9425 4.85085 10.8727C4.83787 10.6328 4.83992 10.3922 4.77908 10.1577C4.68405 9.79059 4.50836 9.40709 4.13034 9.18424C3.75162 8.9614 3.32711 8.99557 2.95865 9.09059C2.72348 9.15143 2.51568 9.27105 2.29897 9.37633C2.08911 9.14596 1.90249 8.89508 1.73774 8.62848C1.8977 8.45006 2.07203 8.2812 2.19439 8.0727C2.38649 7.74594 2.53005 7.35355 2.41999 6.92903C2.30993 6.50519 1.99274 6.2297 1.66665 6.0383C1.45747 5.91525 1.22369 5.85236 0.995362 5.77443C1.0104 5.45792 1.0562 5.14962 1.1273 4.85021C1.36656 4.83653 1.60924 4.83995 1.84234 4.77843C2.20876 4.68204 2.58815 4.50089 2.81032 4.12422C3.03316 3.74617 3.00446 3.33054 2.90944 2.96346C2.8486 2.72967 2.72828 2.51911 2.62369 2.30379C2.85339 2.09461 3.09949 1.9073 3.36609 1.74255C3.54451 1.90252 3.71337 2.07684 3.92186 2.1992C4.24863 2.39131 4.64102 2.53418 5.06554 2.4248C5.49006 2.31474 5.76828 1.99823 5.96175 1.67147C6.08684 1.46024 6.15178 1.22575 6.23109 0.994697L6.23106 0.995327ZM6 3.42629C4.58427 3.42629 3.42624 4.58431 3.42624 6.00005C3.42624 7.41579 4.58427 8.57381 6 8.57381C7.41574 8.57381 8.57376 7.41579 8.57376 6.00005C8.57376 4.58431 7.41574 3.42629 6 3.42629ZM6 4.40522C6.88595 4.40522 7.59485 5.11412 7.59485 6.00007C7.59485 6.88602 6.88595 7.59492 6 7.59492C5.11405 7.59492 4.40515 6.88602 4.40515 6.00007C4.40515 5.11412 5.11405 4.40522 6 4.40522Z" fill="white"/>
</svg>
