<svg width="20" height="21" viewBox="0 0 20 21" fill="none" xmlns="http://www.w3.org/2000/svg">
<path d="M10 1.29066e-07C9.87695 1.29066e-07 9.82226 0.00911485 9.8348 0.00911485V0.0102539C9.47135 0.0136717 9.15462 0.256351 9.05548 0.606138C8.91648 1.11201 8.73645 1.61103 8.53252 1.95398C8.32971 2.29692 8.13602 2.44162 8.03805 2.46781C7.94006 2.49288 7.70309 2.4587 7.36014 2.25704C7.0172 2.05537 6.61843 1.71584 6.25156 1.33988V1.33874C5.99863 1.07555 5.60213 1.01175 5.27971 1.18265C4.36255 1.67484 3.52514 2.30718 2.80506 3.05232V3.05346C2.55327 3.31436 2.50543 3.70972 2.68543 4.02417C2.94634 4.4799 3.16281 4.95955 3.26308 5.34465C3.36335 5.7286 3.32347 5.96445 3.2722 6.04991C3.22093 6.13764 3.04205 6.27892 2.65808 6.38031C2.27413 6.48172 1.74206 6.52273 1.2191 6.51817C0.854508 6.51589 0.533204 6.75516 0.430681 7.10493C0.152684 8.02095 -4.26362e-08 8.99052 -4.26362e-08 10.0011C-4.26362e-08 10.123 0.00911468 10.1834 0.00911468 10.1755C0.0125325 10.5389 0.255212 10.8556 0.604998 10.9548C1.11087 11.0926 1.61103 11.2772 1.95284 11.4777C2.29465 11.6783 2.43249 11.8674 2.45644 11.9631C2.4815 12.0599 2.44732 12.289 2.24566 12.6319C2.044 12.9749 1.70446 13.3827 1.3285 13.7507V13.7496C1.06987 14.0014 1.0072 14.3922 1.17241 14.7123C1.6646 15.6329 2.29695 16.4658 3.04208 17.187H3.04322C3.30185 17.4411 3.69834 17.4935 4.01393 17.3157C4.4708 17.0548 4.95503 16.8292 5.34354 16.729C5.73091 16.6287 5.96334 16.6697 6.0488 16.7199C6.13539 16.7711 6.28806 16.958 6.38833 17.3431C6.48861 17.7282 6.52391 18.258 6.51708 18.7821C6.51366 19.1432 6.74837 19.4645 7.09473 19.5705C8.01076 19.8485 8.98946 20.0012 10 20.0012C10.1265 20.0012 10.1687 19.992 10.1379 19.992C10.5002 19.9886 10.8181 19.746 10.9161 19.3962C11.0562 18.8903 11.2431 18.3924 11.4481 18.0483C11.6532 17.7042 11.8435 17.5698 11.9426 17.5447C12.0406 17.5197 12.2776 17.5447 12.6205 17.7464C12.9635 17.9492 13.3611 18.2944 13.7291 18.6727H13.7302C13.9832 18.9347 14.3797 18.9985 14.7021 18.8276C15.6272 18.3332 16.4635 17.6951 17.1858 16.9489C17.4376 16.6868 17.4855 16.2915 17.3055 15.977C17.0434 15.5213 16.8201 15.0348 16.7187 14.6474C16.6173 14.26 16.6583 14.0287 16.7096 13.9421C16.762 13.8533 16.9443 13.704 17.3328 13.6026C17.7213 13.5012 18.2546 13.459 18.7809 13.4647V13.4659C19.1466 13.4727 19.4713 13.2369 19.5784 12.8882C19.853 11.9756 20 11.0038 20 10.0012C20 9.87697 19.9909 9.82683 19.9909 9.84506C19.9875 9.48161 19.7448 9.16375 19.395 9.06575C18.8903 8.92675 18.389 8.74672 18.0472 8.54278C17.7054 8.33998 17.5686 8.14742 17.5436 8.04831C17.5174 7.94919 17.5436 7.71222 17.7452 7.37041C17.9458 7.02746 18.2876 6.62869 18.6624 6.26183V6.26069C18.9244 6.00889 18.9882 5.61239 18.8173 5.28998C18.3251 4.37054 17.6928 3.53654 16.9477 2.81532V2.81418C16.6868 2.56353 16.2903 2.51569 15.9758 2.69569C15.5189 2.9566 15.0324 3.17307 14.6462 3.27335C14.2611 3.37361 14.0287 3.33373 13.9409 3.28246C13.8498 3.22891 13.7119 3.04548 13.6105 2.65925C13.5103 2.27302 13.467 1.74664 13.4727 1.22026L13.4738 1.21912C13.4795 0.852258 13.2403 0.525266 12.8871 0.422715C11.9699 0.145855 11.0037 0.00116256 9.99999 0.00116256L10 1.29066e-07ZM10.3851 1.65888C10.8921 1.68167 11.3832 1.75117 11.8605 1.86054C11.8822 2.26728 11.9221 2.67404 12.0257 3.07051C12.1864 3.68349 12.486 4.32152 13.1161 4.69293C13.7473 5.06434 14.4469 5.01651 15.0598 4.85814C15.4506 4.75673 15.7993 4.55736 16.1593 4.3819C16.5079 4.76471 16.8201 5.17603 17.0947 5.61922C16.8281 5.91772 16.5364 6.19801 16.3336 6.54551C16.0146 7.09012 15.7833 7.74524 15.9667 8.45164V8.46075C16.1502 9.16601 16.6708 9.62289 17.2131 9.9453C17.5641 10.1538 17.9571 10.2609 18.3411 10.3942C18.3172 10.8921 18.2465 11.3797 18.1394 11.8514C17.7316 11.8731 17.318 11.9221 16.9203 12.0257C16.3051 12.1853 15.6693 12.4838 15.2979 13.1161C14.9265 13.7484 14.9812 14.4457 15.1418 15.0598C15.2432 15.4495 15.4426 15.8004 15.6181 16.1593C15.2341 16.5102 14.816 16.819 14.3716 17.0947C14.0766 16.8292 13.7997 16.5466 13.4545 16.3427C12.9099 16.0203 12.2491 15.7742 11.5393 15.9576C10.8317 16.1411 10.3692 16.6686 10.0456 17.2132C9.83708 17.5629 9.72999 17.9583 9.59666 18.3411C9.07828 18.3161 8.57354 18.2374 8.08476 18.1212C8.06311 17.7213 8.06653 17.3203 7.96513 16.9295C7.80676 16.3177 7.51394 15.6785 6.8839 15.3071C6.2527 14.9357 5.54519 14.9926 4.93108 15.151C4.53913 15.2524 4.1928 15.4518 3.83162 15.6272C3.48185 15.2433 3.17081 14.8251 2.89623 14.3808C3.16284 14.0834 3.45338 13.802 3.65732 13.4545C3.97749 12.9099 4.21675 12.2559 4.03331 11.5484C3.84988 10.842 3.32123 10.3828 2.77776 10.0638C2.42912 9.85875 2.03948 9.75393 1.65894 9.62405C1.684 9.09653 1.76034 8.5827 1.87883 8.08368C2.2776 8.06089 2.68206 8.06659 3.07057 7.96405C3.68127 7.8034 4.31358 7.50148 4.68386 6.87369C5.05527 6.24362 5.00744 5.55091 4.84906 4.9391C4.74766 4.54945 4.54713 4.19852 4.37282 3.83964C4.75564 3.49101 5.16582 3.17883 5.61015 2.90426C5.90751 3.17086 6.18894 3.46141 6.53644 3.66534C7.08105 3.98551 7.73503 4.22363 8.44257 4.04133C9.1501 3.8579 9.6138 3.33039 9.93624 2.78578C10.1447 2.43373 10.253 2.04292 10.3852 1.65783L10.3851 1.65888ZM10 5.71048C7.64044 5.71048 5.7104 7.64052 5.7104 10.0001C5.7104 12.3596 7.64044 14.2897 10 14.2897C12.3596 14.2897 14.2896 12.3596 14.2896 10.0001C14.2896 7.64052 12.3596 5.71048 10 5.71048ZM10 7.34203C11.4766 7.34203 12.6581 8.52353 12.6581 10.0001C12.6581 11.4767 11.4766 12.6582 10 12.6582C8.52342 12.6582 7.34192 11.4767 7.34192 10.0001C7.34192 8.52353 8.52342 7.34203 10 7.34203Z" fill="#BDBDBD"/>
</svg>
