<svg width="16" height="12" viewBox="0 0 16 12" fill="none" xmlns="http://www.w3.org/2000/svg">
<path d="M8.00045 0.0841756C7.35862 0.0835915 6.7424 0.321323 6.28807 0.745404C5.83435 1.16889 5.57873 1.74425 5.57811 2.34408C5.57749 2.94397 5.83246 3.51992 6.2862 3.94456C6.73992 4.36862 7.35551 4.60753 7.9973 4.60753C8.63909 4.60753 9.25473 4.3698 9.7084 3.94514C10.1627 3.52107 10.4177 2.94571 10.4177 2.34586C10.4171 1.74656 10.1621 1.17177 9.70903 0.748231C9.25593 0.324164 8.64158 0.0852523 8.00032 0.0840859L8.00045 0.0841756ZM8.00045 3.66599C7.42548 3.66716 6.90677 3.34414 6.68678 2.84763C6.46617 2.35171 6.58741 1.78044 6.99365 1.40017C7.4005 1.02049 8.01172 0.907171 8.54231 1.11337C9.07353 1.31898 9.41914 1.8038 9.41789 2.34118C9.41789 2.69283 9.26853 3.02928 9.00291 3.27811C8.73667 3.52637 8.37669 3.66597 8.00047 3.66597L8.00045 3.66599ZM11.2078 1.7337C11.2065 2.43639 11.659 3.07017 12.3534 3.3394C13.0477 3.60869 13.847 3.46032 14.3788 2.96382C14.9101 2.46673 15.0688 1.71964 14.7807 1.0707C14.4926 0.421751 13.8145 -0.00116397 13.0627 2.40647e-06C12.5702 0.00058649 12.0978 0.184005 11.7503 0.509947C11.4022 0.835888 11.2072 1.27806 11.2078 1.73835L11.2078 1.7337ZM13.9201 1.7337C13.9214 2.05789 13.7126 2.35111 13.3926 2.47552C13.072 2.60053 12.7027 2.53277 12.4571 2.3038C12.2114 2.07423 12.1377 1.72961 12.2702 1.42995C12.4027 1.13028 12.7158 0.934611 13.0626 0.934611C13.2908 0.934611 13.5089 1.01931 13.6701 1.17001C13.8307 1.32071 13.9207 1.52515 13.9201 1.73836L13.9201 1.7337ZM16 6.70334V9.66369C16 9.92188 15.7763 10.131 15.5 10.131C15.2238 10.131 15.0001 9.92188 15.0001 9.66369V6.71964C14.8826 5.8271 14.0857 5.14833 13.1245 5.12141C12.1627 5.09396 11.3233 5.72598 11.1478 6.60975C11.7178 7.21315 12.0746 7.96608 12.1702 8.76634C12.1715 8.78328 12.1715 8.80081 12.1702 8.81775V11.5327C12.1702 11.7909 11.9465 12 11.6703 12C11.394 12 11.1703 11.7909 11.1703 11.5327V8.84346C11.0459 7.86741 10.4153 7.01166 9.48479 6.55423C8.55424 6.09681 7.4417 6.09687 6.51119 6.55423C5.58069 7.0116 4.95003 7.86733 4.82569 8.84346V11.5327C4.82569 11.7909 4.60196 12 4.32572 12C4.04948 12 3.82575 11.7909 3.82575 11.5327V8.81775C3.8245 8.80081 3.8245 8.78328 3.82575 8.76634C3.92137 7.96609 4.27821 7.21312 4.84818 6.60975C4.6657 5.73298 3.83011 5.10857 2.87453 5.13601C1.91896 5.16288 1.12583 5.83404 1.00088 6.71958V9.66363C1.00088 9.92181 0.777149 10.1309 0.500909 10.1309C0.224669 10.1309 0.000937447 9.92181 0.000937447 9.66363V6.70328C-0.000312482 6.68634 -0.000312482 6.66882 0.000937447 6.65188C0.100932 5.8306 0.589656 5.09402 1.33273 4.64542C2.07581 4.1974 2.9952 4.0835 3.83691 4.33642C4.67936 4.58934 5.35558 5.18164 5.68049 5.95095C6.36671 5.52279 7.1729 5.2944 7.9978 5.2944C8.82269 5.2944 9.6289 5.52279 10.3151 5.95095C10.6401 5.18167 11.3163 4.58936 12.1587 4.33642C13.0005 4.0835 13.9199 4.1974 14.6629 4.64542C15.4059 5.09402 15.8947 5.8306 15.9947 6.65188C15.9978 6.66882 15.999 6.68634 15.9997 6.70328L16 6.70334ZM1.08084 1.97191C1.07959 2.67402 1.53144 3.30779 2.22577 3.57761C2.91948 3.8469 3.71881 3.69911 4.25062 3.20261C4.78246 2.70611 4.94183 1.9596 4.65434 1.31069C4.36685 0.66174 3.6894 0.238242 2.93812 0.238242C1.91318 0.238242 1.0819 1.01395 1.08078 1.97195L1.08084 1.97191ZM3.79317 1.97191C3.79442 2.29668 3.58568 2.58932 3.26507 2.71432C2.94447 2.83873 2.57511 2.77039 2.32949 2.54083C2.08388 2.31126 2.01076 1.96604 2.14387 1.66639C2.27762 1.36674 2.59073 1.17164 2.9382 1.17281C3.41066 1.17281 3.79315 1.53028 3.79315 1.97189L3.79317 1.97191Z" fill="#4F4F4F"/>
</svg>
