<svg width="35" height="29" viewBox="0 0 35 29" fill="none" xmlns="http://www.w3.org/2000/svg">
<rect width="33.6406" height="27.949" fill="black" fill-opacity="0" transform="translate(0.838867 0.719971)"/>
<path d="M33.9444 3.9713C33.1969 4.30234 32.421 4.56351 31.6249 4.75258C32.5022 3.91994 33.1618 2.87849 33.5339 1.71604C33.6401 1.38418 33.2792 1.09721 32.9792 1.2749C31.8716 1.93108 30.6786 2.42334 29.4331 2.73816C29.3608 2.75643 29.2863 2.76568 29.2115 2.76568C28.9846 2.76568 28.7641 2.68155 28.5906 2.52885C27.2655 1.36239 25.5612 0.719971 23.7918 0.719971C23.0262 0.719971 22.2531 0.839165 21.4941 1.07428C19.1425 1.80279 17.328 3.74029 16.7587 6.13072C16.5451 7.02734 16.4873 7.92478 16.5867 8.79805C16.5981 8.8984 16.5506 8.96844 16.5213 9.00129C16.4699 9.05888 16.397 9.09189 16.3213 9.09189C16.3128 9.09189 16.3041 9.09149 16.2955 9.09067C11.1478 8.61299 6.50587 6.13597 3.22469 2.11597C3.05737 1.91093 2.73652 1.93608 2.60315 2.16455C1.96061 3.26556 1.62106 4.52484 1.62106 5.80624C1.62106 7.77003 2.41098 9.62069 3.78308 10.9698C3.20607 10.8332 2.64761 10.618 2.12884 10.3302C1.87786 10.1909 1.56905 10.3699 1.56553 10.6567C1.5296 13.574 3.2397 16.1699 5.80149 17.3388C5.7499 17.34 5.69831 17.3406 5.64664 17.3406C5.24056 17.3406 4.8294 17.3015 4.42472 17.2242C4.14208 17.1703 3.90463 17.4381 3.99239 17.7118C4.8239 20.3046 7.05909 22.2158 9.7339 22.6498C7.51397 24.1382 4.9288 24.9233 2.23817 24.9233L1.39936 24.9228C1.14091 24.9228 0.922334 25.0911 0.856473 25.3411C0.791595 25.5874 0.911097 25.8471 1.13148 25.9752C4.1634 27.7375 7.62174 28.669 11.1341 28.669C14.2086 28.669 17.0845 28.0595 19.6821 26.8578C22.0633 25.756 24.1676 24.1811 25.9365 22.1768C27.5842 20.3096 28.8727 18.1542 29.7661 15.7705C30.6177 13.4983 31.0678 11.0738 31.0678 8.75905V8.64879C31.0677 8.27712 31.236 7.9274 31.5297 7.68934C32.6439 6.78576 33.6142 5.7221 34.4135 4.52795C34.6245 4.21264 34.2917 3.81746 33.9444 3.9713Z" fill="white"/>
</svg>
