<?xml version="1.0" encoding="UTF-8" standalone="no"?>
<svg width="26px" height="22px" viewBox="0 0 26 22" version="1.1" xmlns="http://www.w3.org/2000/svg" xmlns:xlink="http://www.w3.org/1999/xlink">
    <!-- Generator: Sketch 49.3 (51167) - http://www.bohemiancoding.com/sketch -->
    <title>Vector</title>
    <desc>Created with Sketch.</desc>
    <defs></defs>
    <g id="Page-1" stroke="none" stroke-width="1" fill="none" fill-rule="evenodd">
        <g id="Vector" fill="#FFFFFF" fill-rule="nonzero" stroke="#FFFFFF" stroke-width="0.25">
            <path d="M18.1457,0.639526 L18.1646,0.639526 L18.3077,0.639526 C19.8688,0.639526 21.1385,1.90912 21.1386,3.46958 L18.1457,0.639526 Z M18.1457,0.639526 L18.1276,0.645139 L5.47831,4.56917 C5.18915,4.58761 4.91523,4.65373 4.65861,4.75171 L4.64888,4.75171 C2.56809,4.75171 0.875,6.44482 0.875,8.52622 L0.875,17.586 C0.875,19.667 2.56776,21.3605 4.64888,21.3605 L20.0996,21.3605 C22.1804,21.3605 23.8735,19.6674 23.8735,17.586 L23.8735,16.4647 C24.6082,16.1446 25.125,15.4131 25.125,14.5602 L25.125,11.2733 C25.1247,10.4211 24.6081,9.68952 23.8735,9.36941 L23.8735,8.52622 C23.8735,6.80636 22.7161,5.3562 21.1413,4.90273 L21.1386,3.46981 L18.1457,0.639526 Z M19.0014,3.47161 L19.0037,4.75202 L12.1034,4.75202 L18.4334,2.78829 C18.7562,2.84736 19.0014,3.13075 19.0014,3.47138 L19.0014,3.47161 Z M22.9875,11.3326 L22.9875,14.5012 L17.9968,14.5012 L17.9968,11.3326 L22.9875,11.3326 Z M20.0996,19.223 L4.64919,19.223 C3.74543,19.223 3.0125,18.4898 3.0125,17.5857 L3.0125,8.52622 C3.0125,7.62175 3.74541,6.8889 4.64919,6.8889 L20.0996,6.8889 C21.0037,6.8889 21.7363,7.62173 21.7363,8.52622 L21.7363,9.19541 L17.9378,9.19541 C16.7919,9.19541 15.8596,10.1273 15.8596,11.2733 L15.8596,14.5599 C15.8596,15.7062 16.7918,16.6384 17.9378,16.6384 L21.7363,16.6384 L21.7363,17.586 C21.7363,18.4898 21.0037,19.223 20.0996,19.223 Z" id="Shape"></path>
        </g>
    </g>
</svg>