<svg width="38" height="27" viewBox="0 0 38 27" fill="none" xmlns="http://www.w3.org/2000/svg">
<rect width="37.8456" height="25.9875" fill="black" fill-opacity="0" transform="translate(0 0.399902)"/>
<rect width="37.8456" height="25.9875" fill="black" fill-opacity="0" transform="translate(0 0.399902)"/>
<path d="M36.2372 2.90415C35.2106 1.0803 34.0965 0.744827 31.8282 0.617252C29.5622 0.46369 23.864 0.399902 18.9275 0.399902C13.9816 0.399902 8.2811 0.46369 6.01745 0.61489C3.75381 0.744828 2.63737 1.07794 1.60134 2.90415C0.544031 4.72564 0 7.86304 0 13.3866C0 13.3913 0 13.3937 0 13.3937C0 13.3984 0 13.4007 0 13.4007V13.4055C0 18.9054 0.544031 22.0664 1.60134 23.869C2.63737 25.6928 3.75145 26.0236 6.01509 26.1771C8.2811 26.3094 13.9816 26.3874 18.9275 26.3874C23.864 26.3874 29.5622 26.3094 31.8305 26.1795C34.0989 26.0259 35.213 25.6952 36.2395 23.8713C37.3063 22.0688 37.8456 18.9077 37.8456 13.4078C37.8456 13.4078 37.8456 13.4007 37.8456 13.396C37.8456 13.396 37.8456 13.3913 37.8456 13.3889C37.8456 7.86304 37.3063 4.72564 36.2372 2.90415Z" fill="white"/>
<path d="M14.1919 20.4812V6.30615L26.0187 13.3937L14.1919 20.4812Z" fill="#010E1D"/>
</svg>
