<svg width="70" height="49" viewBox="0 0 70 49" fill="none" xmlns="http://www.w3.org/2000/svg">
<path d="M67.025 4.6375C65.1263 1.26 63.0656 0.63875 58.87 0.4025C54.6788 0.118125 44.1394 0 35.0088 0C25.8606 0 15.3169 0.118125 11.13 0.398125C6.94312 0.63875 4.87812 1.25562 2.96187 4.6375C1.00625 8.01062 0 13.8206 0 24.0494C0 24.0581 0 24.0625 0 24.0625C0 24.0713 0 24.0756 0 24.0756V24.0844C0 34.2694 1.00625 40.1231 2.96187 43.4613C4.87812 46.8387 6.93875 47.4513 11.1256 47.7356C15.3169 47.9806 25.8606 48.125 35.0088 48.125C44.1394 48.125 54.6787 47.9806 58.8744 47.74C63.07 47.4556 65.1306 46.8431 67.0294 43.4656C69.0025 40.1275 70 34.2738 70 24.0887C70 24.0887 70 24.0756 70 24.0669C70 24.0669 70 24.0581 70 24.0538C70 13.8206 69.0025 8.01062 67.025 4.6375Z" fill="#F44336"/>
<path d="M0 26.25V0L21.875 13.125L0 26.25Z" transform="translate(26.25 10.9375)" fill="#FAFAFA"/>
</svg>
