<svg width="64" height="64" viewBox="0 0 64 64" fill="none" xmlns="http://www.w3.org/2000/svg">
<circle cx="32" cy="32" r="32" fill="#FCBA5E" fill-opacity="0.05"/>
<path d="M32 19.4375L31.2188 20.375C31.2188 20.375 29.2188 22.7852 27.1875 25.7812C26.1719 27.2812 25.125 28.918 24.3438 30.5C23.5625 32.082 23 33.5977 23 35C23 39.9453 27.0547 44 32 44C36.9453 44 41 39.9453 41 35C41 33.5977 40.4375 32.082 39.6562 30.5C38.875 28.918 37.8281 27.2812 36.8125 25.7812C34.7812 22.7852 32.7812 20.375 32.7812 20.375L32 19.4375ZM32 22.6562C32.5586 23.3477 33.6055 24.5742 35.1875 26.9062C36.1719 28.3555 37.125 29.9531 37.8438 31.4062C38.5625 32.8594 39 34.2031 39 35C39 38.8555 35.8555 42 32 42C28.1445 42 25 38.8555 25 35C25 34.2031 25.4375 32.8594 26.1562 31.4062C26.875 29.9531 27.8281 28.3555 28.8125 26.9062C30.3945 24.5742 31.4414 23.3477 32 22.6562ZM27 35C27 37.7461 29.2539 40 32 40V38C30.3438 38 29 36.6562 29 35H27Z" fill="#FCBA5E"/>
</svg>
