<svg width="64" height="64" viewBox="0 0 64 64" fill="none" xmlns="http://www.w3.org/2000/svg">
<circle cx="32" cy="32" r="32" fill="#FCBA5E" fill-opacity="0.05"/>
<path d="M30.1875 23L25.5 26.6875C25.5 26.6875 26.2617 27.6289 26.7812 28.4375C25.7773 29.0742 24.9023 29.7227 24.1875 30.3125C23.4727 28.8477 21.8984 27.8125 20 27.5938C20.8008 28.8945 21.3125 30.4883 21.3125 32.1875C21.3125 33.8867 20.8008 35.3867 20 36.6875C21.9141 36.4648 23.5117 35.3906 24.2188 33.875C24.9336 34.4844 25.8438 35.1484 26.875 35.7812C26.6133 36.6406 26.3047 37.5391 26 38C26.5625 38 28.7617 37.9336 30.1875 37.3438C31.375 37.7383 32.6562 38 34 38C37 38 41.8008 35.8945 43.5 34.0938L42 32.5938L44 30.5C42.4648 28.7734 39.6367 26.2344 34.375 26.0312C32.582 23.7422 30.1875 23 30.1875 23ZM39 29C40.1016 29 41 29.8984 41 31C41 32.1016 40.1016 33 39 33C37.8984 33 37 32.1016 37 31C37 29.8984 37.8984 29 39 29ZM39 29C38.3984 29 38 29.3984 38 30C38 30.6016 38.3984 31 39 31C39.6016 31 40 30.6016 40 30C40 29.3984 39.6016 29 39 29Z" fill="#FCBA5E"/>
</svg>
