<svg width="64" height="64" viewBox="0 0 64 64" fill="none" xmlns="http://www.w3.org/2000/svg">
<circle cx="32" cy="32" r="32" fill="#FCBA5E" fill-opacity="0.05"/>
<path d="M29 23V24H24C22.895 24 22 24.895 22 26V32C22 33.103 22.897 34 24 34H40C41.103 34 42 33.103 42 32V26C42 24.895 41.105 24 40 24H35V23H29ZM32 30C32.552 30 33 30.448 33 31C33 31.552 32.552 32 32 32C31.448 32 31 31.552 31 31C31 30.448 31.448 30 32 30ZM22 35.4434V38C22 39.105 22.895 40 24 40H40C41.105 40 42 39.105 42 38V35.4434C41.409 35.7874 40.732 36 40 36H24C23.268 36 22.591 35.7874 22 35.4434Z" fill="#FCBA5E"/>
</svg>
