<svg width="64" height="64" viewBox="0 0 64 64" fill="none" xmlns="http://www.w3.org/2000/svg">
<circle cx="32" cy="32" r="32" fill="#FCBA5E" fill-opacity="0.05"/>
<path d="M31 20C28.0764 20 25.4161 20.6992 23.4141 21.9004C21.412 23.1016 20 24.8927 20 27V37C20 39.824 22.872 42.2514 27 43.3574V41C27 40.447 27.448 40 28 40C28.552 40 29 40.447 29 41V43.7715C29.648 43.8695 30.314 43.9377 31 43.9707V43C31 42.447 31.448 42 32 42C32.552 42 33 42.447 33 43V44H35V43C35 42.447 35.448 42 36 42C36.552 42 37 42.447 37 43V44H39V41C39 40.447 39.448 40 40 40C40.552 40 41 40.447 41 41V44H42C43.105 44 44 43.105 44 42V35C44 33.895 43.105 33 42 33H32C29.7239 33 27.8345 32.6144 26.2773 32.041C25.569 31.7289 24.931 31.3599 24.3848 30.9453C22.8117 29.7514 22 28.2467 22 27C22 25.7933 22.8262 24.5855 24.4434 23.6152C26.0605 22.6449 28.4006 22 31 22C37.754 22 39 24.9144 39 26C39 27.1957 38.5383 27.7281 37.2695 28.2441C36.0008 28.7601 33.9469 29 31.4277 29C30.0662 29 28.8262 28.7317 28.0156 28.3594C27.6103 28.1732 27.3176 27.9611 27.1641 27.7949C27.0105 27.6288 27 27.5492 27 27.5C27 27.1728 27.1126 26.9123 27.6367 26.5977C28.1608 26.283 29.1104 26.0176 30.4668 26.0176C31.5874 26.0176 32.3267 26.2345 32.7754 26.4277C33.2241 26.621 33.3105 26.7246 33.3105 26.7246C33.4057 26.8152 33.5178 26.8861 33.6403 26.9334C33.7629 26.9806 33.8936 27.0032 34.0249 27C34.1562 26.9967 34.2856 26.9676 34.4057 26.9144C34.5258 26.8611 34.6342 26.7847 34.7247 26.6895C34.8153 26.5944 34.8862 26.4823 34.9334 26.3597C34.9806 26.2372 35.0033 26.1065 35 25.9752C34.9967 25.8438 34.9676 25.7145 34.9143 25.5944C34.861 25.4743 34.7846 25.3659 34.6895 25.2754C34.6895 25.2754 34.259 24.8881 33.5664 24.5898C32.8738 24.2916 31.8492 24.0176 30.4668 24.0176C28.8622 24.0176 27.576 24.3012 26.6074 24.8828C25.6388 25.4644 25 26.4462 25 27.5C25 28.1413 25.296 28.7203 25.6953 29.1523C26.0947 29.5844 26.6019 29.9095 27.1816 30.1758C28.341 30.7083 29.8153 31 31.4277 31C31.6404 31 31.8337 30.9891 32.041 30.9863L32 31H40C40.552 31 41 30.552 41 30V26C41 23.4776 38.358 20 31 20Z" fill="#FCBA5E"/>
</svg>
