<svg width="64" height="64" viewBox="0 0 64 64" fill="none" xmlns="http://www.w3.org/2000/svg">
<circle cx="32" cy="32" r="32" fill="#FCBA5E" fill-opacity="0.05"/>
<path d="M18 21V37H46V21H18ZM21.9141 23H42.0898C42.0312 23.1602 42 23.3281 42 23.5C42 24.3281 42.6719 25 43.5 25C43.6719 25 43.8398 24.9688 44 24.9141V33.0898C43.8398 33.0312 43.6719 33 43.5 33C42.6719 33 42 33.6719 42 34.5C42 34.6719 42.0312 34.8398 42.0898 35H21.9141C21.9688 34.8398 22 34.6719 22 34.5C22 33.6719 21.3281 33 20.5 33C20.3281 33 20.1602 33.0312 20 33.0898V24.9141C20.1602 24.9688 20.3281 25 20.5 25C21.3281 25 22 24.3281 22 23.5C22 23.3281 21.9688 23.1602 21.9141 23ZM32 25C29.7891 25 28 26.7891 28 29V30H28.2031C28.6523 31.7109 30.1445 33 32 33C33.8555 33 35.3477 31.7109 35.7969 30H36V29C36 26.7891 34.2109 25 32 25ZM32 27C33.1914 27 34 27.8086 34 29C34 30.1914 33.1914 31 32 31C30.8086 31 30 30.1914 30 29C30 27.8086 30.8086 27 32 27ZM25 27.5C24.1719 27.5 23.5 28.1719 23.5 29C23.5 29.8281 24.1719 30.5 25 30.5C25.8281 30.5 26.5 29.8281 26.5 29C26.5 28.1719 25.8281 27.5 25 27.5ZM39 27.5C38.1719 27.5 37.5 28.1719 37.5 29C37.5 29.8281 38.1719 30.5 39 30.5C39.8281 30.5 40.5 29.8281 40.5 29C40.5 28.1719 39.8281 27.5 39 27.5ZM18 38V40H19.0039C19.0039 40 33.3398 39.9609 43.7461 42.7188L45 43.0469V38H43V39.0898C42.8398 39.0312 42.6719 39 42.5 39C41.8242 39 41.2305 39.457 41.0508 40.1094C30.7773 37.9883 19.0117 38 19 38H18Z" fill="#FCBA5E"/>
</svg>
