<svg width="64" height="64" viewBox="0 0 64 64" fill="none" xmlns="http://www.w3.org/2000/svg">
<circle cx="32" cy="32" r="32" fill="#FCBA5E" fill-opacity="0.05"/>
<path d="M24.125 18.2L27.7063 19.3625C27.7063 19.3625 28.1867 19.5383 28.625 19.7938C28.8453 19.9203 29.0492 20.0703 29.15 20.1875C29.2508 20.3047 29.2273 20.3211 29.225 20.3375C29.1969 20.4735 29.1266 20.5461 28.9625 20.6188C28.7984 20.6914 28.625 20.6938 28.625 20.6938L26.9938 20.8625L28.3625 21.8C28.3625 21.8 30.0031 23 31.7563 23C32.8461 23 33.8 22.2125 33.8 21.1625C33.8 20.4453 33.5469 19.8196 33.125 19.3813C32.7031 18.943 32.1547 18.6852 31.5688 18.5188C30.3969 18.1836 29.0141 18.2 27.875 18.2H24.125ZM30.1625 19.5875C30.5141 19.6297 30.9383 19.5969 31.2313 19.6813C31.6906 19.8125 32.0445 20 32.2625 20.225C32.4805 20.45 32.6 20.7031 32.6 21.1625C32.6 21.5375 32.3563 21.8 31.7563 21.8C31.2008 21.8 30.5422 21.5539 30.0125 21.3125C30.193 21.125 30.3453 20.8696 30.4063 20.5625C30.4813 20.1828 30.343 19.8594 30.1625 19.5875ZM31.9438 23.5813C31.918 23.586 31.8922 23.593 31.8688 23.6H30.8V24.8H31.4V25.4H28.4C28.3813 25.4 28.3625 25.4 28.3438 25.4C28.0813 25.4281 27.868 25.6274 27.8188 25.8875L24.2188 44.4875C24.1859 44.661 24.2305 44.8414 24.343 44.9797C24.4555 45.1156 24.6219 45.1977 24.8 45.2H39.2C39.3781 45.1977 39.5445 45.1156 39.657 44.9797C39.7695 44.8414 39.8141 44.661 39.7813 44.4875L36.1813 25.8875C36.1273 25.6086 35.8859 25.4047 35.6 25.4H32.6V24.8H33.2V23.6H32.1125C32.0586 23.586 32 23.5789 31.9438 23.5813ZM28.8875 26.6H31.4V28.2125L29.4125 26.9563L29.1688 28.175L30.8938 29.2813L28.7 30.6688L28.5125 31.6438L28.9813 31.9063L31.4 30.3688V33.8938L28.3813 32.2625L28.1563 33.5L30.725 34.8875L27.5563 36.5938L27.4063 37.3438L28.1 37.6438L31.4 35.8813V39.7063L27.2938 37.9438L27.0688 39.125L30.4813 40.6063L26.45 42.3688L26.1688 43.7938L31.4 41.525V44H25.5125L28.8875 26.6ZM32.6 26.6H35.075L33.2 27.8V28.625L33.6688 28.925L35.3563 27.8375L35.9938 31.1L34.475 30.1438L33.2 29.3375V30.7438L35.5813 32.2813L33.2 33.5563V34.1938L33.875 34.55L36.3875 33.2L37.1188 36.9875L33.2 34.8688V36.2L36.5375 38L33.2 39.4438V39.8375L34.25 40.2875L37.4938 38.8813L38.225 42.65L36.3313 41.8438L33.2 40.4938V41.7875L38.3188 44H32.6V26.6Z" fill="#FCBA5E"/>
</svg>
