<svg width="64" height="64" viewBox="0 0 64 64" fill="none" xmlns="http://www.w3.org/2000/svg">
<circle cx="32" cy="32" r="32" fill="#FCBA5E" fill-opacity="0.05"/>
<path d="M25.9998 18.1367C25.8718 18.1367 25.7437 18.1838 25.6462 18.2812L23.9295 20H21.4998C21.2238 20 20.9998 20.224 20.9998 20.5V22.9297L19.281 24.6465C19.086 24.8415 19.086 25.1585 19.281 25.3535L19.9822 26.0547C20.7552 26.0817 21.4862 26.1201 22.1912 26.1641C22.0782 25.7931 21.9998 25.408 21.9998 25C21.9998 22.791 23.7908 21 25.9998 21C28.2088 21 29.9998 22.791 29.9998 25C29.9998 25.744 29.7835 26.4333 29.4295 27.0293C30.0145 27.1393 30.5408 27.2495 30.9998 27.3555V27.0703L32.7185 25.3535C32.9135 25.1585 32.9135 24.8415 32.7185 24.6465L30.9998 22.9297V20.5C30.9998 20.224 30.7758 20 30.4998 20H28.0701L26.3533 18.2812C26.2558 18.1838 26.1278 18.1367 25.9998 18.1367ZM39.9998 27C35.9998 27 31.9998 29 31.9998 34C31.9998 35.145 32.1694 36.0355 32.4744 36.7344C32.268 37.2103 32.0897 37.6795 31.9275 38.1426C31.555 37.3529 31.1007 36.6127 30.574 35.9258C30.3819 35.6752 30.181 35.4303 29.9724 35.1914C29.9885 35.0689 29.9998 34.9468 29.9998 34.832C29.9998 30.666 26.6658 29 23.3318 29H19.9998V31.5C19.9998 36.5 23.3318 39 25.8318 39C26.3358 39 26.7754 38.914 27.1834 38.793C26.4994 37.791 25.3404 36.3061 23.7224 34.9941C23.2934 34.6461 23.226 34.0169 23.574 33.5879C23.922 33.1589 24.5512 33.0905 24.9802 33.4395C26.4066 34.5958 27.8487 35.9719 28.5896 36.6875C28.7187 36.8401 28.8665 36.9866 28.9861 37.1426C30.2584 38.802 31.0034 40.6294 30.9998 42.998C30.9998 43.0024 30.9997 43.0074 30.9998 43.0117L31.9998 43L32.9998 43.002C32.9998 42.9973 32.9998 42.9929 32.9998 42.9883C32.9825 41.5007 33.531 39.0173 34.7693 36.5391C35.0727 35.9318 35.4177 35.3241 35.8025 34.7266C36.5074 33.7209 37.2536 32.7081 37.9451 32.0137C38.3351 31.6227 38.9681 31.6198 39.3591 32.0098C39.7511 32.3998 39.753 33.0328 39.363 33.4238C37.709 35.0848 36.5496 36.9165 35.8396 38.9375C36.2066 38.9795 36.5928 39 36.9998 39C39.9998 39 43.9998 36 43.9998 30V27H39.9998Z" fill="#FCBA5E"/>
</svg>
