<svg width="64" height="64" viewBox="0 0 64 64" fill="none" xmlns="http://www.w3.org/2000/svg">
<circle cx="32" cy="32" r="32" fill="#FCBA5E" fill-opacity="0.05"/>
<path d="M43.1534 18.6823C42.9671 18.6619 42.7745 18.6629 42.5805 18.6901C39.6856 19.097 32.9599 20.208 26.2888 28H22.7654L19.1976 31.7135C18.7016 32.2095 18.5533 32.9496 18.8226 33.5989C19.0906 34.2483 19.7189 34.6667 20.4216 34.6667H23.4476L23.5857 34.8047C23.2214 35.264 23.0154 35.7498 22.8096 36.2838C22.5589 36.9344 22.3502 37.6426 22.1768 38.3099C21.8301 39.6444 21.6247 40.8333 21.6247 40.8333L21.294 42.7057L23.1664 42.375C23.1664 42.375 24.3554 42.1696 25.6898 41.8229C26.3571 41.6496 27.0654 41.4408 27.7159 41.1901C28.2499 40.9843 28.7357 40.7783 29.195 40.4141L29.3331 40.5521V43.5781C29.3331 44.2808 29.7514 44.9104 30.4008 45.1771C30.6208 45.2691 30.8499 45.3099 31.0753 45.3099C31.5166 45.3099 31.9433 45.1463 32.2419 44.8463L35.9997 41.4219V37.7109C43.7918 31.0398 44.9028 24.3141 45.3096 21.4193C45.4996 20.0613 44.457 18.8249 43.1534 18.6823ZM42.6039 21.3958C42.1276 24.7867 41.0541 31.4424 30.8331 38.2812L25.7185 33.1667C32.5573 22.9456 39.213 21.8721 42.6039 21.3958ZM35.9997 26.6667C35.6461 26.6667 35.307 26.8071 35.0569 27.0572C34.8069 27.3072 34.6664 27.6464 34.6664 28C34.6664 28.3536 34.8069 28.6927 35.0569 28.9428C35.307 29.1928 35.6461 29.3333 35.9997 29.3333C36.3534 29.3333 36.6925 29.1928 36.9425 28.9428C37.1926 28.6927 37.3331 28.3536 37.3331 28C37.3331 27.6464 37.1926 27.3072 36.9425 27.0572C36.6925 26.8071 36.3534 26.6667 35.9997 26.6667ZM31.9997 30.6667C31.6461 30.6667 31.307 30.8071 31.0569 31.0572C30.8069 31.3072 30.6664 31.6464 30.6664 32C30.6664 32.3536 30.8069 32.6927 31.0569 32.9428C31.307 33.1928 31.6461 33.3333 31.9997 33.3333C32.3534 33.3333 32.6925 33.1928 32.9425 32.9428C33.1926 32.6927 33.3331 32.3536 33.3331 32C33.3331 31.6464 33.1926 31.3072 32.9425 31.0572C32.6925 30.8071 32.3534 30.6667 31.9997 30.6667ZM25.531 36.75L27.2497 38.4687C27.107 38.5443 26.9537 38.6265 26.7549 38.7031C26.2551 38.8958 25.6242 39.0821 25.018 39.2396C24.8446 39.2846 24.8531 39.2726 24.6872 39.3125C24.7271 39.1466 24.7151 39.1552 24.7601 38.9818C24.9176 38.3755 25.104 37.7446 25.2966 37.2448C25.3732 37.046 25.4554 36.8927 25.531 36.75Z" fill="#FCBA5E"/>
</svg>
