<svg width="20" height="20" viewBox="0 0 20 20" fill="none" xmlns="http://www.w3.org/2000/svg">
<path fill-rule="evenodd" clip-rule="evenodd" d="M10 20C15.5234 20 20 15.5234 20 10C20 4.4766 15.5234 5.10598e-08 10 5.10598e-08C4.4766 5.10598e-08 5.10598e-08 4.4766 5.10598e-08 10C5.10598e-08 15.5234 4.4766 20 10 20ZM10 10.7689C12.1239 10.7689 13.8466 9.04715 13.8466 6.92329C13.8466 4.79853 12.1239 3.07671 10 3.07671C7.87612 3.07671 6.15342 4.79851 6.15342 6.92329C6.15342 9.04715 7.87612 10.7689 10 10.7689ZM2.76309 14.3875C4.24691 16.8296 6.93321 18.4621 10 18.4621C13.0668 18.4621 15.7533 16.8295 17.2369 14.3875C17.2279 14.3199 17.2018 14.2541 17.1558 14.1973C16.2074 13.0119 14.7066 12.3078 12.6926 12.3078H7.30717C5.29328 12.3078 3.79245 13.0119 2.84396 14.1973C2.79798 14.2541 2.77184 14.3199 2.76283 14.3875H2.76309Z" fill="#BDBDBD"/>
</svg>
