<svg width="20" height="20" viewBox="0 0 20 20" fill="none" xmlns="http://www.w3.org/2000/svg">
<path d="M18.75 12.2097C18.7491 12.3034 18.7428 12.3963 18.7312 12.4892C18.7384 12.4338 18.7464 12.3784 18.7536 12.3231C18.7393 12.424 18.7187 12.5222 18.6911 12.6195C18.6777 12.6677 18.6616 12.7151 18.6446 12.7615C18.6294 12.8043 18.5821 12.9115 18.6634 12.7222C18.6518 12.7499 18.6393 12.7758 18.6259 12.8026C18.5795 12.8999 18.5232 12.9927 18.4616 13.0811C18.3705 13.2133 18.5544 12.9704 18.4527 13.0945C18.4152 13.1401 18.3759 13.1829 18.3348 13.2249C18.3009 13.2597 18.2652 13.2927 18.2286 13.3249C18.2071 13.3445 18.1839 13.3633 18.1616 13.3811C18.0714 13.4543 18.2884 13.2856 18.1946 13.3543C18.1071 13.4177 18.0143 13.4731 17.9187 13.5222C17.8732 13.5454 17.7 13.6168 17.9062 13.5329C17.8509 13.5552 17.7946 13.5749 17.7375 13.5927C17.6312 13.6258 17.5223 13.6481 17.4116 13.6633C17.467 13.6561 17.5223 13.6481 17.5777 13.641C17.3687 13.6677 17.1553 13.6597 16.9446 13.6597H15.8536H12.1893H7.7866H4.13037H3.05359C2.84288 13.6597 2.63037 13.6677 2.42056 13.641C2.47592 13.6481 2.53128 13.6561 2.58663 13.6633C2.48574 13.649 2.38753 13.6285 2.2902 13.6008C2.24199 13.5874 2.19466 13.5713 2.14824 13.5543C2.10538 13.5392 1.99824 13.4918 2.18752 13.5731C2.16074 13.5615 2.13395 13.549 2.10717 13.5356C2.00985 13.4892 1.91699 13.4329 1.82858 13.3713C1.69644 13.2802 1.9393 13.4642 1.81519 13.3624C1.76966 13.3249 1.7268 13.2856 1.68484 13.2445C1.65001 13.2106 1.61698 13.1749 1.58483 13.1383C1.56519 13.1168 1.54644 13.0936 1.52859 13.0713C1.45448 12.9811 1.62412 13.1981 1.55537 13.1043C1.49198 13.0168 1.43662 12.924 1.38751 12.8285C1.3643 12.7829 1.29287 12.6097 1.3768 12.816C1.35448 12.7606 1.33484 12.7044 1.31698 12.6472C1.28394 12.541 1.26162 12.432 1.24644 12.3213C1.25359 12.3767 1.26162 12.432 1.26876 12.4874C1.23484 12.2231 1.25001 11.9499 1.25001 11.6847V10.1678V5.88478V2.85255C1.25001 2.70791 1.25001 2.56505 1.26876 2.42041C1.26162 2.47577 1.25359 2.53113 1.24644 2.58648C1.26073 2.48559 1.28126 2.38738 1.30894 2.29005C1.32234 2.24183 1.33841 2.19451 1.35537 2.14808C1.37055 2.10523 1.41787 1.99809 1.33662 2.18737C1.34823 2.16059 1.36073 2.1338 1.37412 2.10702C1.42055 2.00969 1.4768 1.91684 1.53841 1.82843C1.62948 1.69629 1.44555 1.93915 1.54733 1.81504C1.58483 1.7695 1.62412 1.72665 1.66519 1.68468C1.69912 1.64986 1.73484 1.61682 1.77144 1.58468C1.79287 1.56504 1.81608 1.54629 1.83841 1.52843C1.92859 1.45433 1.71162 1.62397 1.80537 1.55522C1.89287 1.49183 1.98573 1.43647 2.08126 1.38736C2.12679 1.36415 2.30001 1.29272 2.09376 1.37665C2.14912 1.35433 2.20536 1.33468 2.26251 1.31683C2.36876 1.28379 2.47769 1.26147 2.5884 1.24629C2.53305 1.25343 2.47769 1.26147 2.42233 1.26861C2.63126 1.24183 2.84467 1.24986 3.05536 1.24986H4.14643H7.81066H12.2134H15.8696H16.9464C17.1571 1.24986 17.3696 1.24183 17.5794 1.26861C17.5241 1.26147 17.4687 1.25343 17.4134 1.24629C17.5143 1.26058 17.6125 1.28111 17.7098 1.30879C17.758 1.32218 17.8053 1.33826 17.8518 1.35522C17.8946 1.3704 18.0018 1.41772 17.8125 1.33647C17.8402 1.34808 17.866 1.36058 17.8928 1.37397C17.9902 1.4204 18.083 1.47665 18.1714 1.53825C18.3036 1.62933 18.0607 1.4454 18.1848 1.54718C18.2303 1.58468 18.2732 1.62397 18.3152 1.66504C18.35 1.69897 18.383 1.73468 18.4152 1.77129C18.4348 1.79272 18.4536 1.81593 18.4714 1.83825C18.5446 1.92843 18.3759 1.71147 18.4446 1.80522C18.508 1.89272 18.5634 1.98557 18.6125 2.0811C18.6357 2.12664 18.7071 2.29985 18.6232 2.0936C18.6455 2.14896 18.6652 2.20521 18.683 2.26235C18.7161 2.3686 18.7384 2.47753 18.7536 2.58825C18.7464 2.53289 18.7384 2.47753 18.7312 2.42218C18.7652 2.68645 18.75 2.95969 18.75 3.22485V4.74182V9.02479V12.057V12.2097C18.75 12.5508 19.0339 12.8347 19.375 12.8347C19.7161 12.8347 20 12.5508 20 12.2097V9.99808V5.69637V2.80265C20 2.60801 19.9821 2.41872 19.9545 2.22498C19.8741 1.65801 19.5536 1.10535 19.1348 0.720526C18.6018 0.231246 17.9223 -6.53181e-08 17.2063 -6.53181e-08H15.0063H10.9912H6.64557H3.45448H2.75537C1.95359 -6.53181e-08 1.15893 0.326789 0.644649 0.954469C0.235712 1.45269 0.00535741 2.05358 8.84156e-06 2.70089V2.86607V4.02678V8.13398V11.7082C8.84156e-06 12.0394 -0.00177683 12.3555 0.0455448 12.6858C0.125901 13.2528 0.446436 13.8055 0.865179 14.1903C1.33928 14.626 1.93661 14.8644 2.5759 14.9072C2.74733 14.9188 2.92143 14.9108 3.09286 14.9108H4.21608H7.91689H12.3187H15.9375H16.9893C17.2964 14.9108 17.5884 14.9063 17.8946 14.8438C19.1187 14.5956 19.991 13.4349 20 12.21C20.0026 11.8689 19.7133 11.585 19.3749 11.585C19.0321 11.585 18.7517 11.8698 18.7499 12.21L18.75 12.2097Z" transform="translate(0 4.10547)" fill="#828282"/>
<path d="M1.25 2.69903C1.25089 2.60528 1.25714 2.51242 1.26875 2.41955C1.26161 2.47491 1.25357 2.53027 1.24643 2.58562C1.26071 2.48473 1.28125 2.38652 1.30893 2.28919C1.32232 2.24098 1.33839 2.19365 1.35536 2.14723C1.37053 2.10437 1.41786 1.99723 1.33661 2.18651C1.34821 2.15973 1.36071 2.13294 1.3741 2.10616C1.42053 2.00884 1.47678 1.91598 1.53839 1.82757C1.62946 1.69543 1.44553 1.93829 1.54732 1.81418C1.58482 1.76864 1.62411 1.72579 1.66518 1.68382C1.6991 1.649 1.73482 1.61597 1.77142 1.58382C1.79285 1.56418 1.81607 1.54543 1.83839 1.52757C1.92857 1.45347 1.7116 1.62311 1.80535 1.55436C1.89285 1.49097 1.98571 1.43561 2.08124 1.3865C2.12678 1.36329 2.29999 1.29186 2.09374 1.37579C2.1491 1.35347 2.20535 1.33382 2.26249 1.31597C2.36874 1.28293 2.47767 1.26061 2.58839 1.24543C2.53303 1.25257 2.47767 1.26061 2.42232 1.26775C2.62142 1.24275 2.82321 1.249 3.0241 1.249H3.9857H5.67141C5.77231 1.249 5.87231 1.25525 5.97231 1.26775C5.91695 1.26061 5.86159 1.25257 5.80624 1.24543C5.90713 1.25972 6.00534 1.28025 6.10267 1.30793C6.15088 1.32133 6.19821 1.3374 6.24463 1.35436C6.28749 1.36954 6.39463 1.41686 6.20535 1.33561C6.23302 1.34722 6.25892 1.35972 6.2857 1.37311C6.38302 1.41954 6.47588 1.47579 6.56429 1.5374C6.69643 1.62847 6.45357 1.44454 6.57768 1.54632C6.62321 1.58382 6.66607 1.62311 6.70803 1.66418C6.74286 1.69811 6.77589 1.73382 6.80804 1.77043C6.82768 1.79186 6.84643 1.81507 6.86428 1.83739C6.9375 1.92757 6.76875 1.71061 6.8375 1.80436C6.90089 1.89186 6.95625 1.98471 7.00536 2.08024C7.02857 2.12578 7.1 2.29899 7.01607 2.09274C7.03839 2.1481 7.05803 2.20435 7.07589 2.26149C7.10893 2.36774 7.13125 2.47667 7.14643 2.58739C7.13928 2.53203 7.13125 2.47668 7.12411 2.42132C7.13571 2.51418 7.14196 2.60703 7.14286 2.70079C7.14553 3.04187 7.425 3.3258 7.76786 3.3258C8.10626 3.3258 8.39554 3.04187 8.39287 2.70079C8.38394 1.4615 7.50983 0.333022 6.28752 0.0669647C6.00894 0.0062515 5.73305 -7.96038e-08 5.45182 -7.96038e-08H4.5402H2.75538C1.71787 -7.96038e-08 0.712522 0.571429 0.269665 1.52946C0.0982359 1.90089 0.00358383 2.28928 1.81183e-05 2.70089C-0.00266028 3.04197 0.286624 3.3259 0.625024 3.3259C0.96699 3.32411 1.24736 3.04018 1.25003 2.69911L1.25 2.69903Z" transform="translate(5.80347)" fill="#828282"/>
<path d="M3.22505 3.1368C3.22416 3.16715 3.22237 3.19751 3.21969 3.22876C3.22684 3.1734 3.23487 3.11804 3.24201 3.06269C3.23219 3.13055 3.15005 3.34216 3.24023 3.13947C3.22416 3.17429 3.20451 3.20733 3.18309 3.24037C3.12684 3.32698 3.29648 3.11269 3.18934 3.2243C3.15719 3.25733 3.06791 3.3234 3.22862 3.20108C3.19827 3.2243 3.16434 3.24394 3.13041 3.2618C3.03934 3.3109 3.29469 3.20644 3.14469 3.25287C3.1063 3.26448 3.06702 3.27073 3.02773 3.27698C3.08309 3.26983 3.13844 3.2618 3.1938 3.25466C2.8804 3.2868 2.55362 3.26001 2.23933 3.26001C1.92505 3.26001 1.59826 3.28591 1.28486 3.25466C1.34022 3.2618 1.39558 3.26983 1.45093 3.27698C1.38308 3.26716 1.17146 3.18501 1.37415 3.27519C1.33843 3.25912 1.30629 3.23858 1.27325 3.21805C1.18664 3.1618 1.40093 3.33144 1.28932 3.2243C1.25629 3.19216 1.19022 3.10287 1.31254 3.26359C1.28932 3.23323 1.26968 3.1993 1.25182 3.16537C1.20272 3.0743 1.30718 3.32966 1.26075 3.17966C1.24915 3.14126 1.2429 3.10198 1.23664 3.06269C1.24379 3.11805 1.25182 3.17341 1.25897 3.22876C1.22683 2.91269 1.25361 2.58412 1.25361 2.26716C1.25361 1.94305 1.22593 1.60645 1.25897 1.28323C1.25182 1.33859 1.24379 1.39394 1.23664 1.4493C1.24647 1.38144 1.32861 1.16983 1.23843 1.37251C1.2545 1.3368 1.27504 1.30466 1.29557 1.27162C1.35182 1.18501 1.18218 1.3993 1.28932 1.28769C1.32147 1.25466 1.41075 1.18859 1.25004 1.31091C1.28039 1.28769 1.31432 1.26805 1.34825 1.25019C1.43932 1.20109 1.18397 1.30555 1.33397 1.25912C1.37236 1.24751 1.41164 1.24126 1.45093 1.23501C1.39557 1.24216 1.34022 1.25019 1.28486 1.25734C1.59825 1.22519 1.92504 1.25198 2.23933 1.25198C2.55362 1.25198 2.8804 1.22609 3.1938 1.25734C3.13844 1.25019 3.08308 1.24216 3.02773 1.23501C3.09559 1.24484 3.3072 1.32698 3.10451 1.2368C3.13933 1.25287 3.17237 1.27341 3.20541 1.29394C3.29202 1.35019 3.07773 1.18055 3.18934 1.28769C3.22237 1.31983 3.28844 1.40912 3.16612 1.24841C3.18934 1.27876 3.20898 1.31269 3.22684 1.34662C3.27594 1.43769 3.17148 1.18234 3.21791 1.33234C3.22951 1.37073 3.23576 1.41001 3.24201 1.4493C3.23487 1.39394 3.22684 1.33858 3.21969 1.28323C3.25094 1.59217 3.22505 1.91358 3.22505 2.22252V3.13681C3.22505 3.47788 3.50898 3.76181 3.85006 3.76181C4.19113 3.76181 4.47506 3.47788 4.47506 3.13681V1.49395C4.47506 1.34573 4.46524 1.20556 4.43756 1.05644C4.3706 0.693057 4.09738 0.36716 3.78666 0.183229C3.45631 -0.0132011 3.09201 0.000192883 2.72506 0.000192883H1.67953C1.30005 0.000192883 0.915229 0.00376448 0.595594 0.247507C0.42863 0.375185 0.293812 0.505542 0.184874 0.688582C0.0688036 0.884118 0.0277319 1.08947 0.00451813 1.31181C-0.00351776 1.38859 0.00183869 1.46805 0.00183869 1.54483V2.54929C0.00183869 2.83233 -0.0106614 3.11359 0.0295164 3.39393C0.123267 4.05018 0.759871 4.50911 1.39827 4.50911H3.07775C3.84383 4.50911 4.459 3.90017 4.47418 3.1359C4.48132 2.79482 4.1849 2.51089 3.84918 2.51089C3.50454 2.51178 3.23222 2.79661 3.22506 3.13679L3.22505 3.1368Z" transform="translate(7.7605 7.85425)" fill="#828282"/>
<path d="M0.789622 2.8517C1.63159 2.6651 2.47355 2.47938 3.31648 2.29278C4.64416 1.99902 5.9718 1.70528 7.29957 1.41152C7.58528 1.34813 7.871 1.28473 8.15671 1.22223C8.48974 1.14902 8.67993 0.768657 8.59333 0.45348C8.49958 0.112406 8.15671 -0.0563484 7.82457 0.0168631C6.98261 0.203471 6.14064 0.389184 5.29772 0.575789C3.97003 0.869549 2.6424 1.16329 1.31463 1.45705C1.02891 1.52044 0.743199 1.58383 0.457485 1.64633C0.124456 1.71955 -0.0657379 2.09991 0.0208679 2.41509C0.114619 2.75616 0.457484 2.92491 0.789622 2.8517Z" transform="translate(11.3843 7.87256)" fill="#828282"/>
<path d="M8.15671 1.64633C7.31475 1.45972 6.47278 1.27401 5.62985 1.08741C4.30217 0.793646 2.97454 0.499909 1.64677 0.206149C1.36105 0.142757 1.07534 0.0793625 0.789624 0.0168642C0.457487 -0.0563495 0.11463 0.1124 0.0208695 0.453481C-0.0657386 0.768658 0.12444 1.14902 0.457487 1.22224C1.29945 1.40884 2.14142 1.59456 2.98435 1.78116C4.31203 2.07492 5.63966 2.36866 6.96743 2.66242C7.25315 2.72581 7.53886 2.78921 7.82458 2.8517C8.15671 2.92492 8.49957 2.75617 8.59333 2.41509C8.67994 2.09902 8.48976 1.71954 8.15671 1.64633Z" transform="translate(0.000244141 7.89478)" fill="#828282"/>
</svg>
