<svg width="12" height="10" viewBox="0 0 12 10" fill="none" xmlns="http://www.w3.org/2000/svg">
<path d="M10.5757 0.442894H1.4243C0.638946 0.442894 0 1.0565 0 1.81069V8.18938C0 8.94358 0.638946 9.55718 1.4243 9.55718H10.5757C11.3611 9.55718 12 8.94358 12 8.18938V1.81069C12 1.0565 11.3611 0.442894 10.5757 0.442894ZM10.5757 8.34963H1.4243C1.30886 8.34963 1.20761 8.27477 1.20761 8.18938V2.65417L5.34656 6.1485C5.43142 6.22016 5.53932 6.2596 5.65043 6.2596L6.34945 6.25964C6.46049 6.25964 6.56846 6.22016 6.65334 6.1485L10.7925 2.65405V8.18944C10.7924 8.27477 10.6911 8.34963 10.5757 8.34963ZM6.00002 5.0606L1.97437 1.65044H10.0257L6.00002 5.0606Z" fill="#B1BAD2"/>
</svg>
