<svg width="30" height="31" viewBox="0 0 30 31" fill="none" xmlns="http://www.w3.org/2000/svg">
<rect width="29.4355" height="29.4" fill="black" fill-opacity="0" transform="translate(0.416992 0.719971)"/>
<rect width="29.4355" height="29.4" fill="black" fill-opacity="0" transform="translate(0.416992 0.719971)"/>
<path d="M21.0835 0.719971H9.18598C4.35074 0.719971 0.416992 4.64898 0.416992 9.47839V21.3616C0.416992 26.191 4.35074 30.12 9.18598 30.12H21.0835C25.9187 30.12 29.8525 26.191 29.8525 21.3616V9.47839C29.8524 4.64898 25.9187 0.719971 21.0835 0.719971ZM26.8913 21.3616C26.8913 24.5652 24.291 27.1623 21.0835 27.1623H9.18598C5.97846 27.1623 3.3782 24.5652 3.3782 21.3616V9.47839C3.3782 6.27468 5.97846 3.67761 9.18598 3.67761H21.0835C24.291 3.67761 26.8913 6.27468 26.8913 9.47839V21.3616Z" fill="white"/>
<path d="M15.1345 7.81616C10.9367 7.81616 7.52148 11.2273 7.52148 15.42C7.52148 19.6127 10.9367 23.0239 15.1345 23.0239C19.3324 23.0239 22.7476 19.6128 22.7476 15.42C22.7476 11.2272 19.3324 7.81616 15.1345 7.81616ZM15.1345 20.0663C12.5654 20.0663 10.4827 17.9861 10.4827 15.42C10.4827 12.854 12.5654 10.7738 15.1345 10.7738C17.7037 10.7738 19.7864 12.854 19.7864 15.42C19.7864 17.9861 17.7037 20.0663 15.1345 20.0663Z" fill="white"/>
<path d="M22.7622 9.69512C23.7697 9.69512 24.5865 8.87936 24.5865 7.87307C24.5865 6.86678 23.7697 6.05103 22.7622 6.05103C21.7547 6.05103 20.938 6.86678 20.938 7.87307C20.938 8.87936 21.7547 9.69512 22.7622 9.69512Z" fill="white"/>
</svg>
