<svg width="25" height="44" viewBox="0 0 25 44" fill="none" xmlns="http://www.w3.org/2000/svg">
<path fill-rule="evenodd" clip-rule="evenodd" d="M23.1888 10.3435V3.43374C23.1888 1.60258 21.6978 0.11322 19.8656 0.11322H4.00295C2.17028 0.11322 0.679688 1.60258 0.679688 3.43374V7.41836C0.679688 7.78539 0.977009 8.08246 1.34434 8.08246H21.8595V32.2851C21.8595 32.6516 22.1573 32.9492 22.5242 32.9492C22.8911 32.9492 23.1888 32.6516 23.1888 32.2851V15.4182C23.6944 15.3159 24.0759 14.8683 24.0759 14.3335V11.4278C24.0759 10.8934 23.6944 10.4458 23.1888 10.3435ZM12.3773 15.7312C12.0099 15.7312 11.7126 16.0282 11.7126 16.3953V25.2469L8.50367 22.0401C8.24402 21.7807 7.82351 21.7807 7.56386 22.0401C7.3042 22.2996 7.3042 22.7197 7.56386 22.9792L11.9027 27.3153C11.9656 27.3795 12.0414 27.4309 12.126 27.4654C12.2089 27.4973 12.2909 27.515 12.3773 27.515C12.4632 27.5146 12.5434 27.4973 12.6179 27.4685C12.7114 27.4313 12.7832 27.3831 12.8434 27.3233C12.8447 27.3224 17.1925 22.9801 17.1925 22.9801C17.4521 22.7206 17.4521 22.3005 17.1925 22.041C16.9328 21.7816 16.5123 21.7816 16.2526 22.041L13.0419 25.2486V16.3953C13.0419 16.0287 12.7442 15.7312 12.3773 15.7312ZM2.00916 6.75425H21.8597V3.43373C21.8597 2.3353 20.9646 1.44142 19.8657 1.44142H4.00312C2.90378 1.44142 2.00916 2.3353 2.00916 3.43373V6.75425ZM11.9345 40.9848C12.9531 40.9848 13.7817 40.1565 13.7817 39.1386C13.7817 38.1208 12.9531 37.2924 11.9345 37.2924C10.9158 37.2924 10.0867 38.1208 10.0867 39.1386C10.0867 40.1565 10.9153 40.9848 11.9345 40.9848ZM12.4527 39.1391C12.4527 38.8531 12.2201 38.6211 11.9343 38.6211C11.6485 38.6211 11.4158 38.8531 11.4158 39.1391C11.4158 39.4251 11.6485 39.6571 11.9343 39.6571C12.2201 39.6571 12.4527 39.4251 12.4527 39.1391ZM22.5242 35.1628H2.00899V10.9603C2.00899 10.5932 1.71167 10.2962 1.34434 10.2962C0.977009 10.2962 0.679688 10.5932 0.679688 10.9603V39.8116C0.679688 41.6427 2.17028 43.1321 4.00295 43.1321H19.8656C21.6978 43.1321 23.1888 41.6427 23.1888 39.8116V35.827C23.1888 35.4604 22.8915 35.1628 22.5242 35.1628ZM19.8657 41.8039C20.9646 41.8039 21.8597 40.91 21.8597 39.8116V36.4911H2.00916V39.8116C2.00916 40.91 2.90378 41.8039 4.00312 41.8039H19.8657Z" fill="url(#paint0_linear)"/>
<defs>
<linearGradient id="paint0_linear" x1="0.679687" y1="0.11322" x2="33.2285" y2="8.7872" gradientUnits="userSpaceOnUse">
<stop stop-color="#C13C1E"/>
<stop offset="1" stop-color="#F2994A"/>
</linearGradient>
</defs>
</svg>
