<svg width="16" height="17" viewBox="0 0 16 17" fill="none" xmlns="http://www.w3.org/2000/svg">
<path d="M8.0024 0C5.86449 0 3.85525 0.831431 2.34484 2.34308C0.833255 3.85403 0 5.86385 0 8.00176C0 10.1397 0.831431 12.1496 2.34372 13.6604C3.85342 15.1714 5.86321 16.0035 8.00128 16.0035C10.1392 16.0035 12.1478 15.1708 13.66 13.6593C16.78 10.5399 16.78 5.46312 13.66 2.34308C12.1503 0.832119 10.1392 0 8.0024 0V0ZM8.00115 1.35905H8.0024C9.77719 1.35905 11.4457 2.04983 12.6991 3.3038C15.2885 5.89445 15.2885 10.1085 12.6991 12.6983C11.4432 13.9536 9.77415 14.6444 8 14.6444C6.22585 14.6444 4.55796 13.9542 3.30329 12.6996C2.04989 11.445 1.3579 9.77642 1.3579 8.00179C1.3579 6.22716 2.04867 4.55848 3.30457 3.30396C4.55859 2.04994 6.22713 1.35921 8.00128 1.35921L8.00115 1.35905ZM8.03303 4.20464C7.50793 4.20464 7.04718 4.31279 6.65273 4.52845C6.2589 4.74476 5.95883 5.01606 5.75315 5.34551C5.54748 5.67434 5.44371 5.9994 5.44371 6.31947C5.44371 6.4745 5.50747 6.61829 5.6375 6.75144C5.76752 6.88459 5.92694 6.95148 6.11511 6.95148C6.43518 6.95148 6.65273 6.76144 6.76775 6.38011C6.88777 6.01566 7.03656 5.73997 7.21221 5.55305C7.38726 5.36612 7.66044 5.27236 8.03114 5.27236C8.34872 5.27236 8.60753 5.36551 8.80757 5.55055C9.00824 5.73622 9.10889 5.96376 9.10889 6.2332C9.10889 6.37135 9.07638 6.49951 9.00949 6.61702C8.9451 6.73517 8.86383 6.84207 8.76694 6.93834C8.67129 7.03399 8.51564 7.17715 8.29933 7.36594C8.05429 7.58162 7.85736 7.76728 7.71295 7.92482C7.56792 8.08173 7.45164 8.26302 7.36349 8.47119C7.27597 8.67937 7.23222 8.92379 7.23222 9.20699C7.23222 9.43329 7.29223 9.60333 7.41163 9.71772C7.53041 9.83275 7.67919 9.88963 7.85485 9.88963C8.1918 9.88963 8.39247 9.71459 8.45623 9.36388C8.49374 9.19886 8.52124 9.0832 8.54 9.01755C8.55813 8.95191 8.58501 8.88565 8.61814 8.82C8.65127 8.75436 8.70378 8.68185 8.77255 8.60245C8.84131 8.52306 8.93446 8.43117 9.04824 8.32676C9.4627 7.95605 9.75089 7.69225 9.91093 7.53534C10.0697 7.37905 10.2079 7.19277 10.3248 6.97646C10.4417 6.76078 10.4985 6.50948 10.4985 6.22318C10.4985 5.85935 10.3979 5.5224 10.1935 5.21233C9.9897 4.90164 9.70026 4.65658 9.32579 4.47654C8.95259 4.2965 8.52062 4.20585 8.03176 4.20585L8.03303 4.20464ZM7.91301 10.3492C7.69608 10.3492 7.51479 10.4211 7.36601 10.5667C7.21722 10.7124 7.14346 10.8899 7.14346 11.1031C7.14346 11.3432 7.22035 11.5295 7.37476 11.6626C7.52792 11.7958 7.70795 11.8627 7.91363 11.8627C8.11118 11.8627 8.28746 11.7945 8.43874 11.6601C8.59002 11.5257 8.66567 11.34 8.66567 11.1037C8.66567 10.8912 8.5944 10.7124 8.44936 10.5674C8.30308 10.4217 8.12617 10.3498 7.91299 10.3498L7.91301 10.3492Z" fill="#BDBDBD"/>
</svg>
