<svg width="33" height="28" viewBox="0 0 33 28" fill="none" xmlns="http://www.w3.org/2000/svg">
<rect width="32.0093" height="26.8152" fill="black" fill-opacity="0" transform="translate(0.942383 0.560059)"/>
<path d="M12.9814 25.7506C12.0278 25.7506 12.1898 25.391 11.8609 24.4841L9.05664 15.266L30.6427 2.47559" fill="white"/>
<path d="M12.9814 25.7511C13.7173 25.7511 14.0425 25.415 14.4532 25.0161L18.378 21.2044L13.4823 18.2559" fill="white"/>
<path d="M13.4822 18.2563L25.3447 27.01C26.6984 27.756 27.6754 27.3697 28.0125 25.7547L32.8412 3.02776C33.3355 1.04811 32.0856 0.150234 30.7907 0.73745L2.43693 11.6573C0.501521 12.4327 0.512804 13.5112 2.08414 13.9917L9.36035 16.26L26.2055 5.64536C27.0008 5.16372 27.7306 5.42266 27.1316 5.95367" fill="white"/>
</svg>
