<svg width="40" height="36" viewBox="0 0 40 36" fill="none" xmlns="http://www.w3.org/2000/svg">
<path d="M2.55391 15.0845H10.5978C11.3008 15.0845 11.9395 15.3716 12.402 15.8342C12.8646 16.2967 13.1517 16.9354 13.1517 17.6384V32.8412C13.1517 33.5443 12.8646 34.1829 12.402 34.6454C11.9395 35.108 11.3008 35.3951 10.5978 35.3951H2.55391C1.85092 35.3951 1.21227 35.108 0.749687 34.6454C0.287143 34.1829 1.77034e-07 33.5442 1.77034e-07 32.8412V17.6384C1.77034e-07 16.9354 0.287143 16.2967 0.749718 15.8342C1.21226 15.3716 1.85088 15.0845 2.55391 15.0845H2.55391ZM10.5978 16.3313H2.55391C2.19513 16.3313 1.86847 16.4786 1.6313 16.7158C1.39411 16.9529 1.24687 17.2796 1.24687 17.6384V32.8412C1.24687 33.2 1.39411 33.5267 1.63127 33.7638C1.86847 34.001 2.19513 34.1483 2.55391 34.1483H10.5978C10.9566 34.1483 11.2833 34.001 11.5204 33.7638C11.7576 33.5267 11.9049 33.2 11.9049 32.8412V17.6384C11.9049 17.2796 11.7576 16.9529 11.5204 16.7158C11.2833 16.4786 10.9566 16.3313 10.5978 16.3313H10.5978Z" fill="url(#paint0_linear)"/>
<path d="M12.1461 16.4222C11.8368 16.5701 11.7059 16.9409 11.8539 17.2502C12.0018 17.5595 12.3725 17.6903 12.6818 17.5424C12.7067 17.5306 21.2397 13.5744 19.9902 1.35672C21.7177 1.04148 27.249 0.916269 24.8515 13.0658L24.8509 13.0657C24.7842 13.4034 25.004 13.7313 25.3418 13.798C25.4281 13.815 25.5137 13.8133 25.5946 13.7958C26.6214 13.6641 42.6949 11.7146 37.5503 19.605L37.5486 19.6039C37.3899 19.8473 37.4231 20.1605 37.6107 20.3653C37.8454 20.6706 39.6289 23.1483 36.7918 24.5285L36.7894 24.528C36.4972 24.6702 36.3661 25.0105 36.4788 25.3085C36.5632 25.5616 37.4963 28.52 35.3056 29.4588L35.3036 29.4581C35.0486 29.5673 34.904 29.8264 34.9282 30.0884C34.9247 30.6022 34.7887 34.732 31.2959 34.2567L31.2961 34.2549C31.2642 34.2506 31.2324 34.2487 31.2011 34.2492H16.038L12.8146 32.4765C12.5133 32.3111 12.1349 32.4212 11.9695 32.7225C11.8041 33.0238 11.9142 33.4021 12.2155 33.5675L15.5471 35.3998C15.6435 35.4608 15.7577 35.4961 15.8801 35.4961H31.1912C35.4954 36.0411 36.0809 31.7711 36.1586 30.4246C38.4057 29.1896 38.0594 26.5226 37.7952 25.4006C40.8245 23.6213 39.4552 20.9013 38.8173 19.9222C44.1539 11.1784 29.9156 12.1005 26.2288 12.4738C28.8642 -2.43444 19.7916 0.0833805 19.1595 0.275477C18.8572 0.350062 18.6517 0.640671 18.6909 0.957328L18.6912 0.957298C20.1482 12.7152 12.1689 16.4112 12.1461 16.4222L12.1461 16.4222Z" fill="url(#paint1_linear)"/>
<defs>
<linearGradient id="paint0_linear" x1="0" y1="15.0845" x2="17.8037" y2="20.7334" gradientUnits="userSpaceOnUse">
<stop stop-color="#C13C1E"/>
<stop offset="1" stop-color="#F2994A"/>
</linearGradient>
<linearGradient id="paint1_linear" x1="11.793" y1="0" x2="48.3012" y2="14.1965" gradientUnits="userSpaceOnUse">
<stop stop-color="#C13C1E"/>
<stop offset="1" stop-color="#F2994A"/>
</linearGradient>
</defs>
</svg>
