<svg width="116" height="116" viewBox="0 0 116 116" fill="none" xmlns="http://www.w3.org/2000/svg">
<path d="M3.0014 1.5007C3.0014 0.671886 2.32951 0 1.5007 0C0.671886 0 0 0.671886 0 1.5007V8.96364C0 9.79245 0.671886 10.4643 1.5007 10.4643C2.32951 10.4643 3.0014 9.79245 3.0014 8.96364V1.5007Z" transform="translate(55.3191) scale(2)" fill="#156EDC"/>
<path d="M3.0014 1.5007C3.0014 0.671886 2.32951 0 1.5007 0C0.671886 0 0 0.671886 0 1.5007V8.96364C0 9.79245 0.671886 10.4643 1.5007 10.4643C2.32951 10.4643 3.0014 9.79245 3.0014 8.96364V1.5007Z" transform="translate(54.5952 95.0713) scale(2)" fill="#156EDC"/>
<path d="M3.0014 1.5007C3.0014 0.671886 2.32951 0 1.5007 0C0.671886 0 0 0.671886 0 1.5007V8.96364C0 9.79245 0.671886 10.4643 1.5007 10.4643C2.32951 10.4643 3.0014 9.79245 3.0014 8.96364V1.5007Z" transform="translate(70.3755 1.29932) scale(2) rotate(15)" fill="#156EDC"/>
<path d="M3.0014 1.5007C3.0014 0.671886 2.32951 0 1.5007 0C0.671886 0 0 0.671886 0 1.5007V8.96364C0 9.79245 0.671886 10.4643 1.5007 10.4643C2.32951 10.4643 3.0014 9.79245 3.0014 8.96364V1.5007Z" transform="translate(40.3938 2.68994) scale(2) rotate(-15)" fill="#156EDC"/>
<path d="M3.0014 1.5007C3.0014 0.671886 2.32951 0 1.5007 0C0.671886 0 0 0.671886 0 1.5007V8.96364C0 9.79245 0.671886 10.4643 1.5007 10.4643C2.32951 10.4643 3.0014 9.79245 3.0014 8.96364V1.5007Z" transform="translate(84.6853 6.40625) scale(2) rotate(30)" fill="#156EDC"/>
<path d="M3.0014 1.5007C3.0014 0.671886 2.32951 0 1.5007 0C0.671886 0 0 0.671886 0 1.5007V8.96364C0 9.79245 0.671886 10.4643 1.5007 10.4643C2.32951 10.4643 3.0014 9.79245 3.0014 8.96364V1.5007Z" transform="translate(26.6853 9.0874) scale(2) rotate(-30)" fill="#156EDC"/>
<path d="M3.0014 1.5007C3.0014 0.671886 2.32951 0 1.5007 0C0.671886 0 0 0.671886 0 1.5007V8.96364C0 9.79245 0.671886 10.4643 1.5007 10.4643C2.32951 10.4643 3.0014 9.79245 3.0014 8.96364V1.5007Z" transform="translate(97.0896 15.0193) scale(2) rotate(45)" fill="#156EDC"/>
<path d="M3.0014 1.5007C3.0014 0.671886 2.32951 0 1.5007 0C0.671886 0 0 0.671886 0 1.5007V8.96364C0 9.79245 0.671886 10.4643 1.5007 10.4643C2.32951 10.4643 3.0014 9.79245 3.0014 8.96364V1.5007Z" transform="translate(15.0908 18.8425) scale(2) rotate(-45)" fill="#156EDC"/>
<path d="M3.0014 1.5007C3.0014 0.671886 2.32951 0 1.5007 0C0.671886 0 0 0.671886 0 1.5007V8.96364C0 9.79245 0.671886 10.4643 1.5007 10.4643C2.32951 10.4643 3.0014 9.79245 3.0014 8.96364V1.5007Z" transform="translate(106.943 26.5913) scale(2) rotate(60)" fill="#156EDC"/>
<path d="M3.0014 1.5007C3.0014 0.671886 2.32951 0 1.5007 0C0.671886 0 0 0.671886 0 1.5007V8.96364C0 9.79245 0.671886 10.4643 1.5007 10.4643C2.32951 10.4643 3.0014 9.79245 3.0014 8.96364V1.5007Z" transform="translate(6.24976 31.3203) scale(2) rotate(-60)" fill="#156EDC"/>
<path d="M3.0014 1.5007C3.0014 0.671886 2.32951 0 1.5007 0C0.671886 0 0 0.671886 0 1.5007V8.96364C0 9.79245 0.671886 10.4643 1.5007 10.4643C2.32951 10.4643 3.0014 9.79245 3.0014 8.96364V1.5007Z" transform="translate(113.422 40.3594) scale(2) rotate(75)" fill="#156EDC"/>
<path d="M3.0014 1.5007C3.0014 0.671886 2.32951 0 1.5007 0C0.671886 0 0 0.671886 0 1.5007V8.96364C0 9.79245 0.671886 10.4643 1.5007 10.4643C2.32951 10.4643 3.0014 9.79245 3.0014 8.96364V1.5007Z" transform="translate(1.2998 45.5449) scale(2) rotate(-75)" fill="#156EDC"/>
<path d="M3.0014 1.5007C3.0014 0.671886 2.32951 0 1.5007 0C0.671886 0 0 0.671886 0 1.5007V8.96364C0 9.79245 0.671886 10.4643 1.5007 10.4643C2.32951 10.4643 3.0014 9.79245 3.0014 8.96364V1.5007Z" transform="translate(116 55.3191) scale(2) rotate(90)" fill="#156EDC"/>
<path d="M3.0014 1.5007C3.0014 0.671886 2.32951 0 1.5007 0C0.671886 0 0 0.671886 0 1.5007V8.96364C0 9.79245 0.671886 10.4643 1.5007 10.4643C2.32951 10.4643 3.0014 9.79245 3.0014 8.96364V1.5007Z" transform="translate(20.9287 54.6775) scale(2) rotate(90)" fill="#156EDC"/>
<path d="M3.0014 1.5007C3.0014 0.671886 2.32951 0 1.5007 0C0.671886 0 0 0.671886 0 1.5007V8.96364C0 9.79245 0.671886 10.4643 1.5007 10.4643C2.32951 10.4643 3.0014 9.79245 3.0014 8.96364V1.5007Z" transform="translate(114.731 70.386) scale(2) rotate(105)" fill="#156EDC"/>
<path d="M3.0014 1.5007C3.0014 0.671886 2.32951 0 1.5007 0C0.671886 0 0 0.671886 0 1.5007V8.96364C0 9.79245 0.671886 10.4643 1.5007 10.4643C2.32951 10.4643 3.0014 9.79245 3.0014 8.96364V1.5007Z" transform="translate(2.60693 75.6216) scale(2) rotate(-105)" fill="#156EDC"/>
<path d="M3.0014 1.5007C3.0014 0.671886 2.32951 0 1.5007 0C0.671886 0 0 0.671886 0 1.5007V8.96364C0 9.79245 0.671886 10.4643 1.5007 10.4643C2.32951 10.4643 3.0014 9.79245 3.0014 8.96364V1.5007Z" transform="translate(109.627 84.6853) scale(2) rotate(120)" fill="#156EDC"/>
<path d="M3.0014 1.5007C3.0014 0.671886 2.32951 0 1.5007 0C0.671886 0 0 0.671886 0 1.5007V8.96364C0 9.79245 0.671886 10.4643 1.5007 10.4643C2.32951 10.4643 3.0014 9.79245 3.0014 8.96364V1.5007Z" transform="translate(9.0874 89.3208) scale(2) rotate(-120)" fill="#156EDC"/>
<path d="M3.0014 1.5007C3.0014 0.671886 2.32951 0 1.5007 0C0.671886 0 0 0.671886 0 1.5007V8.96364C0 9.79245 0.671886 10.4643 1.5007 10.4643C2.32951 10.4643 3.0014 9.79245 3.0014 8.96364V1.5007Z" transform="translate(100.984 97.1133) scale(2) rotate(135)" fill="#156EDC"/>
<path d="M3.0014 1.5007C3.0014 0.671886 2.32951 0 1.5007 0C0.671886 0 0 0.671886 0 1.5007V8.96364C0 9.79245 0.671886 10.4643 1.5007 10.4643C2.32951 10.4643 3.0014 9.79245 3.0014 8.96364V1.5007Z" transform="translate(18.8425 100.896) scale(2) rotate(-135)" fill="#156EDC"/>
<path d="M3.0014 1.5007C3.0014 0.671886 2.32951 0 1.5007 0C0.671886 0 0 0.671886 0 1.5007V8.96364C0 9.79245 0.671886 10.4643 1.5007 10.4643C2.32951 10.4643 3.0014 9.79245 3.0014 8.96364V1.5007Z" transform="translate(89.3164 106.818) scale(2) rotate(150)" fill="#156EDC"/>
<path d="M3.0014 1.5007C3.0014 0.671886 2.32951 0 1.5007 0C0.671886 0 0 0.671886 0 1.5007V8.96364C0 9.79245 0.671886 10.4643 1.5007 10.4643C2.32951 10.4643 3.0014 9.79245 3.0014 8.96364V1.5007Z" transform="translate(31.3203 109.709) scale(2) rotate(-150)" fill="#156EDC"/>
<path d="M3.0014 1.5007C3.0014 0.671886 2.32951 0 1.5007 0C0.671886 0 0 0.671886 0 1.5007V8.96364C0 9.79245 0.671886 10.4643 1.5007 10.4643C2.32951 10.4643 3.0014 9.79245 3.0014 8.96364V1.5007Z" transform="translate(75.6216 113.339) scale(2) rotate(165)" fill="#156EDC"/>
<path d="M3.0014 1.5007C3.0014 0.671886 2.32951 0 1.5007 0C0.671886 0 0 0.671886 0 1.5007V8.96364C0 9.79245 0.671886 10.4643 1.5007 10.4643C2.32951 10.4643 3.0014 9.79245 3.0014 8.96364V1.5007Z" transform="translate(45.5449 114.812) scale(2) rotate(-165)" fill="#156EDC"/>
</svg>
