<svg width="50" height="50" viewBox="0 0 50 50" fill="none" xmlns="http://www.w3.org/2000/svg">
<path d="M50 0H0V50H50V0Z" fill="#61A8DE"/>
<path d="M34.2122 0.120232L0.776591 13.1497C-0.306395 13.5718 -0.240786 15.1259 0.874017 15.455L9.37037 17.964L12.5412 28.0254C12.8724 29.0763 14.2042 29.395 14.9752 28.6078L19.368 24.1224L27.9872 30.4491C29.042 31.2233 30.5442 30.6481 30.812 29.3674L36.5205 2.075C36.8 0.73814 35.4848 -0.375675 34.2122 0.120232ZM30.0203 6.17709L14.4896 19.9109C14.3348 20.0478 14.2363 20.2373 14.2132 20.4426L13.6153 25.7581C13.5958 25.9314 13.3532 25.9543 13.3014 25.7878L10.8413 17.8606C10.7286 17.4977 10.8755 17.1045 11.1984 16.9043L29.5385 5.52956C29.9603 5.26779 30.3921 5.84839 30.0203 6.17709Z" transform="translate(5.15796 10.917)" fill="white"/>
</svg>
