<svg width="34" height="34" viewBox="0 0 34 34" version="1.1" xmlns="http://www.w3.org/2000/svg" xmlns:xlink="http://www.w3.org/1999/xlink">
<g id="Canvas" fill="none">
<g id="Crosshair">
<path fill-rule="evenodd" clip-rule="evenodd" d="M 18.4782 30.9677L 18.4782 27.1693C 18.4782 26.3529 17.8164 25.691 17 25.691C 16.1836 25.691 15.5217 26.3529 15.5217 27.1693L 15.5217 30.9629C 8.86955 30.2647 3.72409 25.0372 3.03485 18.4782L 6.83066 18.4782C 7.64703 18.4782 8.30892 17.8163 8.30892 16.9999C 8.30892 16.1836 7.64703 15.5217 6.83066 15.5217L 3.03485 15.5217C 3.72557 8.95007 8.86955 3.71444 15.5217 3.03259L 15.5217 6.83061C 15.5217 7.64698 16.1836 8.30888 17 8.30888C 17.8164 8.30888 18.4782 7.64698 18.4782 6.83061L 18.4782 3.0374C 25.1304 3.73551 30.2759 8.96301 30.9651 15.5217L 27.1693 15.5217C 26.3529 15.5217 25.691 16.1836 25.691 16.9999C 25.691 17.8163 26.3529 18.4782 27.1693 18.4782L 30.9651 18.4782C 30.2744 25.0498 25.1304 30.2858 18.4782 30.9677ZM 17.0255 0.00073913C 17.0233 0.00073913 17.0211 0 17.0188 0L 17.0152 0L 17 0C 7.62635 0 0 7.62635 0 17C 0 26.3655 7.61267 33.9856 16.9745 33.9996C 16.9767 33.9996 16.9789 34 16.9812 34L 16.9848 34L 17 34C 26.3737 34 34 26.374 34 17C 34 7.63485 26.3873 0.014413 17.0255 0.00073913Z" fill="#8E8E93"/>
</g>
</g>
</svg>

