<svg width="120" height="40" viewBox="0 0 120 40" fill="none" xmlns="http://www.w3.org/2000/svg">
<path d="M110.135 0.00013H9.53468C9.16798 0.00013 8.80568 0.00013 8.43995 0.00213C8.1338 0.00413 7.83009 0.00994 7.521 0.01483C6.84951 0.0227318 6.17961 0.0818063 5.5171 0.19154C4.85552 0.303663 4.21467 0.515046 3.61622 0.81854C3.0185 1.1246 2.47235 1.5223 1.99757 1.9972C1.5203 2.47077 1.12246 3.01815 0.81935 3.61829C0.5154 4.21724 0.304641 4.85907 0.19435 5.52161C0.0830109 6.18331 0.0230984 6.85265 0.01515 7.52361C0.00587 7.83021 0.00489 8.13783 0 8.44447V31.5587C0.00489 31.8692 0.00587 32.17 0.01515 32.4806C0.0231008 33.1516 0.0830134 33.8209 0.19435 34.4825C0.304336 35.1455 0.515108 35.7877 0.81935 36.3868C1.12233 36.985 1.52022 37.5302 1.99757 38.0011C2.47054 38.4781 3.01705 38.8761 3.61622 39.1798C4.21467 39.4841 4.85545 39.6968 5.5171 39.8106C6.17972 39.9195 6.84956 39.9786 7.521 39.9874C7.83009 39.9942 8.1338 39.9981 8.43995 39.9981C8.80567 40.0001 9.168 40.0001 9.53468 40.0001H110.135C110.494 40.0001 110.859 40.0001 111.219 39.9981C111.523 39.9981 111.836 39.9942 112.141 39.9874C112.811 39.9791 113.479 39.92 114.141 39.8106C114.804 39.696 115.448 39.4834 116.049 39.1798C116.647 38.8759 117.193 38.478 117.666 38.0011C118.142 37.5284 118.541 36.9836 118.848 36.3868C119.15 35.7872 119.358 35.1451 119.467 34.4825C119.578 33.8208 119.64 33.1516 119.652 32.4806C119.656 32.17 119.656 31.8692 119.656 31.5587C119.664 31.1954 119.664 30.8341 119.664 30.4649V9.53626C119.664 9.17005 119.664 8.80677 119.656 8.44447C119.656 8.13783 119.656 7.83021 119.652 7.52357C119.64 6.85255 119.578 6.18337 119.467 5.52157C119.358 4.85941 119.149 4.21763 118.848 3.61825C118.23 2.41533 117.252 1.43616 116.049 0.81845C115.448 0.515697 114.804 0.30437 114.141 0.19145C113.48 0.0812328 112.811 0.0221378 112.141 0.01469C111.836 0.00981 111.523 0.00395 111.219 0.002C110.859 0 110.494 0 110.135 0V0.00013Z" fill="#A6A6A6"/>
<path d="M8.44487 39.1251C8.14019 39.1251 7.84287 39.1212 7.54058 39.1144C6.91436 39.1063 6.2896 39.0518 5.67144 38.9513C5.09503 38.8521 4.53664 38.6674 4.0147 38.4034C3.49754 38.1417 3.02585 37.7984 2.6177 37.3868C2.20364 36.9801 1.85891 36.5084 1.59719 35.9903C1.33258 35.4689 1.14945 34.91 1.05419 34.3331C0.951311 33.7133 0.895651 33.0865 0.887687 32.4581C0.881347 32.2472 0.873047 31.545 0.873047 31.545V8.44448C0.873047 8.44448 0.881887 7.75307 0.887737 7.54994C0.895363 6.92262 0.950699 6.29679 1.05327 5.67787C1.14871 5.09939 1.33197 4.53889 1.59673 4.01577C1.85749 3.49808 2.2003 3.026 2.61187 2.61782C3.02297 2.20576 3.49617 1.86074 4.01421 1.59535C4.53495 1.33223 5.09228 1.14887 5.66753 1.05141C6.28772 0.949973 6.91465 0.895133 7.54304 0.887347L8.44536 0.875137H111.214L112.127 0.887837C112.75 0.895237 113.371 0.949587 113.985 1.05043C114.566 1.14911 115.13 1.33375 115.656 1.59828C116.694 2.13312 117.539 2.9793 118.071 4.01821C118.332 4.53771 118.512 5.09364 118.607 5.66713C118.71 6.29113 118.768 6.92188 118.78 7.55434C118.783 7.83754 118.783 8.14174 118.783 8.44448C118.791 8.81948 118.791 9.17641 118.791 9.53627V30.4649C118.791 30.8282 118.791 31.1827 118.783 31.5401C118.783 31.8653 118.783 32.1632 118.779 32.4698C118.768 33.091 118.711 33.7105 118.608 34.3233C118.515 34.9044 118.333 35.4676 118.068 35.9933C117.805 36.5058 117.462 36.9734 117.053 37.379C116.644 37.7928 116.172 38.1381 115.653 38.4015C115.128 38.6675 114.566 38.8529 113.985 38.9513C113.367 39.0523 112.742 39.1068 112.116 39.1144C111.823 39.1212 111.517 39.1251 111.219 39.1251L110.135 39.1271L8.44487 39.1251Z" fill="black"/>
<path fill-rule="evenodd" clip-rule="evenodd" d="M74.6797 29.0763C73.0449 29.0763 71.8486 28.2677 71.7109 27.0363L69.8086 27.0362C69.9287 29.2823 71.7881 30.7032 74.542 30.7032C77.4853 30.7032 79.3359 29.2481 79.3359 26.9249C79.3359 25.1085 78.2773 24.085 75.7295 23.4825L74.3613 23.1465C72.7607 22.7511 72.1064 22.2345 72.1064 21.3565C72.1064 20.255 73.1308 19.4981 74.6279 19.4981C76.125 19.4981 77.1494 20.2462 77.2617 21.4854H79.1377C79.0771 19.3428 77.2783 17.8712 74.6543 17.8712C72.0029 17.8712 70.1357 19.3428 70.1357 21.4854C70.1357 23.2159 71.1943 24.2823 73.4746 24.8331L75.084 25.2208C76.6934 25.6163 77.373 26.1934 77.373 27.1573C77.373 28.2677 76.2461 29.0763 74.6797 29.0763ZM42.3027 27.1398H37.5693L36.4326 30.4962H34.4277L38.9111 18.0782H40.9941L45.4775 30.4962H43.4385L42.3027 27.1398ZM38.0596 25.591H41.8116L39.962 20.1437H39.9102L38.0596 25.591ZM51.3818 30.591C53.6543 30.591 55.1602 28.7833 55.1602 25.9699C55.1602 23.1642 53.6455 21.3478 51.3477 21.3478C50.1653 21.3096 49.0577 21.9246 48.4648 22.9484H48.4307V21.4425H46.6318V33.4913H48.4902V29.007H48.5332C49.1008 30.0372 50.2072 30.6524 51.3818 30.591ZM53.25 25.9699C53.25 24.1369 52.3027 22.9318 50.8574 22.9318C49.4375 22.9318 48.4824 24.1622 48.4824 25.9699C48.4824 27.7941 49.4375 29.0158 50.8574 29.0158C52.3027 29.0158 53.25 27.8195 53.25 25.9699ZM61.3467 30.591C63.6191 30.591 65.125 28.7833 65.125 25.9699C65.125 23.1642 63.6103 21.3478 61.3125 21.3478C60.1301 21.3097 59.0225 21.9246 58.4296 22.9484H58.3955V21.4425H56.5966V33.4913H58.455V29.007H58.498C59.0656 30.0372 60.1721 30.6524 61.3467 30.591ZM63.2148 25.9699C63.2148 24.1369 62.2676 22.9318 60.8223 22.9318C59.4023 22.9318 58.4473 24.1622 58.4473 25.9699C58.4473 27.7941 59.4023 29.0158 60.8223 29.0158C62.2676 29.0158 63.2148 27.8195 63.2148 25.9699ZM83.3467 19.2999V21.4425H85.0684V22.9142H83.3467V27.9054C83.3467 28.6808 83.6914 29.0421 84.4482 29.0421C84.6526 29.0386 84.8567 29.0242 85.0596 28.9991V30.462C84.7193 30.5256 84.3734 30.5544 84.0273 30.548C82.1943 30.548 81.4795 29.8595 81.4795 28.1036V22.9142H80.1631V21.4425H81.4795V19.2999H83.3467ZM90.3594 21.3312C87.7432 21.3312 86.0655 23.1212 86.0655 25.9699C86.0655 28.8263 87.7266 30.6085 90.3594 30.6085C92.9932 30.6085 94.6543 28.8263 94.6543 25.9699C94.6543 23.1212 92.9844 21.3312 90.3594 21.3312ZM92.7608 25.9699C92.7608 24.0158 91.8653 22.8624 90.3594 22.8624C88.8535 22.8624 87.959 24.0245 87.959 25.9699C87.959 27.9318 88.8535 29.0763 90.3594 29.0763C91.8653 29.0763 92.7607 27.9318 92.7607 25.9699H92.7608ZM97.959 21.4425H96.1865L96.1865 30.4962H98.0449V25.1261C97.983 24.5828 98.1617 24.0396 98.534 23.6391C98.9063 23.2387 99.4351 23.0209 99.9814 23.0431C100.264 23.0348 100.546 23.0728 100.816 23.1554V21.4171C100.607 21.3703 100.394 21.347 100.18 21.3478C99.1581 21.3088 98.2492 21.9915 98.002 22.9835H97.959V21.4425ZM109.385 27.837C109.135 29.4806 107.534 30.6085 105.486 30.6085C102.853 30.6085 101.218 28.8439 101.218 26.0128C101.218 23.173 102.861 21.3312 105.408 21.3312C107.913 21.3312 109.488 23.0519 109.488 25.797V26.4337H103.094V26.546C103.034 27.2201 103.267 27.8872 103.733 28.3779C104.199 28.8686 104.853 29.1354 105.529 29.1105C106.431 29.195 107.281 28.6771 107.62 27.837L109.385 27.837ZM107.629 25.1349H103.103C103.101 24.5236 103.344 23.9371 103.777 23.5056C104.21 23.0741 104.797 22.8334 105.408 22.837C106.015 22.824 106.599 23.0646 107.021 23.5008C107.442 23.937 107.663 24.5292 107.629 25.1349Z" fill="white"/>
<path fill-rule="evenodd" clip-rule="evenodd" d="M59.0937 8.43713H59.9824V14.6979H59.0937V8.43713ZM39.9317 9.54901C39.3879 8.97468 38.6151 8.67452 37.8262 8.73113H35.6709V14.698H37.8262C39.6035 14.698 40.6338 13.6022 40.6338 11.696C40.7333 10.9113 40.4756 10.1233 39.9317 9.54901ZM37.7226 13.8541H36.5976V9.57434H37.7226C38.2835 9.54322 38.8289 9.76436 39.2096 10.1773C39.5904 10.5902 39.7668 11.1517 39.6904 11.7081C39.7728 12.2669 39.5989 12.8331 39.2172 13.2494C38.8355 13.6657 38.2865 13.8878 37.7226 13.8541ZM41.6807 12.4445C41.6034 11.6374 41.9905 10.8562 42.6794 10.4287C43.3683 10.0012 44.2401 10.0012 44.929 10.4287C45.6179 10.8562 46.0049 11.6374 45.9277 12.4445C46.0064 13.2525 45.6197 14.0351 44.9302 14.4635C44.2407 14.892 43.3677 14.892 42.6782 14.4635C41.9886 14.0351 41.602 13.2525 41.6807 12.4445ZM43.8057 10.8976C44.5752 10.8976 45.0137 11.4684 45.0137 12.4445H45.0137C45.0137 13.4245 44.5752 13.9948 43.8057 13.9948C43.0332 13.9948 42.5987 13.4284 42.5987 12.4445C42.5987 11.4684 43.0332 10.8976 43.8057 10.8976ZM51.5732 14.6979H50.6514L49.7207 11.3815H49.6504L48.7236 14.6979H47.8105L46.5693 10.195H47.4707L48.2773 13.631H48.3438L49.2695 10.195H50.1221L51.0479 13.631H51.1182L51.9209 10.195H52.8096L51.5732 14.6979ZM54.709 10.195H53.8535L53.8535 14.6979H54.7422V12.0636C54.7103 11.7639 54.8109 11.4653 55.0175 11.246C55.2242 11.0266 55.5163 10.9085 55.8174 10.9225C56.4746 10.9225 56.7891 11.2824 56.7891 12.006V14.6978H57.6777V11.7828C57.7429 11.3426 57.6043 10.8965 57.3011 10.5707C56.9979 10.2449 56.563 10.0747 56.1191 10.108C55.5459 10.0614 55.0063 10.3836 54.7754 10.9103H54.709V10.195ZM62.2167 10.4287C61.5277 10.8562 61.1406 11.6373 61.2178 12.4445C61.1392 13.2525 61.5259 14.0351 62.2155 14.4635C62.9051 14.8919 63.778 14.8919 64.4676 14.4635C65.1572 14.0351 65.5439 13.2525 65.4653 12.4445C65.5425 11.6373 65.1554 10.8562 64.4664 10.4287C63.7774 10.0011 62.9057 10.0011 62.2167 10.4287ZM64.5508 12.4445C64.5508 11.4684 64.1123 10.8976 63.3428 10.8976C62.5703 10.8976 62.1358 11.4684 62.1358 12.4445C62.1358 13.4284 62.5703 13.9948 63.3428 13.9948C64.1123 13.9948 64.5508 13.4245 64.5508 12.4445ZM68.0757 12.0802C67.0044 12.1466 66.4009 12.6139 66.4009 13.4245C66.4024 13.8088 66.5664 14.1745 66.8524 14.4313C67.1383 14.688 67.5196 14.8118 67.9019 14.7721C68.4472 14.7973 68.9638 14.5272 69.2544 14.0651H69.3247V14.6979H70.1802V11.6212C70.1802 10.6701 69.5435 10.1081 68.4146 10.1081C67.3931 10.1081 66.6655 10.6041 66.5747 11.3776H67.4351C67.5337 11.0592 67.8774 10.8771 68.3735 10.8771C68.981 10.8771 69.2954 11.1456 69.2954 11.6212V12.0099L68.0757 12.0802ZM69.2954 13.0397V12.6632L68.1958 12.7335C67.5757 12.775 67.2944 12.986 67.2944 13.3829C67.2944 13.7882 67.646 14.0241 68.1294 14.0241C68.4156 14.053 68.7013 13.9646 68.9211 13.779C69.1409 13.5935 69.276 13.3267 69.2954 13.0397ZM73.2173 10.1203C72.0796 10.1203 71.3481 11.0216 71.3481 12.4445C71.3481 13.8707 72.0718 14.7721 73.2173 14.7721C73.798 14.7935 74.3427 14.4909 74.6313 13.9864H74.7017V14.6979H75.5532V8.43713H74.6645V10.9103H74.5981C74.3298 10.4016 73.7918 10.0938 73.2173 10.1203ZM72.2661 12.4445C72.2661 13.3996 72.7163 13.9743 73.4693 13.9743C74.2183 13.9743 74.6812 13.3913 74.6812 12.4484C74.6812 11.5099 74.2134 10.9186 73.4693 10.9186C72.7212 10.9186 72.2661 11.4972 72.2661 12.4445H72.2661ZM80.2287 10.4287C79.5398 10.8562 79.1528 11.6374 79.23 12.4445C79.1513 13.2525 79.538 14.0351 80.2275 14.4635C80.917 14.892 81.79 14.892 82.4795 14.4635C83.1691 14.0351 83.5557 13.2525 83.4771 12.4445C83.5543 11.6374 83.1672 10.8562 82.4783 10.4287C81.7894 10.0012 80.9176 10.0012 80.2287 10.4287ZM82.563 12.4445C82.563 11.4684 82.1245 10.8976 81.355 10.8976C80.5825 10.8976 80.148 11.4684 80.148 12.4445C80.148 13.4284 80.5826 13.9948 81.355 13.9948C82.1245 13.9948 82.563 13.4245 82.563 12.4445ZM85.5249 10.195H84.6694V14.6979H85.5581V12.0636C85.5262 11.7639 85.6268 11.4653 85.8335 11.246C86.0401 11.0266 86.3323 10.9085 86.6333 10.9225C87.2905 10.9225 87.605 11.2824 87.605 12.006V14.6978H88.4936V11.7828C88.5588 11.3426 88.4202 10.8965 88.117 10.5707C87.8138 10.2449 87.3789 10.0747 86.9351 10.108C86.3619 10.0614 85.8222 10.3836 85.5913 10.9103H85.5249V10.195ZM93.5151 9.07386V10.2155H94.4907V10.964H93.5151V13.2794C93.5151 13.7511 93.7095 13.9577 94.1519 13.9577C94.2651 13.9573 94.3783 13.9504 94.4907 13.9371V14.6774C94.3311 14.7059 94.1694 14.7211 94.0073 14.7228C93.019 14.7228 92.6255 14.3751 92.6255 13.507V10.964H91.9106V10.2154H92.6255V9.07386H93.5151ZM96.5854 8.43713H95.7046L95.7046 14.6979H96.5933V12.068C96.5658 11.759 96.6761 11.4536 96.8947 11.2335C97.1133 11.0134 97.4179 10.901 97.7271 10.9264C98.355 10.9264 98.69 11.2906 98.69 12.0099V14.6979H99.5795V11.7907C99.6384 11.3526 99.4989 10.9112 99.199 10.5866C98.8991 10.2619 98.4701 10.0879 98.0288 10.1119C97.4469 10.0647 96.8978 10.3873 96.6558 10.9186H96.5854V8.43713ZM104.761 13.4821C104.512 14.3314 103.69 14.8802 102.81 14.7848C102.21 14.8006 101.633 14.5518 101.232 14.1042C100.831 13.6566 100.648 13.0556 100.73 12.4606C100.65 11.8639 100.833 11.2619 101.231 10.8106C101.63 10.3592 102.204 10.1029 102.806 10.108C104.059 10.108 104.815 10.964 104.815 12.378V12.6881H101.635V12.7379C101.607 13.0721 101.721 13.4026 101.95 13.6482C102.178 13.8938 102.499 14.0317 102.834 14.0279C103.269 14.0801 103.692 13.8645 103.906 13.482L104.761 13.4821ZM103.91 12.0309H101.635C101.631 11.7204 101.753 11.4214 101.972 11.2018C102.192 10.9822 102.491 10.8605 102.801 10.8644C103.108 10.8574 103.403 10.98 103.614 11.2022C103.825 11.4243 103.932 11.7253 103.91 12.0309Z" fill="white"/>
<path fill-rule="evenodd" clip-rule="evenodd" d="M23.1519 8.7204C23.2487 9.98463 22.8489 11.2368 22.0374 12.211C21.25 13.1903 20.057 13.7543 18.8006 13.7414C18.7207 12.5136 19.1321 11.3043 19.9443 10.38C20.7668 9.44318 21.9121 8.85062 23.1519 8.7204ZM27.1256 16.1487C25.6802 17.0373 24.7908 18.6043 24.769 20.3008C24.7711 22.2202 25.9205 23.9523 27.6882 24.7C27.3483 25.8044 26.8358 26.8481 26.1698 27.7925C25.2754 29.1304 24.3377 30.4375 22.8493 30.4616C22.1414 30.478 21.6636 30.2744 21.1657 30.0623C20.6464 29.8411 20.1052 29.6105 19.2583 29.6105C18.3602 29.6105 17.7947 29.8485 17.2494 30.078C16.7781 30.2763 16.3219 30.4683 15.6789 30.495C14.2615 30.5475 13.1782 29.0671 12.2513 27.7417C10.3987 25.0351 8.95607 20.114 10.8901 16.7656C11.7982 15.1337 13.4963 14.0981 15.363 14.0378C16.1669 14.0212 16.9383 14.3311 17.6147 14.6027C18.1319 14.8105 18.5935 14.9959 18.9715 14.9959C19.3038 14.9959 19.7525 14.8178 20.2755 14.6103C21.0992 14.2833 22.1072 13.8833 23.1344 13.9911C24.7305 14.041 26.2096 14.8406 27.1256 16.1487Z" fill="white"/>
</svg>
