<svg width="135" height="40" viewBox="0 0 135 40" fill="none" xmlns="http://www.w3.org/2000/svg">
<rect width="135" height="40" rx="5" fill="black"/>
<path fill-rule="evenodd" clip-rule="evenodd" d="M5 0H130C132.761 0 135 2.23858 135 5V35C135 37.7614 132.761 40 130 40H5C2.23858 40 0 37.7614 0 35V5C0 2.23858 2.23858 0 5 0ZM134.2 5C134.2 2.6804 132.32 0.8 130 0.8H5C2.6804 0.8 0.8 2.6804 0.8 5V35C0.8 37.3196 2.6804 39.2 5 39.2H130C132.32 39.2 134.2 37.3196 134.2 35V5Z" fill="#A6A6A6"/>
<path fill-rule="evenodd" clip-rule="evenodd" d="M47.7401 23.06V24.86H52.0601C51.9924 25.7078 51.6399 26.5078 51.0601 27.13C50.1861 28.0202 48.9766 28.4997 47.7301 28.45C45.0791 28.45 42.9301 26.301 42.9301 23.65C42.9301 20.999 45.0791 18.85 47.7301 18.85C48.9479 18.8301 50.1239 19.2941 51.0001 20.14L52.2701 18.87C51.075 17.6599 49.4408 16.9853 47.7401 17C45.3191 16.9058 43.0405 18.1437 41.802 20.2261C40.5634 22.3084 40.5634 24.9016 41.802 26.9839C43.0405 29.0663 45.3191 30.3042 47.7401 30.21C49.4719 30.2883 51.1528 29.6137 52.3501 28.36C53.3978 27.2089 53.9571 25.6958 53.9101 24.14C53.9133 23.761 53.8798 23.3826 53.8101 23.01L47.7401 23.06ZM58.8301 21.75C56.4842 21.7555 54.5864 23.6607 54.5901 26.0067C54.5938 28.3526 56.4975 30.2518 58.8434 30.25C61.1893 30.2482 63.0901 28.3459 63.0901 26C63.1066 24.8644 62.6613 23.7707 61.8564 22.9695C61.0514 22.1683 59.9556 21.7282 58.8201 21.75H58.8301ZM63.9101 26.0133C63.9028 23.6687 65.7955 21.761 68.1401 21.75C69.2756 21.7282 70.3714 22.1683 71.1764 22.9695C71.9813 23.7707 72.4266 24.8644 72.4101 26C72.4101 28.3446 70.5113 30.2463 68.1667 30.2499C65.8221 30.2536 63.9175 28.3579 63.9101 26.0133ZM65.6321 27.1184C66.0888 28.0743 67.0833 28.6539 68.1401 28.58C68.8034 28.5646 69.4323 28.282 69.8842 27.7962C70.3361 27.3104 70.5726 26.6627 70.5401 26C70.5375 24.9406 69.8876 23.9905 68.9013 23.6041C67.9149 23.2176 66.7926 23.4734 66.0711 24.249C65.3495 25.0247 65.1755 26.1626 65.6321 27.1184ZM56.3154 27.1261C56.7753 28.0814 57.7728 28.6581 58.8301 28.58H58.8201C59.4834 28.5646 60.1123 28.282 60.5642 27.7962C61.0161 27.3104 61.2526 26.6627 61.2201 26C61.2172 24.9398 60.566 23.9893 59.5785 23.6037C58.5909 23.2181 57.4679 23.4759 56.7474 24.2537C56.0269 25.0315 55.8556 26.1708 56.3154 27.1261ZM89.4101 21.75C91.068 21.8111 92.5162 22.8892 93.0501 24.46L93.2601 24.91L87.5701 27.26C87.9267 28.0722 88.7437 28.5838 89.6301 28.55C90.486 28.5522 91.2798 28.1039 91.7201 27.37L93.1701 28.37C92.3807 29.5514 91.051 30.2577 89.6301 30.25C88.5007 30.2666 87.413 29.8231 86.6171 29.0216C85.8213 28.22 85.3855 27.1293 85.4101 26C85.341 24.8965 85.7317 23.8137 86.4895 23.0085C87.2472 22.2034 88.3045 21.7478 89.4101 21.75ZM87.2501 25.88C87.2091 25.2552 87.4214 24.6401 87.8391 24.1736C88.2567 23.707 88.8446 23.4282 89.4701 23.4C90.1295 23.3566 90.7512 23.7107 91.0501 24.3L87.2501 25.88ZM84.5001 30H82.6301V17.5H84.5001V30ZM79.5701 22.7H79.5001C78.9301 22.0627 78.1152 21.6989 77.2601 21.7C74.9902 21.8101 73.2064 23.6825 73.2064 25.955C73.2064 28.2275 74.9902 30.0999 77.2601 30.21C78.1179 30.2244 78.9381 29.8583 79.5001 29.21H79.5601V29.82C79.5601 31.45 78.6901 32.32 77.2901 32.32C76.3364 32.2977 75.4908 31.701 75.1501 30.81L73.5201 31.49C74.1478 33.0168 75.6393 34.0099 77.2901 34C79.4801 34 81.2901 32.71 81.2901 29.57V22H79.5701V22.7ZM77.427 28.5797L77.4301 28.58H77.4201L77.427 28.5797ZM79.1121 27.7778C78.6829 28.2634 78.0743 28.553 77.427 28.5797C76.0914 28.4604 75.0675 27.3413 75.0675 26C75.0675 24.6577 76.093 23.5378 77.4301 23.42C78.0762 23.4532 78.6816 23.7458 79.1089 24.2315C79.5363 24.7172 79.7495 25.3549 79.7001 26C79.7552 26.648 79.5428 27.2904 79.1121 27.7778ZM101.81 17.5H97.3401V30H99.2101V25.26H101.82C103.273 25.3644 104.662 24.6485 105.42 23.405C106.178 22.1614 106.178 20.5986 105.42 19.355C104.662 18.1115 103.273 17.3956 101.82 17.5H101.81ZM99.2001 23.5H101.81L101.85 23.53C103.035 23.53 103.995 22.5697 103.995 21.385C103.995 20.2003 103.035 19.24 101.85 19.24H99.2001V23.5ZM113.34 21.7C111.949 21.6168 110.641 22.3671 110.01 23.61L111.67 24.3C112.005 23.6837 112.671 23.3229 113.37 23.38C113.85 23.324 114.332 23.463 114.708 23.7657C115.084 24.0684 115.322 24.5096 115.37 24.99V25.12C114.769 24.802 114.1 24.6371 113.42 24.64C111.63 24.64 109.82 25.64 109.82 27.45C109.856 28.2297 110.205 28.9618 110.789 29.4798C111.373 29.9978 112.142 30.2575 112.92 30.2C113.879 30.2689 114.8 29.8087 115.32 29H115.38V30H117.18V25.19C117.18 23 115.52 21.73 113.39 21.73L113.34 21.7ZM111.65 27.49C111.65 28.24 112.5 28.55 113.11 28.55L113.16 28.58C114.287 28.5525 115.221 27.6994 115.35 26.58C114.831 26.2904 114.244 26.1453 113.65 26.16C112.71 26.16 111.65 26.49 111.65 27.49ZM123.74 22L121.6 27.42H121.54L119.32 22H117.32L120.65 29.58L118.75 33.79H120.7L125.82 22H123.74ZM108.8 30H106.93V17.5H108.8V30Z" fill="white"/>
<path fill-rule="evenodd" clip-rule="evenodd" d="M69.2102 12.22C70.4272 13.4302 72.3932 13.4302 73.6102 12.22C74.7949 10.9732 74.7949 9.01676 73.6102 7.77C73.0282 7.18375 72.2362 6.85403 71.4102 6.85403C70.5841 6.85403 69.7922 7.18375 69.2102 7.77C68.0304 9.01877 68.0304 10.9712 69.2102 12.22ZM46.6702 12.24C47.1834 11.7041 47.4545 10.9812 47.4202 10.24C47.4202 10.0891 47.4068 9.93852 47.3802 9.79H44.4702V10.51H46.6402C46.6253 10.9635 46.4479 11.3965 46.1402 11.73C45.4548 12.3925 44.4381 12.5777 43.5631 12.1993C42.6881 11.8208 42.1268 10.9532 42.1402 10C42.1184 9.36922 42.3546 8.75679 42.7942 8.30394C43.2338 7.85109 43.839 7.59691 44.4702 7.6C45.098 7.56569 45.7055 7.82868 46.1102 8.31L46.6402 7.78C46.3841 7.48556 46.062 7.25596 45.7002 7.11C45.3115 6.94367 44.8929 6.85859 44.4702 6.86C43.6407 6.84152 42.8407 7.16733 42.2602 7.76C41.3667 8.65932 41.0994 10.0066 41.5819 11.1789C42.0643 12.3512 43.2025 13.1201 44.4702 13.13C45.2966 13.1594 46.0966 12.8358 46.6702 12.24ZM49.3002 7.74H52.0002V7H48.5002V13H52.0002V12.26H49.3002V10.36H51.7602V9.64H49.3002V7.74ZM55.2802 13H54.5102V7.74H52.8302V7H57.0002V7.74H55.2802V13ZM60.7102 7H59.9402V13H60.7102V7ZM64.1302 13H63.3602V7.74H61.6802V7H65.8002V7.74H64.1302V13ZM69.7802 11.72C70.6815 12.6176 72.1388 12.6176 73.0402 11.72C73.9254 10.7442 73.9254 9.25583 73.0402 8.28C72.1388 7.38244 70.6815 7.38244 69.7802 8.28C68.895 9.25583 68.895 10.7442 69.7802 11.72ZM76.5202 7H75.5802V13H76.3602V8.11L79.4102 13H80.2102V7H79.4402V11.67L76.5202 7Z" fill="white"/>
<path d="M73.6102 12.22L73.6807 12.2909L73.6827 12.2889L73.6102 12.22ZM69.2102 12.22L69.1374 12.2887L69.1397 12.2909L69.2102 12.22ZM73.6102 7.77L73.6827 7.7011L73.6811 7.69955L73.6102 7.77ZM69.2102 7.77L69.1392 7.69953L69.1375 7.70133L69.2102 7.77ZM47.4202 10.24L47.3201 10.24L47.3203 10.2446L47.4202 10.24ZM46.6702 12.24L46.7422 12.3094L46.7424 12.3092L46.6702 12.24ZM47.3802 9.79L47.4786 9.77232L47.4638 9.69H47.3802V9.79ZM44.4702 9.79V9.69H44.3702V9.79H44.4702ZM44.4702 10.51H44.3702V10.61H44.4702V10.51ZM46.6402 10.51L46.7401 10.5133L46.7435 10.41H46.6402V10.51ZM46.1402 11.73L46.2098 11.802L46.2137 11.7978L46.1402 11.73ZM43.5631 12.1993L43.5234 12.291H43.5234L43.5631 12.1993ZM42.1402 10L42.2403 10.0014L42.2401 9.99655L42.1402 10ZM42.7942 8.30394L42.7225 8.23428L42.7942 8.30394ZM44.4702 7.6L44.4697 7.70018L44.4756 7.69985L44.4702 7.6ZM46.1102 8.31L46.0336 8.37435L46.1038 8.45781L46.1809 8.38071L46.1102 8.31ZM46.6402 7.78L46.7109 7.85071L46.7768 7.78477L46.7156 7.71439L46.6402 7.78ZM45.7002 7.11L45.6608 7.20196L45.6628 7.20274L45.7002 7.11ZM44.4702 6.86L44.4679 6.96001L44.4705 6.96L44.4702 6.86ZM42.2602 7.76L42.3311 7.83048L42.3316 7.82998L42.2602 7.76ZM41.5819 11.1789L41.4894 11.217H41.4894L41.5819 11.1789ZM44.4702 13.13L44.4737 13.03L44.4709 13.03L44.4702 13.13ZM52.0002 7.74V7.84H52.1002V7.74H52.0002ZM49.3002 7.74V7.64H49.2002V7.74H49.3002ZM52.0002 7H52.1002V6.9H52.0002V7ZM48.5002 7V6.9H48.4002V7H48.5002ZM48.5002 13H48.4002V13.1H48.5002V13ZM52.0002 13V13.1H52.1002V13H52.0002ZM52.0002 12.26H52.1002V12.16H52.0002V12.26ZM49.3002 12.26H49.2002V12.36H49.3002V12.26ZM49.3002 10.36V10.26H49.2002V10.36H49.3002ZM51.7602 10.36V10.46H51.8602V10.36H51.7602ZM51.7602 9.64H51.8602V9.54H51.7602V9.64ZM49.3002 9.64H49.2002V9.74H49.3002V9.64ZM54.5102 13H54.4102V13.1H54.5102V13ZM55.2802 13V13.1H55.3802V13H55.2802ZM54.5102 7.74H54.6102V7.64H54.5102V7.74ZM52.8302 7.74H52.7302V7.84H52.8302V7.74ZM52.8302 7V6.9H52.7302V7H52.8302ZM57.0002 7H57.1002V6.9H57.0002V7ZM57.0002 7.74V7.84H57.1002V7.74H57.0002ZM55.2802 7.74V7.64H55.1802V7.74H55.2802ZM59.9402 7V6.9H59.8402V7H59.9402ZM60.7102 7H60.8102V6.9H60.7102V7ZM59.9402 13H59.8402V13.1H59.9402V13ZM60.7102 13V13.1H60.8102V13H60.7102ZM63.3602 13H63.2602V13.1H63.3602V13ZM64.1302 13V13.1H64.2302V13H64.1302ZM63.3602 7.74H63.4602V7.64H63.3602V7.74ZM61.6802 7.74H61.5802V7.84H61.6802V7.74ZM61.6802 7V6.9H61.5802V7H61.6802ZM65.8002 7H65.9002V6.9H65.8002V7ZM65.8002 7.74V7.84H65.9002V7.74H65.8002ZM64.1302 7.74V7.64H64.0302V7.74H64.1302ZM73.0402 11.72L73.1108 11.791L73.1142 11.7872L73.0402 11.72ZM69.7802 11.72L69.706 11.7873L69.7096 11.7909L69.7802 11.72ZM73.0402 8.28L73.1143 8.21273L73.1107 8.20914L73.0402 8.28ZM69.7802 8.28L69.7095 8.20905L69.7061 8.21281L69.7802 8.28ZM75.5802 7V6.9H75.4802V7H75.5802ZM76.5202 7L76.6049 6.94699L76.5756 6.9H76.5202V7ZM75.5802 13H75.4802V13.1H75.5802V13ZM76.3602 13V13.1H76.4602V13H76.3602ZM76.3602 8.11L76.445 8.05708L76.2602 7.76072V8.11H76.3602ZM79.4102 13L79.3253 13.0529L79.3547 13.1H79.4102V13ZM80.2102 13V13.1H80.3102V13H80.2102ZM80.2102 7H80.3102V6.9H80.2102V7ZM79.4402 7V6.9H79.3402V7H79.4402ZM79.4402 11.67L79.3554 11.723L79.5402 12.0186V11.67H79.4402ZM73.5396 12.1491C72.3616 13.3205 70.4587 13.3205 69.2807 12.1491L69.1397 12.2909C70.3957 13.5399 72.4247 13.5399 73.6807 12.2909L73.5396 12.1491ZM73.5377 7.83889C74.6858 9.04705 74.6858 10.943 73.5377 12.1511L73.6827 12.2889C74.9041 11.0035 74.9041 8.98648 73.6827 7.70112L73.5377 7.83889ZM71.4102 6.95403C72.2096 6.95403 72.976 7.27311 73.5392 7.84045L73.6811 7.69955C73.0804 7.09438 72.2629 6.75403 71.4102 6.75403V6.95403ZM69.2811 7.84045C69.8444 7.27311 70.6107 6.95403 71.4102 6.95403V6.75403C70.5574 6.75403 69.74 7.09438 69.1392 7.69955L69.2811 7.84045ZM69.2829 12.1513C68.1395 10.9411 68.1395 9.0489 69.2829 7.83867L69.1375 7.70133C67.9213 8.98864 67.9213 11.0014 69.1375 12.2887L69.2829 12.1513ZM47.3203 10.2446C47.3534 10.9585 47.0923 11.6547 46.5979 12.1708L46.7424 12.3092C47.2746 11.7535 47.5557 11.004 47.5201 10.2354L47.3203 10.2446ZM47.2817 9.80768C47.3074 9.95035 47.3202 10.095 47.3202 10.24L47.5202 10.24C47.5202 10.0832 47.5063 9.92669 47.4786 9.77232L47.2817 9.80768ZM44.4702 9.89H47.3802V9.69H44.4702V9.89ZM44.5702 10.51V9.79H44.3702V10.51H44.5702ZM46.6402 10.41H44.4702V10.61H46.6402V10.41ZM46.2137 11.7978C46.5376 11.4467 46.7245 10.9908 46.7401 10.5133L46.5402 10.5067C46.5262 10.9362 46.3581 11.3464 46.0667 11.6622L46.2137 11.7978ZM43.5234 12.291C44.4354 12.6855 45.4952 12.4925 46.2097 11.8019L46.0707 11.6581C45.4143 12.2926 44.4407 12.4699 43.6028 12.1075L43.5234 12.291ZM42.0402 9.9986C42.0262 10.9922 42.6114 11.8966 43.5234 12.291L43.6028 12.1075C42.7649 11.7451 42.2273 10.9142 42.2402 10.0014L42.0402 9.9986ZM42.7225 8.23428C42.2639 8.70665 42.0175 9.34548 42.0402 10.0035L42.2401 9.99655C42.2193 9.39296 42.4453 8.80693 42.8659 8.3736L42.7225 8.23428ZM44.4707 7.5C43.8123 7.49677 43.181 7.76191 42.7225 8.23428L42.8659 8.3736C43.2866 7.94027 43.8657 7.69704 44.4697 7.7L44.4707 7.5ZM46.1867 8.24565C45.7618 7.74026 45.124 7.46412 44.4647 7.50015L44.4756 7.69985C45.0721 7.66726 45.6492 7.9171 46.0336 8.37435L46.1867 8.24565ZM46.5695 7.70929L46.0395 8.23929L46.1809 8.38071L46.7109 7.85071L46.5695 7.70929ZM45.6628 7.20274C46.01 7.34279 46.319 7.56309 46.5647 7.84562L46.7156 7.71439C46.4492 7.40802 46.1141 7.16912 45.7376 7.01726L45.6628 7.20274ZM44.4705 6.96C44.8796 6.95864 45.2847 7.04097 45.6608 7.20194L45.7395 7.01807C45.3383 6.84637 44.9062 6.75855 44.4698 6.76L44.4705 6.96ZM42.3316 7.82998C42.8928 7.25706 43.6662 6.94211 44.4679 6.95998L44.4724 6.76003C43.6153 6.74093 42.7886 7.0776 42.1887 7.69003L42.3316 7.82998ZM41.6743 11.1409C41.2072 10.0058 41.466 8.70125 42.3311 7.83048L42.1892 7.68952C41.2674 8.61739 40.9916 10.0075 41.4894 11.217L41.6743 11.1409ZM44.4709 13.03C43.2435 13.0204 42.1415 12.2759 41.6743 11.1409L41.4894 11.217C41.9872 12.4265 43.1615 13.2198 44.4694 13.23L44.4709 13.03ZM46.5981 12.1706C46.0443 12.746 45.2718 13.0585 44.4737 13.0301L44.4666 13.2299C45.3215 13.2604 46.1489 12.9256 46.7422 12.3094L46.5981 12.1706ZM52.0002 7.64H49.3002V7.84H52.0002V7.64ZM51.9002 7V7.74H52.1002V7H51.9002ZM48.5002 7.1H52.0002V6.9H48.5002V7.1ZM48.6002 13V7H48.4002V13H48.6002ZM52.0002 12.9H48.5002V13.1H52.0002V12.9ZM51.9002 12.26V13H52.1002V12.26H51.9002ZM49.3002 12.36H52.0002V12.16H49.3002V12.36ZM49.2002 10.36V12.26H49.4002V10.36H49.2002ZM51.7602 10.26H49.3002V10.46H51.7602V10.26ZM51.6602 9.64V10.36H51.8602V9.64H51.6602ZM49.3002 9.74H51.7602V9.54H49.3002V9.74ZM49.2002 7.74V9.64H49.4002V7.74H49.2002ZM54.5102 13.1H55.2802V12.9H54.5102V13.1ZM54.4102 7.74V13H54.6102V7.74H54.4102ZM52.8302 7.84H54.5102V7.64H52.8302V7.84ZM52.7302 7V7.74H52.9302V7H52.7302ZM57.0002 6.9H52.8302V7.1H57.0002V6.9ZM57.1002 7.74V7H56.9002V7.74H57.1002ZM55.2802 7.84H57.0002V7.64H55.2802V7.84ZM55.3802 13V7.74H55.1802V13H55.3802ZM59.9402 7.1H60.7102V6.9H59.9402V7.1ZM60.0402 13V7H59.8402V13H60.0402ZM60.7102 12.9H59.9402V13.1H60.7102V12.9ZM60.6102 7V13H60.8102V7H60.6102ZM63.3602 13.1H64.1302V12.9H63.3602V13.1ZM63.2602 7.74V13H63.4602V7.74H63.2602ZM61.6802 7.84H63.3602V7.64H61.6802V7.84ZM61.5802 7V7.74H61.7802V7H61.5802ZM65.8002 6.9H61.6802V7.1H65.8002V6.9ZM65.9002 7.74V7H65.7002V7.74H65.9002ZM64.1302 7.84H65.8002V7.64H64.1302V7.84ZM64.2302 13V7.74H64.0302V13H64.2302ZM72.9696 11.6491C72.1073 12.5079 70.713 12.5079 69.8507 11.6491L69.7096 11.7909C70.6499 12.7273 72.1704 12.7273 73.1107 11.7909L72.9696 11.6491ZM72.9661 8.34719C73.8167 9.2849 73.8167 10.7151 72.9661 11.6528L73.1142 11.7872C74.034 10.7732 74.034 9.22676 73.1142 8.21281L72.9661 8.34719ZM69.8507 8.35086C70.713 7.49215 72.1073 7.49215 72.9696 8.35086L73.1107 8.20914C72.1704 7.27272 70.6499 7.27272 69.7096 8.20914L69.8507 8.35086ZM69.8542 11.6528C69.0036 10.7151 69.0036 9.2849 69.8542 8.34719L69.7061 8.21281C68.7863 9.22676 68.7863 10.7732 69.7061 11.7872L69.8542 11.6528ZM75.5802 7.1H76.5202V6.9H75.5802V7.1ZM75.6802 13V7H75.4802V13H75.6802ZM76.3602 12.9H75.5802V13.1H76.3602V12.9ZM76.2602 8.11V13H76.4602V8.11H76.2602ZM79.495 12.9471L76.445 8.05708L76.2753 8.16292L79.3253 13.0529L79.495 12.9471ZM80.2102 12.9H79.4102V13.1H80.2102V12.9ZM80.1102 7V13H80.3102V7H80.1102ZM79.4402 7.1H80.2102V6.9H79.4402V7.1ZM79.5402 11.67V7H79.3402V11.67H79.5402ZM76.4354 7.05302L79.3554 11.723L79.5249 11.617L76.6049 6.94699L76.4354 7.05302Z" fill="white"/>
<path d="M10.4401 7.54C10.1142 7.93111 9.9497 8.4318 9.98014 8.94V31.06C9.9497 31.5682 10.1142 32.0689 10.4401 32.46L10.5101 32.53L22.9001 20.15V19.86L10.5101 7.47L10.4401 7.54Z" fill="url(#paint0_linear)"/>
<path d="M26.9994 24.28L22.8994 20.15V19.86L26.9994 15.72L27.0894 15.77L31.9994 18.56C33.3994 19.35 33.3994 20.65 31.9994 21.45L27.1094 24.23L26.9994 24.28Z" fill="url(#paint1_linear)"/>
<path d="M27.1195 24.22L22.8995 20L10.4395 32.46C11.0282 32.9775 11.9019 33.0027 12.5195 32.52L27.1295 24.22" fill="url(#paint2_linear)"/>
<path d="M27.1197 15.78L12.5097 7.48C11.8921 6.99728 11.0184 7.02248 10.4297 7.54L22.8997 20L27.1197 15.78Z" fill="url(#paint3_linear)"/>
<path opacity="0.2" d="M26.9995 24.13L12.5095 32.38C11.9165 32.8233 11.1024 32.8233 10.5095 32.38L10.4395 32.45L10.5095 32.52C11.1013 32.9667 11.9176 32.9667 12.5095 32.52L27.1195 24.22L26.9995 24.13Z" fill="black"/>
<path opacity="0.12" fill-rule="evenodd" clip-rule="evenodd" d="M27.0001 24.13L32.0001 21.3C32.5168 21.045 32.8862 20.5648 33.0001 20C32.9486 20.6244 32.5672 21.1736 32.0001 21.44L27.0901 24.22L27.0001 24.13ZM9.97797 31.1147C9.99448 31.5546 10.156 31.979 10.4401 32.32L10.5101 32.4L10.4401 32.47C10.1238 32.0904 9.95948 31.6075 9.97797 31.1147ZM9.97797 31.1147C9.97853 31.0998 9.97925 31.0849 9.98014 31.07V30.92C9.97625 30.9851 9.97554 31.05 9.97797 31.1147Z" fill="black"/>
<path opacity="0.25" d="M12.5097 7.62L31.9997 18.7C32.5164 18.955 32.8858 19.4352 32.9997 20C32.9482 19.3756 32.5668 18.8264 31.9997 18.56L12.5097 7.48C11.1097 6.69 9.96973 7.35 9.96973 8.95V9.1C9.99973 7.49 11.1197 6.83 12.5097 7.62Z" fill="white"/>
<defs>
<linearGradient id="paint0_linear" x1="17.4734" y1="-7.55897" x2="-2.36605" y2="-2.28263" gradientUnits="userSpaceOnUse">
<stop stop-color="#00A0FF"/>
<stop offset="0.01" stop-color="#00A1FF"/>
<stop offset="0.26" stop-color="#00BEFF"/>
<stop offset="0.51" stop-color="#00D2FF"/>
<stop offset="0.76" stop-color="#00DFFF"/>
<stop offset="1" stop-color="#00E3FF"/>
</linearGradient>
<linearGradient id="paint1_linear" x1="33.8294" y1="9.79969" x2="9.63941" y2="9.79969" gradientUnits="userSpaceOnUse">
<stop stop-color="#FFE000"/>
<stop offset="0.41" stop-color="#FFBD00"/>
<stop offset="0.78" stop-color="#FFA500"/>
<stop offset="1" stop-color="#FF9C00"/>
</linearGradient>
<linearGradient id="paint2_linear" x1="10.0733" y1="13.5275" x2="-5.8631" y2="40.3341" gradientUnits="userSpaceOnUse">
<stop stop-color="#FF3A44"/>
<stop offset="1" stop-color="#C31162"/>
</linearGradient>
<linearGradient id="paint3_linear" x1="0.709706" y1="4.09601" x2="7.82299" y2="16.0665" gradientUnits="userSpaceOnUse">
<stop stop-color="#32A071"/>
<stop offset="0.07" stop-color="#2DA771"/>
<stop offset="0.48" stop-color="#15CF74"/>
<stop offset="0.8" stop-color="#06E775"/>
<stop offset="1" stop-color="#00F076"/>
</linearGradient>
</defs>
</svg>
