<svg width="24" height="31" viewBox="0 0 24 31" fill="none" xmlns="http://www.w3.org/2000/svg">
<path d="M1.70401 2.96438C1.80721 2.86993 1.89361 2.71372 1.95961 2.49696C2.02561 2.28021 2.05801 1.98354 2.05801 1.60813C2.05801 1.23275 2.02561 0.944545 1.95961 0.74351C1.89481 0.542494 1.80241 0.386297 1.68361 0.274883C1.56601 0.161054 1.41601 0.0859787 1.23482 0.0460166C1.09922 0.014533 0.834018 -2.56757e-07 0.436808 -2.56757e-07H2.7e-08V3.21501H0.724808C0.996007 3.21501 1.1916 3.19806 1.31282 3.16778C1.46882 3.12661 1.59962 3.0588 1.70401 2.96435L1.70401 2.96438Z" transform="translate(11.22 8.33977)" fill="#ABABAB"/>
<path d="M19.2359 0H-8.4375e-08V31H24V4.80748L19.2359 0ZM15.1102 7.51626H18.409V8.33726H16.0822V9.48764H18.091V10.3086H16.0822V12.3709L15.1102 12.3721L15.1102 7.51626ZM10.2479 7.51626H12.0227C12.4235 7.51626 12.7283 7.54774 12.9383 7.6095C13.2203 7.69427 13.4627 7.842 13.6643 8.05754C13.8647 8.27188 14.0183 8.53346 14.1239 8.84467C14.2295 9.15587 14.2811 9.53733 14.2811 9.99263C14.2811 10.3922 14.2307 10.7361 14.1335 11.0255C14.0135 11.3779 13.8419 11.6637 13.6187 11.8829C13.4495 12.0488 13.2227 12.1783 12.9359 12.2704C12.7223 12.3382 12.4343 12.3721 12.0755 12.3721H10.2479L10.2491 7.51626H10.2479ZM5.76829 7.51626H7.32709C7.9175 7.51626 8.30269 7.54048 8.48149 7.58892C8.75749 7.66158 8.98787 7.819 9.17388 8.06359C9.35988 8.3082 9.45348 8.62305 9.45348 9.01055C9.45348 9.30844 9.39948 9.55788 9.29268 9.76134C9.18588 9.96479 9.05028 10.1234 8.88469 10.2397C8.71909 10.3547 8.5511 10.431 8.3807 10.4697C8.1479 10.5158 7.81309 10.5388 7.37391 10.5388H6.74031V12.3709L5.7683 12.3697L5.76829 7.51626ZM19.1926 24.2587H4.80707V23.29H19.1939L19.1926 24.2587ZM19.1926 20.8283H4.80707V19.8595H19.1939L19.1926 20.8283Z" fill="#ABABAB"/>
<path d="M1.29956 1.30055C1.42796 1.24969 1.52996 1.17098 1.60316 1.06199C1.67756 0.954217 1.71356 0.82828 1.71356 0.685404C1.71356 0.508608 1.66196 0.363283 1.55876 0.248242C1.45556 0.133204 1.32596 0.0617583 1.16758 0.0326958C1.05117 0.010899 0.819578 -1.3642e-07 0.469186 -1.3642e-07H2.04375e-07V1.37804H0.53161C0.914411 1.37683 1.17 1.35261 1.29961 1.30054L1.29956 1.30055Z" transform="translate(6.73999 8.33735)" fill="#ABABAB"/>
</svg>
